<?xml version="1.0" encoding="UTF-8"?>
<svg viewBox="0 0 792 485" xmlns="http://www.w3.org/2000/svg">
 <path d="m327 0v143l416 37 13-58 33-67c-14-13-73-47-102-48-47-3-146 31-210 30-65-2-146-37-146-37z" fill="#d3cad1"/>
 <path d="m335 69h-8c-64 1-304 62-327 79l22 142 19 186s386-48 411-50c24-1 303-28 303-28s-5-21-9-36c-4-14-80-291-80-291s-75 19-114 21c-37 2-129-23-216-23z" fill="#deaa87"/>
 <path d="m731 472-87-100-60 51 40 54z" fill="#fadcaa"/>
 <path d="m591 453s36-10 50-25c14-14 28-49 28-49s-38-22-44-33c-5-11-13-60-13-60l-32-41-60-15v7l-29-6s-7 0-9 3c-1 3 4 10 4 10s-23-3-31-7c-7-3-13 11-7 15 5 3 56 24 64 30 7 5 29 17 29 17l-7 5s-48-28-65-37c-16-9-23-12-28-12s-12 6-11 13 15 21 34 31c18 10 57 35 60 43 3 7-5 6-11 0s-33-29-33-29l-18-11s-1 38 16 53 55 40 65 43c9 2 19 5 19 5z" fill="#c1e2ee"/>
 <path d="m311 340s17 18 32 25c14 7 50 5 50 5s7-27 13-33c6-5 26 4 33-39 6-44 0-64 0-64s29-17 42-22c13-4 35-24 15-21-19 2-51 14-60 19s-9 0 7-10 34-33 39-38c4-5-3-30-23-14-20 15-38 44-40 45-2 2-5-1 2-14 8-13 27-31 32-38 4-7-1-29-14-18s-42 49-44 53c-1 3-2-10 3-18s22-27 23-31c0-3 0-10-9-7-9 2-27 4-35 28-7 24-20 87-20 87l-13 75z" fill="#99b2b4"/>
 <path d="m344 307s22 27 47 6 0-60-11-68c-10-7-25-25-25-25s-2-20-3-24c0-4 14-14 14-22s-20-28-20-28-14 25-18 29c-3 4-9 9-9 9l-1 57s20 43 21 49 5 16 5 16z" fill="#bad6e2"/>
 <path d="m473 208a64 64 0 1 1 -129 0 64 64 0 1 1 129 0z" fill="#73868d" fill-opacity=".7"/>
 <path d="m468 209a53 53 0 0 1 -107 0 53 53 0 1 1 107 0z" fill="#deeccf" fill-opacity=".7"/>
 <path d="m429 179 5 21-6 17h-11l10-18-9-18z" fill="#a8c2aa" fill-opacity=".7"/>
 <path d="m448 182 5 21-6 17h-11l10-18-9-18z" fill="#a8c2aa" fill-opacity=".7"/>
 <path d="m410 180 5 21-6 17h-11l10-18-9-18z" fill="#a8c2aa" fill-opacity=".7"/>
 <path d="m372 197 11-9h9l9 14-9 15-18-2z" fill="#d1dfb0"/>
 <path d="m396 202a8 8 0 0 1 -16 0 8 8 0 1 1 16 0z" fill="#f6c17f"/>
 <path d="m392 201a4 4 0 0 1 -9 0 4 4 0 1 1 9 0z" fill="#fada7c"/>
 <path d="m388 200a2 2 0 1 1 -4 0 2 2 0 1 1 4 0z" fill="#fffce2"/>
 <path d="m316 157a50 50 0 0 1 -100 0 50 50 0 1 1 100 0z" fill="#9c8b89"/>
 <path d="m307 150a37 37 0 0 1 -74 0 37 37 0 1 1 74 0z" fill="#fffce2"/>
 <path d="m257 135-20 31" fill="none" stroke="#9c8b89" stroke-width="4"/>
 <path d="m273 135-21 32" fill="none" stroke="#9c8b89" stroke-width="4"/>
 <path d="m288 135-21 32" fill="none" stroke="#9c8b89" stroke-width="4"/>
 <path d="m303 135-21 32" fill="none" stroke="#9c8b89" stroke-width="4"/>
 <path d="m276 265a15 15 0 1 1 -31 0 15 15 0 1 1 31 0z" fill="#717278"/>
 <path d="m283 328a15 15 0 1 1 -31 0 15 15 0 1 1 31 0z" fill="#717278"/>
 <path d="m285 258a16 16 0 0 1 -33 0 16 16 0 1 1 33 0z" fill="#d3cad1"/>
 <path d="m292 321a16 16 0 1 1 -33 0 16 16 0 1 1 33 0z" fill="#d3cad1"/>
 <path d="m548 86a50 50 0 0 1 -100 0 50 50 0 1 1 100 0z" fill="#d3cad1"/>
 <path d="m534 82.73a37.03 37.03 0 0 1 -74 0 37.03 37.03 0 1 1 74 0z" fill="#f2f0f7"/>
 <path d="m525.3 68.03a7.264 7.264 0 1 1 -14.5 0 7.264 7.264 0 1 1 14.5 0z" fill="#fada7c"/>
 <path d="m517.4 89.23a12.3 12.3 0 0 1 -24.6 0 12.3 12.3 0 1 1 24.6 0z" fill="#f8caa3"/>
 <path d="m502.3 79.43a12.3 12.3 0 0 1 -24.6 0 12.3 12.3 0 1 1 24.6 0z" fill="#e3c5a8"/>
 <path d="m639.6 177.1a59.2 59.2 0 0 1 -118.4 0 59.2 59.2 0 1 1 118.4 0z" fill="#e8e5f2"/>
 <path d="m593.8 62.93c-5.3 21.4-15.6 63.77-21 83.27-9.7 35.1 26.3 47.7 38.5 15.6 12.2-32.2 30.3-84.67 32.2-90.47 6.1-17.7-0.9-30.25-14.8-33.11-17.1-3.5-29.6 3.27-34.9 24.71z" fill="#fff" fill-opacity=".785"/>
 <path d="m587.7 86.33 25.1 8.18" fill="#b9abac" stroke="#b9abac" stroke-width="5"/>
 <path d="m584 99.41 24.4 7.79" fill="#b9abac" stroke="#b9abac" stroke-width="5"/>
 <path d="m580.7 113.3 25.3 8" fill="#b9abac" stroke="#b9abac" stroke-width="5"/>
 <path d="m600.6 154.5 22.9-71.17" fill="none" stroke="#dcf0f9" stroke-width="5"/>
 <path d="m646 58.33a24.61 21.07 0 1 1 -49.2 0 24.61 21.07 0 1 1 49.2 0z" fill="#bad6e2" fill-opacity=".7304"/>
 <path d="m607.2 66.83s1-13.2 13.2-13c13.7-0.5 14.1 16 14.1 16s11.1-26.5-12.3-26.64c-26.4-0.14-15 23.64-15 23.64z" fill="#dcf0f9" fill-opacity=".8089"/>
 <path d="m654.9 131.7-10 77.7s-23.8 21 7.2 34.2c38.7 16.5 44.3-17.3 44.3-17.3l40.3-87.4s6.8-32.5-32.1-37.7c-42.8-7.09-49.7 30.5-49.7 30.5z" fill="#dcf0f9" fill-opacity=".8532"/>
 <path d="m738.7 130a41.7 30.22 0 0 1 -83.4 0 41.7 30.22 0 1 1 83.4 0z" fill="#819699" fill-opacity=".7986"/>
 <path d="m695.2 111.8c-15.2 0-27.5 8.9-27.5 19.9 0 5.4 2.9 10.2 7.6 13.8 1.9-8.8 9.8-15.4 19.1-15.4 9.7 0 17.8 7.1 19.3 16.4 5.5-3.7 9-8.9 9-14.8 0-11-12.3-19.9-27.5-19.9z" fill="#dcf0f9" fill-opacity=".8532"/>
 <path d="m654.5 162.7 28.2 8.8" fill="none" stroke="#9c8b89" stroke-width="5"/>
 <path d="m650.9 180.8 26.2 7.6" fill="none" stroke="#9c8b89" stroke-width="5"/>
 <path d="m647.3 197.7 25 7.2" fill="none" stroke="#9c8b89" stroke-width="5"/>
 <path d="m326.3 343.1-59.2 64.8 88.2 36.3 35-78.2-62-22.5z" fill="#fadcaa"/>
 <path d="m260.3 385.8s22.9 23.3 51.9 34.2 70.9 12.1 70.9 12.1l6.4 52.7-177.6-36.2z" fill="#bad6e2"/>
 <path d="m413.5 219.6 225.5 228.9-10.2 9.7-220.4-237.5-6.9-2.3s-5.1-1.7-5.1-5.1-0.6-9.7-0.6-9.7 11.4-2.2 14.3 1.2c2.8 3.4 3.4 14.8 3.4 14.8z" fill="#778a8e"/>
 <path d="m641.3 453.7a7.12 7.974 0 0 1 -14.2 0 7.12 7.974 0 1 1 14.2 0z"/>
 <path d="m737.9 267.5a45.55 45.55 0 0 1 -91.1 0 45.55 45.55 0 1 1 91.1 0z" fill="#d3cad1" stroke="#b3b3b3" stroke-linejoin="round"/>
 <path d="m735.6 268.2a48.52 48.52 0 0 1 -97 0 48.52 48.52 0 1 1 97 0z" fill="#e8e5f2"/>
 <path d="m731.5 268.2a41.56 41.56 0 0 1 -83.1 0 41.56 41.56 0 1 1 83.1 0z" fill="#d3cad1"/>
 <path d="m695.1 246.6a9.26 9.26 0 0 1 -18.5 0 9.26 9.26 0 1 1 18.5 0z" fill="#fffce2"/>
 <path d="m689.9 245.6a5.503 5.503 0 0 1 -11 0 5.503 5.503 0 1 1 11 0z" fill="#b9abac"/>
 <path d="m716.7 256.1a7.15 7.15 0 0 1 -14.3 0 7.15 7.15 0 1 1 14.3 0z" fill="#333"/>
 <path d="m659.1 277.2 20-20.4" fill="none" stroke="#fff" stroke-width="4"/>
 <path d="m674.2 279.7 20-20.5" fill="none" stroke="#fff" stroke-width="4"/>
 <path d="m687.8 281.1 20-20.4" fill="none" stroke="#fff" stroke-width="4"/>
 <path d="m703.9 282.1 20-20.4" fill="none" stroke="#fff" stroke-width="4"/>
 <path d="m716.6 290.4a7.851 7.851 0 0 1 -15.7 0 7.851 7.851 0 1 1 15.7 0z" fill="#333"/>
 <path d="m706.5 292.8a5.503 5.503 0 0 1 -11 0 5.503 5.503 0 1 1 11 0z" fill="#b9abac"/>
 <path d="m690.3 281.4a7.147 7.147 0 0 1 -14.2 0 7.147 7.147 0 1 1 14.2 0z" fill="#333"/>
</svg>
