<?xml version="1.0" encoding="UTF-8" standalone="no"?>
<!-- Generator: Adobe Illustrator 17.1.0, SVG Export Plug-In . SVG Version: 6.00 Build 0)  -->

<svg
   xmlns:dc="http://purl.org/dc/elements/1.1/"
   xmlns:cc="http://creativecommons.org/ns#"
   xmlns:rdf="http://www.w3.org/1999/02/22-rdf-syntax-ns#"
   xmlns:svg="http://www.w3.org/2000/svg"
   xmlns="http://www.w3.org/2000/svg"
   xmlns:sodipodi="http://sodipodi.sourceforge.net/DTD/sodipodi-0.dtd"
   xmlns:inkscape="http://www.inkscape.org/namespaces/inkscape"
   version="1.1"
   id="Capa_1"
   x="0px"
   y="0px"
   viewBox="0 0 936.19563 1440.1511"
   xml:space="preserve"
   width="1264.969"
   height="1945.9036"
   sodipodi:docname="arte.svg"
   inkscape:version="0.92.1 unknown"><metadata
     id="metadata38"><rdf:RDF><cc:Work
         rdf:about=""><dc:format>image/svg+xml</dc:format><dc:type
           rdf:resource="http://purl.org/dc/dcmitype/StillImage" /><dc:title></dc:title></cc:Work></rdf:RDF></metadata><defs
     id="defs36" /><sodipodi:namedview
     pagecolor="#ffffff"
     bordercolor="#666666"
     borderopacity="1"
     objecttolerance="10"
     gridtolerance="10"
     guidetolerance="10"
     inkscape:pageopacity="0"
     inkscape:pageshadow="2"
     inkscape:window-width="1366"
     inkscape:window-height="713"
     id="namedview34"
     showgrid="false"
     fit-margin-top="0"
     fit-margin-left="0"
     fit-margin-right="0"
     fit-margin-bottom="0"
     inkscape:zoom="0.1236248"
     inkscape:cx="1937.8797"
     inkscape:cy="215.85157"
     inkscape:window-x="0"
     inkscape:window-y="0"
     inkscape:window-maximized="1"
     inkscape:current-layer="Capa_1" /><path
     id="XMLID_1375_"
     d="m 21.120924,860.3333 c 0.0664,1.1019 0.36334,2.1374 0.84324,3.0615 0.45012,0.8687 1.07383,1.6643 1.86516,2.3297 0.10381,0.089 0.21017,0.1728 0.31908,0.2553 9.57342,7.3381 32.42163,9.9546 50.645227,9.9546 1.95451,0 3.94219,-0.029 5.90606,-0.088 4.22724,-0.1242 7.55339,-3.6529 7.42916,-7.881 -0.12423,-4.2281 -3.6648,-7.5712 -7.88014,-7.4283 -1.8141,0.054 -3.64948,0.081 -5.45508,0.081 -19.504197,0 -32.590947,-2.8224 -38.513167,-5.2891 l -6.08475,-187.33272 c 1.93749,0.73262 4.05026,1.41418 6.33916,2.0447 11.32626,3.11852 26.25009,4.83648 42.024817,4.83648 4.30808,0 8.55404,-0.12763 12.68003,-0.3778 l -3.01898,99.193 c -0.12848,4.22724 3.19341,7.75846 7.4215,7.88779 4.23065,0.14465 7.759309,-3.19426 7.887789,-7.42235 l 3.08109,-101.2377 c 5.06027,-0.75559 9.76657,-1.72051 13.97339,-2.87942 2.29571,-0.63222 4.41444,-1.31719 6.35703,-2.05236 l -2.21743,70.97649 c -0.13189,4.2281 3.1883,7.76186 7.41469,7.8929 4.23916,0.16763 7.76101,-3.18745 7.89375,-7.41469 l 2.71945,-87.05244 c 0.0145,-0.24761 0.0213,-0.49693 0.0213,-0.74794 0,-6.50509 -4.73608,-11.77212 -14.0772,-15.65645 -3.9022,-1.62436 -8.38641,0.22548 -10.01162,4.13024 -1.62436,3.9056 0.22549,8.38726 4.13024,10.01247 1.39802,0.58116 2.4259,1.11042 3.17299,1.55458 -3.07088,1.82262 -9.47301,4.0426 -18.90432,5.66015 l 1.96386,-64.5148 c 0.12849,-4.22724 -3.1934,-7.75845 -7.4215,-7.88779 -4.208519,-0.10892 -7.759299,3.19511 -7.887789,7.42235 l -1.11127,36.51187 c -4.58121,-0.30972 -9.28751,-0.46714 -14.06868,-0.46714 -15.774727,0 -30.698567,1.71796 -42.024817,4.83734 -14.67707,4.04259 -22.14197,10.20647 -22.18962,18.3206 0,0.0442 0,0.0885 0,0.13274 8.5e-4,0.21698 0.007,0.43225 0.0187,0.64668 l 6.74674,207.71942 c 0.003,0.09 0.006,0.1787 0.0119,0.2681 z M 78.557991,643.72536 c 4.63737,0 9.18881,0.15827 13.60239,0.47225 l -0.45437,14.93319 c -4.06728,0.27484 -8.45364,0.43055 -13.14802,0.43055 -25.592347,0 -42.019707,-4.62461 -47.497767,-7.91757 5.47806,-3.29296 21.90627,-7.91842 47.497767,-7.91842 z M 49.484634,768.00953 c -2.99089,-2.99089 -2.99004,-7.83929 8.5e-4,-10.83018 2.99175,-2.98919 7.84014,-2.99005 10.83019,8.5e-4 l 2.78157,2.78242 c 2.99089,2.9909 2.99004,7.83929 -8.5e-4,10.83018 -1.49502,1.49503 -3.45463,2.24296 -5.41424,2.24296 -1.96046,0 -3.92007,-0.74793 -5.41509,-2.24381 z M 191.15427,671.87549 c 1.21593,-8.67316 5.73163,-17.77092 10.09842,-26.56917 10.25583,-20.66226 12.02569,-27.88551 3.12363,-32.81899 -3.69969,-2.05066 -5.03559,-6.71185 -2.98579,-10.41069 2.04981,-3.69884 6.71186,-5.03304 10.40984,-2.98579 10.30263,5.71035 14.89746,14.83534 13.28672,26.38708 -1.21338,8.7021 -5.73929,17.82028 -10.11629,26.63895 -10.22094,20.59249 -11.9925,27.78595 -3.17043,32.67604 3.69884,2.05066 5.03559,6.71185 2.98494,10.41069 -1.39887,2.5229 -4.01112,3.9473 -6.70505,3.9473 -1.25592,0 -2.52971,-0.30972 -3.70564,-0.96236 -10.26349,-5.68993 -14.83534,-14.78939 -13.22035,-26.31306 z M 121.0576,891.1092 c 0.90876,4.1303 -1.70264,8.2163 -5.83288,9.1259 -10.63788,2.3408 -24.555949,3.6299 -39.190479,3.6299 -20.076847,0 -45.220777,-2.5697 -55.580417,-9.7793 -3.47165,-2.4166 -4.3268,-7.1884 -1.91026,-10.66 2.41569,-3.4708 7.18921,-4.326 10.66001,-1.9103 4.89945,3.4104 22.9767,7.0344 46.830667,7.0344 13.5607,0 26.309649,-1.1615 35.899219,-3.2726 4.12939,-0.9062 8.21539,1.7018 9.12414,5.832 z m 209.982,-92.12201 c -1.79114,-1.55118 -4.20087,-2.1868 -6.52381,-1.71881 -5.8516,1.17764 -11.85636,2.26168 -17.98876,3.25127 -1.36313,-2.31954 -3.02067,-4.45869 -4.96156,-6.39958 L 288.08135,780.6368 c 12.57026,-3.98048 24.21219,-11.78403 33.13893,-22.86948 18.20062,-22.60316 20.66141,-53.31023 6.12473,-76.41116 -0.90875,-1.44482 -2.27359,-2.54418 -3.87923,-3.12448 -25.66807,-9.27135 -55.14305,-0.31739 -73.34453,22.28577 -16.95918,21.06133 -20.25554,49.15446 -8.86802,71.57467 l -1.58862,1.97237 c -2.65309,3.29381 -2.13234,8.11498 1.16147,10.76722 3.29466,2.65394 8.11583,2.13149 10.76721,-1.16147 l 1.58862,-1.97152 c 5.35043,1.39376 10.81402,2.03534 16.26825,1.96641 l 19.40039,19.39954 c -25.67999,3.26999 -53.16132,4.96582 -81.10469,4.96582 -27.94337,0 -55.42555,-1.69668 -81.10469,-4.96582 l 69.20749,-69.20663 c 5.25512,-5.25513 13.49263,-6.41745 20.0343,-2.82412 3.70565,2.03619 8.36259,0.68242 10.39878,-3.02578 2.03619,-3.7065 0.68157,-8.36259 -3.02493,-10.39963 -12.47411,-6.85055 -28.19863,-4.62291 -38.23833,5.41934 l -71.09307,71.09222 c -1.93919,1.94004 -3.59673,4.08004 -4.95901,6.39873 -6.13155,-0.98959 -12.136309,-2.07448 -17.987909,-3.25127 -2.32294,-0.46459 -4.73182,0.16677 -6.5238,1.71881 -1.79199,1.55203 -2.76371,3.84519 -2.63352,6.21152 2.25061,40.79864 35.744359,74.77314 82.055989,88.13644 -0.35823,0.8858 -0.55564,1.8541 -0.55564,2.8684 0,4.2298 3.42826,7.6581 7.65805,7.6581 h 73.53088 c 4.2298,0 7.65805,-3.4283 7.65805,-7.6581 0,-1.0143 -0.19656,-1.9826 -0.55478,-2.8684 46.31077,-13.3633 79.80707,-47.3378 82.05939,-88.13644 0.13019,-2.36633 -0.84238,-4.65949 -2.63351,-6.21067 z m -66.93391,-30.85173 30.68326,-38.1056 c 2.65308,-3.29381 2.13234,-8.11497 -1.16148,-10.76721 -3.29296,-2.65224 -8.11497,-2.13234 -10.76721,1.16147 l -30.68325,38.1056 c -5.11047,-15.80026 -1.62947,-34.11746 9.87463,-48.40483 13.49688,-16.76176 34.76839,-23.91523 53.68207,-18.3172 9.50704,17.28592 7.05391,39.59467 -6.44127,56.35473 -9.50024,11.7968 -22.84992,18.83625 -36.52039,20.01729 -0.56924,-0.0221 -6.35107,0.18379 -8.66636,-0.0443 z m 21.1124,92.12034 c -20.84692,15.3825 -48.35973,23.854 -77.47138,23.854 -29.11164,0 -56.62446,-8.4715 -77.47137,-23.854 -17.01959,-12.5583 -28.05739,-28.61384 -31.819189,-45.984 4.496979,0.79984 9.064579,1.54863 13.701099,2.24636 0.13699,0.0238 0.27314,0.0451 0.40928,0.0613 29.73195,4.44847 62.16293,6.76886 95.18018,6.76886 33.01981,0 65.45249,-2.32209 95.18785,-6.76972 0.13104,-0.017 0.26207,-0.0366 0.39311,-0.0587 4.63908,-0.69773 9.21178,-1.44652 13.71046,-2.24806 -3.76265,17.37016 -14.80046,33.42566 -31.82004,45.98406 z M 69.336001,740.59031 c -1.49503,1.49502 -3.454627,2.24211 -5.414237,2.24211 -1.96046,0 -3.92007,-0.74794 -5.41595,-2.24381 -2.99004,-2.99174 -2.99004,-7.84014 0.002,-10.83103 l 2.78327,-2.78243 c 2.99089,-2.99089 7.840137,-2.98919 10.830177,0.002 2.99005,2.99174 2.99005,7.84013 -0.002,10.83103 z m -19.757767,-33.38739 -2.78157,-2.78242 c -2.9909,-2.99089 -2.99004,-7.83929 8.5e-4,-10.83018 2.99089,-2.99005 7.83929,-2.9909 10.83018,8.5e-4 l 2.78157,2.78242 c 2.9909,2.9909 2.99005,7.83929 -8.5e-4,10.83018 -1.49502,1.49503 -3.45463,2.24296 -5.41424,2.24296 -1.96131,-8.5e-4 -3.92092,-0.74879 -5.41594,-2.24381 z"
     inkscape:connector-curvature="0"
     style="fill:#7cc6cc;fill-opacity:0.3137255;stroke-width:0.85089427" /><g
     id="g3"
     transform="translate(226.80926,474.81255)" /><g
     id="g5"
     transform="translate(226.80926,474.81255)" /><g
     id="g7"
     transform="translate(226.80926,474.81255)" /><g
     id="g9"
     transform="translate(226.80926,474.81255)" /><g
     id="g11"
     transform="translate(226.80926,474.81255)" /><g
     id="g13"
     transform="translate(226.80926,474.81255)" /><g
     id="g15"
     transform="translate(226.80926,474.81255)" /><g
     id="g17"
     transform="translate(226.80926,474.81255)" /><g
     id="g19"
     transform="translate(226.80926,474.81255)" /><g
     id="g21"
     transform="translate(226.80926,474.81255)" /><g
     id="g23"
     transform="translate(226.80926,474.81255)" /><g
     id="g25"
     transform="translate(226.80926,474.81255)" /><g
     id="g27"
     transform="translate(226.80926,474.81255)" /><g
     id="g29"
     transform="translate(226.80926,474.81255)" /><g
     id="g31"
     transform="translate(226.80926,474.81255)" /><path
     id="path4515"
     d="m 346.51243,79.18537 c -1.56981,-18.771049 0.96961,-38.457586 10.74201,-54.872332 4.46271,-7.186808 1.96309,-17.5913206 -5.36542,-21.8788756 -6.9464,-4.5709824 -17.22195,-2.49643201 -21.75948,4.481822 -13.62375,21.7706166 -17.93042,48.2523096 -15.9132,73.5669756 2.65085,39.55932 18.08325,76.67635 24.16036,115.62433 1.9408,13.67785 2.66045,28.16137 -2.59673,41.23902 -4.73336,12.07303 -14.82263,21.17037 -25.94832,27.37487 -15.67281,8.75822 -33.1447,13.53618 -50.41123,18.0737 1.38515,10.72131 2.68432,21.45379 4.03603,32.18627 12.73853,-2.9343 25.30353,-6.65346 37.64881,-10.97289 21.91231,-8.1039 43.55076,-20.31861 56.89112,-40.09429 12.28001,-17.79987 15.67281,-40.27897 13.71927,-61.46052 -3.7383,-41.97935 -21.8343,-81.22026 -25.20322,-123.26808 z M 426.39374,58.484656 C 407.46982,48.220271 388.4488,38.154928 369.54719,27.857105 c -3.34822,5.301733 -5.96568,11.02859 -7.85233,17.005385 17.76644,9.52088 35.52335,19.075161 53.28975,28.60876 4.14589,-4.734947 7.93035,-9.761268 11.40913,-14.986594 z m 33.91051,1.210013 c -6.83815,-5.027907 -17.48305,-3.260674 -22.27213,3.762187 -7.78705,11.878769 -16.93855,22.959912 -27.89868,32.034988 -11.83421,9.957096 -25.71747,17.253766 -40.29012,22.292806 2.60631,10.45861 5.21258,20.92044 7.86188,31.37904 5.49757,-1.78952 10.9076,-3.85132 16.20935,-6.13123 29.72165,-12.77039 54.68604,-35.50104 71.59274,-62.931621 3.67459,-6.881129 1.19727,-16.06446 -5.20304,-20.40617 z M 359.68881,85.991661 c 7.79817,4.243003 15.63935,8.409573 23.45029,12.631873 6.26019,-3.29411 12.23861,-7.14382 17.7123,-11.627243 -14.04725,-7.559362 -28.07539,-15.150577 -42.16563,-22.631929 -0.38213,7.218642 0.13061,14.461192 1.00304,21.627299 z M 239.92017,239.63737 c -0.29611,-15.4324 -0.56679,-31.78344 6.4226,-45.97241 5.82396,-11.73549 18.00845,-18.35711 29.91748,-22.45679 11.7132,-3.99307 23.713,-7.28556 35.99301,-8.97638 -2.31175,-10.53663 -4.39585,-21.11624 -6.66461,-31.66402 -15.58684,2.47732 -30.96508,6.58817 -45.59186,12.54271 -13.07765,5.3893 -25.51211,13.13177 -34.53145,24.20335 -10.47134,12.6398 -15.52153,28.91285 -17.03724,45.05532 -2.25761,23.64775 0.13206,47.40215 2.43274,70.94955 4.20957,40.92218 11.36454,81.83325 9.09578,123.12799 -1.0683,22.04286 -4.55823,44.33567 -13.56801,64.6336 -5.22376,11.84535 -12.5857,22.64308 -21.03825,32.40595 -4.97377,5.9227 -10.41721,11.42981 -15.25885,17.45118 -5.51987,6.79516 -3.82903,17.89702 3.36891,22.83895 6.17422,4.64579 15.68553,3.93889 20.99685,-1.73383 11.00472,-12.67326 22.78638,-24.84501 31.62901,-39.21066 11.81349,-18.59593 18.81564,-39.86504 22.51412,-61.4812 5.68068,-33.85639 4.54707,-68.45149 1.12244,-102.48143 -3.54247,-33.04915 -8.41913,-65.98688 -9.80267,-99.23188 z m 86.35964,-40.10544 c -11.027,-6.83977 -22.04287,-13.69859 -33.02531,-20.6259 -9.78514,2.82444 -19.86325,5.67274 -28.29349,11.6161 20.24377,12.69713 40.51777,25.31468 60.78385,37.95607 2.42161,-9.44442 1.96465,-19.38084 0.53495,-28.94627 z m -73.83923,43.00626 c 9.82656,6.11851 19.6754,12.22587 29.47011,18.42082 1.12402,0.56679 2.30059,1.90895 3.67619,1.12402 8.80123,-3.18583 17.44006,-7.06739 25.10929,-12.51084 -19.20731,-11.88834 -38.29519,-23.96139 -57.52322,-35.81787 -1.24502,9.54315 -1.10332,19.18661 -0.73237,28.78387 z m -115.88543,90.66792 c 21.19268,-4.85279 42.99514,-5.82396 64.54603,-8.1039 -1.7561,-10.63373 -3.56634,-21.25795 -5.38772,-31.88053 -26.83197,2.59673 -54.08741,4.08059 -79.95933,12.20515 -18.693039,5.69342 -36.177679,14.91019 -51.992176,26.31769 C 43.081943,346.677 24.97799,364.8813 8.3546881,384.15227 c -5.672707,6.2618 -5.016776,16.94968 1.418569,22.43612 6.2920509,6.00866 17.3190519,5.37659 22.9153419,-1.27687 15.881388,-18.23612 32.917035,-35.76374 52.888562,-49.57217 15.355959,-10.6656 32.730729,-18.45265 50.977989,-22.53324 z m 39.19793,83.98261 c 8.57355,7.71221 16.68698,15.98962 25.57577,23.31812 5.60584,-10.44906 5.83672,-22.54437 6.20608,-34.09359 -22.08586,-20.5606 -44.15102,-41.15304 -66.35786,-61.5815 -10.89644,2.40092 -21.37736,6.32707 -31.39019,11.23398 21.95689,20.40936 43.96632,40.76139 65.9662,61.12299 z m 14.25582,60.52273 c -36.62506,-34.1716 -73.37113,-68.22222 -110.083779,-102.29513 -7.10082,6.06597 -14.004242,12.35801 -20.515995,19.04333 37.694945,34.96767 75.366024,69.97833 113.016414,105.01285 6.24111,-6.94799 11.98707,-14.30197 17.58336,-21.76105 z"
     inkscape:connector-curvature="0"
     style="fill:#7cc6cc;fill-opacity:0.3137255;stroke-width:1.59211731" /><path
     id="path4525"
     d="m 656.61356,792.14853 c 39.50875,0 50.8698,27.70625 53.44281,50.94824 0.32662,2.94955 2.82262,5.13176 5.72296,5.13176 0.21109,0 0.42575,-0.0121 0.64112,-0.0364 3.16492,-0.34944 5.44626,-3.19915 5.09539,-6.36407 -1.18167,-10.67715 -4.61973,-26.05747 -14.28493,-38.69719 -11.42096,-14.93888 -28.4522,-22.51244 -50.61806,-22.51244 -3.18489,0 -5.76503,2.58086 -5.76503,5.76503 0,3.18347 2.58157,5.76504 5.76574,5.76504 z"
     inkscape:connector-curvature="0"
     style="fill:#7cc6cc;fill-opacity:0.3137255;stroke-width:0.71314132" /><path
     id="path4527"
     d="m 737.1479,834.14756 c 4.88573,1.44268 10.05173,2.17437 15.35251,2.17437 h 10e-4 c 14.45252,0 28.93215,-5.3942 40.76958,-15.18706 16.25748,-13.44628 25.19029,-33.63317 23.30831,-52.68474 -0.23034,-2.33554 -1.85417,-4.2981 -4.10484,-4.96275 -4.88716,-1.44269 -10.05315,-2.17437 -15.35393,-2.17437 -14.4511,0 -28.93072,5.39349 -40.76744,15.1842 -16.2582,13.44343 -25.19101,33.63246 -23.31045,52.68689 0.23106,2.33482 1.85345,4.2981 4.10484,4.96346 z m 26.55453,-48.7646 c 9.77645,-8.0856 21.64384,-12.53988 33.41994,-12.53988 2.79338,0 5.53041,0.25459 8.17831,0.75807 -0.0121,14.07741 -7.19774,28.577 -19.37748,38.64798 -9.77717,8.08773 -21.64526,12.5413 -33.42208,12.5413 -2.79409,0 -5.5297,-0.25459 -8.17759,-0.75735 0.0128,-14.07884 7.19987,-28.58057 19.3789,-38.65012 z"
     inkscape:connector-curvature="0"
     style="fill:#7cc6cc;fill-opacity:0.3137255;stroke-width:0.71314132" /><path
     id="path4529"
     d="m 930.43273,942.95937 h -69.0171 v -28.7403 c 0,-3.18418 -2.58086,-5.76504 -5.76504,-5.76504 h -6.02105 c -3.3104,-13.8492 -9.02694,-26.4119 -17.0398,-37.39356 -1.59529,-2.35836 -20.61121,-29.46344 -51.74268,-29.46344 -6.73348,0 -13.58035,1.3022 -20.35163,3.86951 -27.48232,10.42184 -38.62872,11.54718 -42.14594,11.5479 -0.31306,0 -0.54198,-0.0107 -0.69459,-0.02 -1.27011,-0.55126 -1.55109,-0.55126 -2.82262,0 -0.15332,0.01 -0.38224,0.02 -0.69674,0.02 -3.51578,0 -14.66147,-1.12534 -42.14594,-11.5479 -6.77127,-2.56731 -13.61814,-3.86951 -20.35162,-3.86951 -31.13575,0 -50.1481,27.10579 -51.74268,29.46415 -8.01357,10.98166 -13.72869,23.54436 -17.0398,37.39356 h -6.02106 c -3.18488,0 -5.76503,2.58158 -5.76503,5.76504 v 69.01069 c 0,3.1849 2.58086,5.76498 5.76503,5.76498 h 9.84849 c 8.78162,32.05645 23.91947,60.72695 35.51087,77.27895 28.46004,40.6419 57.65034,27.9829 65.91922,23.1329 6.12873,-3.595 19.17494,-5.7701 24.10774,-6.362 h 8.04352 c 4.92781,0.5891 17.95904,2.7556 24.10774,6.3627 3.6142,2.1201 11.22485,5.7329 21.02769,5.7322 12.62046,-7e-4 28.87224,-5.9904 44.8901,-28.8658 7.19845,-10.2807 15.76827,-25.2352 23.33256,-42.775 h 54.5817 c 3.18489,0 5.76503,-2.5808 5.76503,-5.765 0,-3.1842 -2.58014,-5.765 -5.76503,-5.765 h -49.90563 c 0.10412,-0.2732 0.19683,-0.5456 0.2988,-0.8187 0.54484,-1.4527 1.08255,-2.9168 1.60743,-4.3937 0.13621,-0.3822 0.27028,-0.7637 0.40435,-1.146 0.53984,-1.5404 1.06757,-3.0943 1.58246,-4.6589 0.0763,-0.2311 0.15546,-0.4629 0.23034,-0.6939 0.54484,-1.67025 1.07043,-3.35685 1.58389,-5.05125 0.0763,-0.251 0.15475,-0.5035 0.22963,-0.7545 0.49278,-1.6467 0.96773,-3.3047 1.42771,-4.9713 0.0449,-0.1612 0.0956,-0.3245 0.13906,-0.4857 h 9.84492 c 3.18489,0 5.76503,-2.58008 5.76503,-5.76498 v -28.7403 h 12.15193 v 23.9066 c 0,3.1849 2.58015,5.7651 5.76503,5.7651 3.18489,0 5.76504,-2.5809 5.76504,-5.7651 v -23.9066 h 14.19864 v 13.5917 c 0,3.1849 2.58015,5.7651 5.76504,5.7651 3.18489,0 5.76503,-2.5809 5.76503,-5.7651 v -13.5917 h 13.84279 v 57.47993 h -18.53098 c -3.18489,0 -5.76503,2.5801 -5.76503,5.765 0,3.1849 2.58014,5.7651 5.76503,5.7651 h 24.29601 c 3.18489,0 5.76504,-2.5802 5.76504,-5.7651 v -69.00998 c 0.002,-3.1856 -2.57801,-5.76575 -5.7629,-5.76575 z M 609.27168,877.77113 c 0.0521,-0.072 0.10412,-0.14548 0.15332,-0.21965 0.16117,-0.2439 16.47785,-24.42438 42.21298,-24.42438 5.33144,0 10.80409,1.04975 16.26318,3.12071 28.21473,10.69926 41.07766,12.29669 46.23367,12.29669 0.8465,0 1.5411,-0.0414 2.10733,-0.10198 0.56552,0.0606 1.26226,0.10198 2.10805,0.10198 5.15744,-7.1e-4 18.02108,-1.59815 46.23366,-12.29669 5.45981,-2.07025 10.93246,-3.12071 16.26319,-3.12071 25.58109,0 42.0568,24.19118 42.21369,24.42509 0.0485,0.0749 0.0998,0.14691 0.1519,0.21894 6.62151,9.05119 11.49441,19.34752 14.53168,30.68219 H 594.74071 c 3.03656,-11.33467 7.90945,-21.63029 14.53097,-30.68219 z m 240.61531,70.95328 v 28.74026 h -10e-4 -8.52204 -14.65719 -17.92909 c -3.18489,0 -5.76503,2.5802 -5.76503,5.7651 0,3.1849 2.58014,5.76498 5.76503,5.76498 h 17.92909 7.11429 c -0.0799,0.2774 -0.15475,0.5534 -0.23605,0.8308 -0.0713,0.2446 -0.14405,0.4878 -0.21608,0.7317 -0.76876,2.593 -1.58745,5.1945 -2.4582,7.8046 -0.0463,0.1377 -0.0913,0.2746 -0.13763,0.4122 -1.86915,5.56755 -3.96792,11.16355 -6.28563,16.75035 -0.009,0.021 -0.0136,0.042 -0.0214,0.063 -7.53719,18.1587 -16.31953,33.6488 -23.61782,44.0714 -22.17941,31.6699 -42.80274,24.3973 -50.64016,19.8018 -9.49334,-5.5682 -26.99098,-7.687 -28.95568,-7.9109 -0.21608,-0.024 -0.43288,-0.037 -0.6511,-0.037 h -8.7153 c -0.21751,0 -0.4343,0.012 -0.65181,0.037 -1.96399,0.2239 -19.4602,2.342 -28.95282,7.9102 -7.83671,4.5969 -28.46147,11.8681 -50.64088,-19.8011 -10.66574,-15.2313 -24.5014,-41.2788 -32.98421,-70.66595 h 120.43958 69.95061 c 3.18489,0 5.76503,-2.58018 5.76503,-5.76498 0,-3.1849 -2.58014,-5.7651 -5.76503,-5.7651 H 719.09586 591.12051 582.5999 v -57.4806 h 4.89144 6.23784 v 22.50674 c 0,3.18418 2.58086,5.76504 5.76504,5.76504 3.18417,0 5.76503,-2.58157 5.76503,-5.76504 v -22.50602 h 14.19864 v 12.19115 c 0,3.18489 2.58015,5.76503 5.76504,5.76503 3.18489,0 5.76503,-2.58014 5.76503,-5.76503 v -12.19115 h 14.19722 v 22.50602 c 0,3.18418 2.58015,5.76504 5.76504,5.76504 3.18488,0 5.76503,-2.58157 5.76503,-5.76504 v -22.50602 h 14.19864 v 12.19115 c 0,3.18489 2.58015,5.76503 5.76504,5.76503 3.18489,0 5.76503,-2.58014 5.76503,-5.76503 v -12.19115 h 14.19865 v 22.50602 c 0,3.18418 2.58014,5.76504 5.76503,5.76504 3.18489,0 5.76504,-2.58157 5.76504,-5.76504 v -22.50602 h 14.19721 v 12.19115 c 0,3.18489 2.58015,5.76503 5.76504,5.76503 3.18489,0 5.76503,-2.58014 5.76503,-5.76503 v -12.19115 h 14.19864 v 22.50602 c 0,3.18418 2.58015,5.76504 5.76504,5.76504 3.18489,0 5.76503,-2.58157 5.76503,-5.76504 v -22.50602 h 14.19865 v 12.19115 c 0,3.18489 2.58086,5.76503 5.76503,5.76503 3.18418,0 5.76504,-2.58014 5.76504,-5.76503 v -12.19115 h 14.19507 v 22.50602 c 0,3.18418 2.58086,5.76504 5.76504,5.76504 3.18417,0 5.76503,-2.58157 5.76503,-5.76504 v -22.50602 h 14.19865 v 12.19115 c 0,3.18489 2.58014,5.76503 5.76503,5.76503 3.18489,0 5.76504,-2.58014 5.76504,-5.76503 v -12.19115 h 8.18258 4.89144 v 28.74102 z"
     inkscape:connector-curvature="0"
     style="fill:#7cc6cc;fill-opacity:0.3137255;stroke-width:0.71314132" /><g
     id="g4537"
     transform="matrix(0.71314132,0,0,0.71314132,406.43758,811.8723)" /><g
     id="g4539"
     transform="matrix(0.71314132,0,0,0.71314132,406.43758,811.8723)" /><g
     id="g4541"
     transform="matrix(0.71314132,0,0,0.71314132,406.43758,811.8723)" /><g
     id="g4543"
     transform="matrix(0.71314132,0,0,0.71314132,406.43758,811.8723)" /><g
     id="g4545"
     transform="matrix(0.71314132,0,0,0.71314132,406.43758,811.8723)" /><g
     id="g4547"
     transform="matrix(0.71314132,0,0,0.71314132,406.43758,811.8723)" /><g
     id="g4549"
     transform="matrix(0.71314132,0,0,0.71314132,406.43758,811.8723)" /><g
     id="g4551"
     transform="matrix(0.71314132,0,0,0.71314132,406.43758,811.8723)" /><g
     id="g4553"
     transform="matrix(0.71314132,0,0,0.71314132,406.43758,811.8723)" /><g
     id="g4555"
     transform="matrix(0.71314132,0,0,0.71314132,406.43758,811.8723)" /><g
     id="g4557"
     transform="matrix(0.71314132,0,0,0.71314132,406.43758,811.8723)" /><g
     id="g4559"
     transform="matrix(0.71314132,0,0,0.71314132,406.43758,811.8723)" /><g
     id="g4561"
     transform="matrix(0.71314132,0,0,0.71314132,406.43758,811.8723)" /><g
     id="g4563"
     transform="matrix(0.71314132,0,0,0.71314132,406.43758,811.8723)" /><g
     id="g4565"
     transform="matrix(0.71314132,0,0,0.71314132,406.43758,811.8723)" /><g
     style="fill:#7dc6cd;fill-opacity:0.3137255"
     id="g4638"
     transform="matrix(4.2035754,0,0,3.8176439,369.08425,359.042)"><path
       id="path4597"
       d="M 9.616,64.957 C 9.849,57.097 5.574,54.134 0.359,52.18 -1.375,58.904 3.406,64.501 9.616,64.957"
       inkscape:connector-curvature="0"
       style="fill:#7dc6cd;fill-opacity:0.3137255" /><path
       id="path4599"
       d="m 10.797,29.855 c 3.325,-7.124 0.568,-11.552 -3.46,-15.408 -4.231,5.496 -2.055,12.528 3.46,15.408"
       inkscape:connector-curvature="0"
       style="fill:#7dc6cd;fill-opacity:0.3137255" /><path
       id="path4601"
       d="m 12.672,49.676 c -0.229,-7.859 4.043,-10.83 9.261,-12.78 1.726,6.723 -3.053,12.32 -9.261,12.78"
       inkscape:connector-curvature="0"
       style="fill:#7dc6cd;fill-opacity:0.3137255" /><path
       id="path4603"
       d="m 12.672,61.791 c -0.229,-7.857 4.043,-10.823 9.261,-12.776 1.726,6.721 -3.053,12.319 -9.261,12.776"
       inkscape:connector-curvature="0"
       style="fill:#7dc6cd;fill-opacity:0.3137255" /><path
       id="path4605"
       d="M 12.672,37.563 C 12.443,29.701 16.715,26.73 21.933,24.776 23.659,31.504 18.88,37.098 12.672,37.563"
       inkscape:connector-curvature="0"
       style="fill:#7dc6cd;fill-opacity:0.3137255" /><path
       id="path4607"
       d="M 9.616,52.841 C 9.849,44.983 5.574,42.011 0.359,40.062 -1.375,46.786 3.406,52.381 9.616,52.841"
       inkscape:connector-curvature="0"
       style="fill:#7dc6cd;fill-opacity:0.3137255" /><path
       id="path4609"
       d="M 9.616,40.729 C 9.849,32.867 5.574,29.896 0.359,27.94 -1.375,34.67 3.406,40.262 9.616,40.729"
       inkscape:connector-curvature="0"
       style="fill:#7dc6cd;fill-opacity:0.3137255" /><path
       id="path4611"
       d="M 68.511,100 H 26.366 L 47.44,63.494 Z M 34.739,95.164 H 60.136 L 47.44,73.166 Z"
       inkscape:connector-curvature="0"
       style="fill:#7dc6cd;fill-opacity:0.3137255" /><polygon
       id="polygon4613"
       points="91.42,45.937 2.131,70.225 3.464,75.127 92.744,50.842 "
       style="fill:#7dc6cd;fill-opacity:0.3137255" /><path
       id="path4615"
       d="m 66.464,0 c 0,0 0.652,12.879 11.942,11.789 0,0 1.274,-10.764 -11.942,-11.789"
       inkscape:connector-curvature="0"
       style="fill:#7dc6cd;fill-opacity:0.3137255" /><path
       id="path4617"
       d="m 78.283,41.89 c -1.177,1.668 -3.144,2.748 -5.35,2.748 -1.8,0 -3.562,-0.844 -4.75,-2.03 -2.431,-2.653 -5.583,-8.582 -5.583,-8.582 -1.765,-3.588 -2.713,-6.361 -2.713,-9.167 0,-5.976 4.838,-11.157 10.823,-11.157 2.952,0 5.615,1.182 7.572,3.092 1.956,-1.91 4.616,-3.092 7.566,-3.092 5.987,0 10.823,5.182 10.823,11.157 0,2.805 -0.946,5.579 -2.712,9.167 0,0 -3.151,5.928 -5.582,8.582 -1.188,1.187 -2.952,2.03 -4.751,2.03 -2.204,-10e-4 -4.167,-1.08 -5.343,-2.748"
       inkscape:connector-curvature="0"
       style="fill:#7dc6cd;fill-opacity:0.3137255" /></g><g
     style="fill:#7cc6cc;fill-opacity:0.3137255"
     id="g4710"
     transform="matrix(0.97352955,0,0,0.97352955,504.61978,1133.243)"><g
       id="g4650"
       style="fill:#7cc6cc;fill-opacity:0.3137255"><g
         id="g4648"
         style="fill:#7cc6cc;fill-opacity:0.3137255"><path
           id="path4640"
           d="m 163.816,222.91 c 38.745,0 70.269,-31.514 70.269,-70.259 0,-38.745 -31.523,-70.274 -70.269,-70.274 -38.743,0 -70.264,31.524 -70.264,70.274 0,38.745 31.516,70.259 70.264,70.259 z"
           inkscape:connector-curvature="0"
           style="fill:#7cc6cc;fill-opacity:0.3137255" /><path
           id="path4642"
           d="m 163.816,241.771 c 49.226,0 89.118,-39.903 89.118,-89.119 0,-49.228 -39.893,-89.123 -89.118,-89.123 -49.221,0 -89.119,39.895 -89.119,89.123 0,49.215 39.898,89.119 89.119,89.119 z m 0,-164.588 c 41.608,0 75.469,33.862 75.469,75.469 0,41.609 -33.86,75.464 -75.469,75.464 -41.609,0 -75.464,-33.854 -75.464,-75.464 0,-41.607 33.855,-75.469 75.464,-75.469 z"
           inkscape:connector-curvature="0"
           style="fill:#7cc6cc;fill-opacity:0.3137255" /><path
           id="path4644"
           d="m 302.459,250.062 -5.2,-200.026 c 0,-4.307 -3.493,-7.8 -7.8,-7.8 -1.152,0 -2.234,0.264 -3.214,0.718 V 42.88 c 0,0 -0.203,0.13 -0.493,0.328 -0.746,0.412 -1.416,0.919 -1.995,1.539 -5.708,4.685 -23.907,23.78 -25.431,49.592 -2.311,39.372 16.813,55.317 23.328,69.921 l -5.199,85.798 c 0,4.306 8.693,7.8 12.999,7.8 4.312,0.004 13.005,-3.489 13.005,-7.796 z"
           inkscape:connector-curvature="0"
           style="fill:#7cc6cc;fill-opacity:0.3137255" /><path
           id="path4646"
           d="m 13.614,128.206 13.461,6.724 c 1.534,0.769 3.225,1.33 4.992,1.747 l -5.2,117.007 c 0,3.615 8.696,6.54 13,6.54 4.306,0 13,-2.925 13,-6.54 l -5.2,-117.606 c 1.831,-0.576 3.595,-1.279 5.139,-2.224 l 9.973,-6.073 c 7.196,-4.39 12.619,-14.045 12.619,-22.475 V 52.88 c 0,-4.307 -3.494,-7.8 -7.8,-7.8 -4.304,0 -7.8,3.493 -7.8,7.8 v 47.225 H 55.466 V 52.88 c 0,-4.307 -3.494,-7.8 -7.8,-7.8 -4.304,0 -7.8,3.493 -7.8,7.8 v 47.225 H 35.519 V 52.88 c 0,-4.307 -3.494,-7.8 -7.8,-7.8 -4.304,0 -7.8,3.493 -7.8,7.8 v 47.225 H 15.6 v -45.54 c 0,-4.306 -3.494,-7.8 -7.8,-7.8 -4.304,0 -7.8,3.494 -7.8,7.8 v 51.612 c 0,8.675 5.855,18.15 13.614,22.029 z"
           inkscape:connector-curvature="0"
           style="fill:#7cc6cc;fill-opacity:0.3137255" /></g></g><g
       id="g4652"
       style="fill:#7cc6cc;fill-opacity:0.3137255" /><g
       id="g4654"
       style="fill:#7cc6cc;fill-opacity:0.3137255" /><g
       id="g4656"
       style="fill:#7cc6cc;fill-opacity:0.3137255" /><g
       id="g4658"
       style="fill:#7cc6cc;fill-opacity:0.3137255" /><g
       id="g4660"
       style="fill:#7cc6cc;fill-opacity:0.3137255" /><g
       id="g4662"
       style="fill:#7cc6cc;fill-opacity:0.3137255" /><g
       id="g4664"
       style="fill:#7cc6cc;fill-opacity:0.3137255" /><g
       id="g4666"
       style="fill:#7cc6cc;fill-opacity:0.3137255" /><g
       id="g4668"
       style="fill:#7cc6cc;fill-opacity:0.3137255" /><g
       id="g4670"
       style="fill:#7cc6cc;fill-opacity:0.3137255" /><g
       id="g4672"
       style="fill:#7cc6cc;fill-opacity:0.3137255" /><g
       id="g4674"
       style="fill:#7cc6cc;fill-opacity:0.3137255" /><g
       id="g4676"
       style="fill:#7cc6cc;fill-opacity:0.3137255" /><g
       id="g4678"
       style="fill:#7cc6cc;fill-opacity:0.3137255" /><g
       id="g4680"
       style="fill:#7cc6cc;fill-opacity:0.3137255" /></g><path
     style="opacity:1;fill:#7cc6cc;fill-opacity:0.3137255;fill-rule:nonzero;stroke:none;stroke-width:8.21321964;stroke-linecap:square;stroke-linejoin:miter;stroke-miterlimit:4;stroke-dasharray:none;stroke-dashoffset:0;stroke-opacity:1;paint-order:normal"
     d="m 196.28736,1435.5306 c -0.9793,-7.1071 -17.6499,-182.3085 -22.4094,-235.5142 -3.1,-34.6551 -1.9062,-31.1868 -10.9103,-31.6956 -8.3116,-0.4696 -11.799,-2.3211 -16.0011,-8.4953 -1.9039,-2.7974 -2.4446,-5.1242 -2.4446,-10.5181 0,-6.602 0.2091,-7.1531 4.4686,-11.774 2.6957,-2.9246 6.0365,-5.2835 8.4207,-5.9457 2.4185,-0.6718 25.1068,-1.1001 58.4725,-1.1038 l 54.5205,-0.01 0.6241,-5.7043 c 0.3433,-3.1374 1.1195,-18.1724 1.7249,-33.4111 1.2042,-30.3108 3.236,-64.3986 3.8792,-65.0818 0.4938,-0.5247 25.3522,-10.1232 35.3224,-13.6389 3.9426,-1.3902 11.5212,-4.2172 16.8414,-6.2823 5.3202,-2.065 16.2738,-6.248 24.3414,-9.29555 8.0676,-3.0475 21.269,-8.0982 29.3366,-11.22402 21.9487,-8.50393 29.3325,-8.35567 34.4568,0.69192 2.9774,5.257 3.0655,8.3759 0.4024,14.24045 -2.4718,5.4434 -6.6164,7.6538 -29.4265,15.6949 -8.6652,3.0546 -21.6222,7.672 -28.7934,10.261 -19.6379,7.0894 -49.5991,17.9463 -52.9009,19.1696 -2.5199,0.9335 -3.0036,1.8523 -3.5292,6.7035 -0.798,7.3654 -4.9627,69.7801 -4.9608,74.3454 v 3.5312 h 49.7164 c 29.2283,0 51.2469,0.4389 53.4303,1.0651 4.1736,1.1971 9.2797,5.6142 11.5803,10.018 0.8431,1.6137 1.5328,5.4675 1.5328,8.5641 0,9.6991 -6.2769,16.8208 -16.0547,18.2156 l -5.1328,0.7321 -3.436,33.1281 c -1.8899,18.2205 -4.2552,42.6626 -5.2564,54.3157 -1.0011,11.6532 -3.9591,42.9455 -6.5734,69.5386 -2.6142,26.5931 -5.3035,55.6019 -5.9761,64.4642 -0.6727,8.8622 -2.0357,23.5305 -3.029,32.5962 l -1.8061,16.483 -84.8974,0.2783 -84.8974,0.2782 z m 165.9443,-3.2661 c 0.3604,-1.3446 0.6619,-3.5294 0.67,-4.855 0.014,-2.3362 -0.3777,-2.4196 -12.752,-2.7163 -10.4879,-0.2515 -12.7669,-0.5971 -12.7669,-1.936 0,-1.3279 2.4146,-1.7304 13.0386,-2.173 l 13.0384,-0.5434 0.6463,-5.9759 c 0.3556,-3.2868 0.4489,-6.3427 0.2076,-6.7909 -0.2414,-0.4482 -6.0328,-0.8149 -12.87,-0.8149 -11.4725,0 -12.431,-0.1586 -12.431,-2.0568 0,-2.9178 1.9865,-3.3759 14.6409,-3.3759 12.4648,0 12.5226,-0.035 12.5226,-7.6946 v -4.2574 h -11.7346 c -11.778,0 -14.7752,-0.8674 -13.598,-3.9352 0.4415,-1.1503 3.4292,-1.4974 12.8895,-1.4974 6.7732,0 12.5588,-0.3948 12.857,-0.8773 0.2983,-0.4826 0.879,-3.4162 1.2907,-6.5193 l 0.7484,-5.6419 -11.8203,-0.016 c -12.3236,-0.018 -15.2973,-0.7801 -14.1991,-3.6417 0.5332,-1.3897 3.0216,-1.7612 13.4684,-2.0112 l 12.8144,-0.3065 0.3247,-6.2115 0.3248,-6.2115 -12.2767,-0.3077 c -11.4499,-0.287 -12.2768,-0.4542 -12.2768,-2.4808 0,-2.0325 0.8264,-2.1929 12.7669,-2.4793 l 12.7668,-0.3061 0.015,-4.04 c 0.01,-2.2221 0.3097,-5.1402 0.67,-6.4848 0.6521,-2.4331 0.5953,-2.4447 -12.0423,-2.4447 -12.5463,0 -12.6934,-0.029 -12.3503,-2.4447 0.3328,-2.3432 0.8419,-2.4576 12.2592,-2.7554 7.8528,-0.2049 12.1976,-0.7603 12.7502,-1.6299 0.461,-0.7255 0.8457,-3.6415 0.8548,-6.4801 l 0.016,-5.1611 h -12.4951 c -11.7709,0 -12.4953,-0.126 -12.4953,-2.1731 0,-2.0464 0.7244,-2.173 12.4311,-2.173 7.3231,0 12.7141,-0.458 13.1199,-1.1145 0.3788,-0.613 0.9633,-3.775 1.299,-7.0268 l 0.6102,-5.9122 -12.9152,-0.3075 c -10.6191,-0.2527 -12.9152,-0.5971 -12.9152,-1.9372 0,-1.3278 2.4134,-1.7304 13.0279,-2.173 l 13.0278,-0.5433 0.8041,-5.4327 c 0.4422,-2.988 0.5846,-6.0439 0.3164,-6.7909 -0.3499,-0.9744 -3.8566,-1.3582 -12.4096,-1.3582 -12.3047,0 -15.418,-1.0773 -11.4653,-3.9677 1.3881,-1.015 5.6107,-1.4649 13.7478,-1.4649 h 11.7442 v -5.9405 -5.9403 l -12.2236,-0.3073 c -11.3967,-0.2864 -12.2235,-0.4541 -12.2235,-2.4802 0,-2.031 0.826,-2.1931 12.6301,-2.4781 l 12.63,-0.3049 0.6681,-4.0412 c 1.5525,-9.3911 2.1217,-8.9307 -11.0426,-8.9307 -12.1177,0 -15.5445,-1.0451 -13.0969,-3.9943 0.8551,-1.0304 4.5101,-1.4384 12.8859,-1.4384 13.0904,0 12.9842,0.072 13.0173,-8.9284 l 0.015,-4.0389 -12.2235,-0.3072 c -11.3969,-0.2864 -12.2236,-0.4542 -12.2236,-2.4803 0,-2.0324 0.8264,-2.1929 12.7668,-2.4792 12.3651,-0.2965 12.7673,-0.382 12.7789,-2.7164 0.01,-1.3256 0.315,-4.2438 0.6854,-6.4847 l 0.6734,-4.0746 h -12.7128 c -12.5624,0 -12.7089,-0.029 -12.3658,-2.4447 0.3344,-2.355 0.8119,-2.4559 13.0114,-2.7499 l 12.6643,-0.3053 0.4497,-5.6707 c 0.2472,-3.1189 0.2645,-6.0375 0.038,-6.4857 -0.2261,-0.4482 -6.0052,-0.8149 -12.8423,-0.8149 -11.7066,0 -12.431,-0.1265 -12.431,-2.173 0,-2.0512 0.7244,-2.1731 12.9117,-2.1731 14.5759,0 14.2056,0.2474 14.237,-9.5127 l 0.015,-4.6232 -105.1228,0.2771 c -103.7999,0.2736 -105.1204,0.304 -104.9325,2.4149 0.1047,1.1758 0.7462,9.9767 1.4255,19.5577 0.6793,9.5809 3.1456,36.2442 5.4805,59.2517 2.335,23.0075 4.7745,48.677 5.4213,57.0434 0.6468,8.3664 3.3511,36.9318 6.0095,63.4786 2.6584,26.547 4.8335,50.3218 4.8335,52.8331 0,2.5112 0.3056,6.0939 0.6791,7.9613 l 0.6791,3.3954 h 80.1414 80.1415 l 0.6551,-2.4446 z m -186.8273,-269.0547 c 0.3232,-0.5229 -0.9055,-3.0121 -2.7305,-5.5315 -3.3993,-4.6925 -3.5122,-8.0788 -0.2486,-7.4503 1.0083,0.1942 3.8304,3.2861 6.2715,6.8712 3.9882,5.8569 4.8642,6.5532 8.6356,6.8639 6.2279,0.5131 6.9694,-1.088 2.8893,-6.2396 -3.4513,-4.3575 -4.0168,-7.6398 -1.4629,-8.4901 0.7253,-0.2415 3.8413,3.0184 6.9244,7.2441 5.4692,7.4958 5.7218,7.6831 10.3618,7.6831 2.6532,0 4.7559,-0.5139 4.7559,-1.1624 0,-0.6393 -1.5088,-3.3554 -3.3529,-6.0357 -3.3121,-4.814 -3.569,-8.0135 -0.6435,-8.0135 0.8275,0 3.7804,3.4227 6.562,7.6058 l 5.0575,7.6058 h 89.1226 c 96.543,0 93.8081,0.1636 98.574,-5.8954 3.5903,-4.5642 4.0193,-8.6793 1.4568,-13.9728 -4.4001,-9.0894 6.435,-8.3818 -128.3639,-8.3818 -118.1826,0 -119.8137,0.029 -123.3106,2.1902 -9.5988,5.9324 -8.3937,19.9426 2.1086,24.5154 3.7499,1.6327 16.4822,2.0672 17.3929,0.5936 z m 117.3603,-37.3497 c 0.3336,-2.5399 1.1228,-15.1301 1.7538,-27.9784 0.631,-12.8484 1.5645,-28.9821 2.0746,-35.8528 0.51,-6.8707 0.741,-12.7937 0.5132,-13.1622 -0.2278,-0.3685 -4.0903,0.098 -8.5835,1.037 -7.7967,1.6291 -8.1922,1.8578 -8.6697,5.0131 -0.5584,3.6904 -3.8815,65.101 -3.8682,71.4865 l 0.01,4.0745 h 8.0825 8.0825 z m -0.2463,-81.9025 c 1.3621,-0.8418 0.1351,-2.2226 -5.2948,-5.9584 -5.6785,-3.9069 -6.8396,-3.2654 -6.8675,3.7939 l -0.016,4.2146 5.6419,-0.7485 c 3.1031,-0.4116 6.0447,-0.9973 6.537,-1.3016 z m 32.3692,-10.4109 c 9.8604,-3.5618 24.0397,-8.6846 31.5097,-11.3841 7.4699,-2.6992 19.3268,-6.9169 26.3486,-9.3724 12.6029,-4.4074 14.7936,-6.1034 10.7076,-8.2901 -2.1471,-1.1492 -5.1919,-11.03625 -3.995,-12.97295 1.3217,-2.1385 -1.3772,-2.1895 -6.5612,-0.1237 -5.0342,2.006 -15.6858,6.0375 -49.3174,18.66595 -8.0675,3.0293 -18.4575,6.9682 -23.089,8.7532 l -8.4206,3.2454 0.015,7.2121 c 0.019,9.4508 0.8321,12.4456 3.1159,11.4835 0.9673,-0.4074 9.8262,-3.6551 19.6865,-7.2169 z m -28.0749,-1.9421 c -0.2024,-3.5866 -0.8792,-6.5212 -1.5037,-6.5212 -3.0693,0 -9.5368,2.6885 -9.5368,3.9644 0,1.2338 9.2828,8.9649 10.8654,9.0492 0.2988,0.016 0.3776,-2.9056 0.1751,-6.4924 z m 114.0629,-30.3291 c 2.0337,-1.64685 2.565,-3.12925 2.565,-7.15665 0,-4.2183 -0.5168,-5.52406 -3.0485,-7.70179 -4.2161,-3.62653 -8.8083,-3.42774 -12.7898,0.55374 -6.525,6.52505 -2.6543,16.3817 6.433,16.3817 2.5904,0 5.2861,-0.8184 6.8403,-2.077 z"
     id="path4778"
     inkscape:connector-curvature="0" /><g
     id="g4801"
     transform="translate(-941.35434,1258.0176)"><path
       inkscape:connector-curvature="0"
       id="path4790"
       d="m 1983.8094,832.28965 c -35.6655,-3.67978 -66.4827,-31.11847 -73.6078,-65.53812 -3.6838,-17.79521 -1.2525,-41.50746 5.8611,-57.16273 l 3.142,-6.91469 0.034,5.4944 c 0.064,10.31803 12.3152,17.00665 24.9796,13.6371 14.1201,-3.75682 22.5858,-15.16845 23.1633,-31.2236 0.3585,-9.96624 -2.3058,-15.39549 -9.1483,-18.64248 -2.8356,-1.34558 -5.1557,-2.70343 -5.1557,-3.01744 0,-0.31401 4.3217,-1.98151 9.6038,-3.70555 29.9439,-9.77354 64.4901,-1.60731 86.6192,20.4756 10.1484,10.12712 15.703,19.5971 19.8384,33.82236 3.9569,13.61141 2.5296,39.32369 -3.0152,54.31323 -9.2952,25.12916 -23.3547,41.98837 -43.3392,51.96974 -12.402,6.19423 -23.6703,8.07124 -38.9749,6.49218 z m -54.1175,-80.23698 c 4.7018,-4.62238 6.1073,-13.42448 2.6892,-16.84255 -4.0535,-4.05347 -11.8821,-3.26857 -16.4904,1.65334 -2.176,2.32411 -4.4263,5.78145 -5.0008,7.683 -3.3724,11.16325 9.7522,16.40294 18.802,7.50621 z"
       style="opacity:1;fill:#bdd630;fill-opacity:1;fill-rule:nonzero;stroke:none;stroke-width:11.61524582;stroke-linecap:square;stroke-linejoin:miter;stroke-miterlimit:4;stroke-dasharray:none;stroke-dashoffset:0;stroke-opacity:1;paint-order:normal" /><path
       inkscape:connector-curvature="0"
       id="path4780"
       d="m 1774.8317,782.46041 c -29.9905,-7.87638 -54.99,-30.78532 -63.2421,-57.95369 -2.7011,-8.89275 -3.091,-13.27767 -2.4646,-27.72261 0.8329,-19.20623 4.4989,-31.61778 13.4667,-45.593 l 5.0752,-7.90898 2.0071,5.87869 c 5.8509,17.13743 24.3298,17.14885 40.1142,0.0248 7.637,-8.2851 10.1159,-18.525 6.0037,-24.80078 -3.286,-5.0153 -1.2726,-6.02255 9.5281,-4.7665 38.3427,4.45901 70.5787,30.50531 80.7928,65.27962 3.1834,10.83788 3.1834,32.39743 0,43.23532 -9.8992,33.70199 -39.3826,56.94689 -71.8513,56.64782 -6.0382,-0.0556 -14.7816,-1.09993 -19.4298,-2.32068 z m -44.0003,-97.56873 c 2.8797,-2.2652 4.0487,-4.61662 4.0487,-8.14398 0,-9.46166 -6.6578,-11.44527 -13.9476,-4.15549 -5.3635,5.36343 -5.7308,9.83211 -1.0765,13.09217 4.4836,3.14041 6.1261,3.02178 10.9754,-0.7927 z"
       style="opacity:1;fill:#bdd630;fill-opacity:1;fill-rule:nonzero;stroke:none;stroke-width:11.61524582;stroke-linecap:square;stroke-linejoin:miter;stroke-miterlimit:4;stroke-dasharray:none;stroke-dashoffset:0;stroke-opacity:1;paint-order:normal" /><path
       inkscape:connector-curvature="0"
       id="path4782"
       d="m 1775.0803,795.58877 c -30.0592,-7.87369 -59.7269,-34.10732 -72.1077,-63.76093 -9.5874,-22.96332 -7.0358,-59.84114 5.9155,-85.49769 12.98,-25.71313 36.8593,-38.85586 70.5534,-38.83124 27.3049,0.0199 49.6803,10.46608 73.8545,34.47949 22.3947,22.24567 30.6534,40.45792 30.6116,67.50515 -0.043,27.81795 -7.7509,48.22796 -24.4125,64.64247 -21.414,21.09635 -54.0933,29.40519 -84.4148,21.46275 z m 32.1944,-10.70469 c 14.2274,-2.63812 28.9808,-11.01417 39.961,-22.68738 16.5368,-17.58048 23.8496,-37.21626 22.4537,-60.29089 -2.672,-44.16885 -38.9373,-79.03482 -86.4064,-83.07227 -8.4513,-0.71882 -17.9957,-1.76272 -21.2097,-2.31977 -11.3811,-1.97255 -29.7879,9.50954 -32.4702,20.25471 -0.6097,2.44289 -2.6854,6.51603 -4.6125,9.05142 -14.7499,19.40553 -21.4459,52.08082 -15.4165,75.22956 5.9869,22.98519 23.0318,43.40129 45.4928,54.49049 19.3004,9.52881 35.5383,12.43507 52.2078,9.34413 z"
       style="opacity:1;fill:#bdd630;fill-opacity:1;fill-rule:nonzero;stroke:none;stroke-width:11.61524582;stroke-linecap:square;stroke-linejoin:miter;stroke-miterlimit:4;stroke-dasharray:none;stroke-dashoffset:0;stroke-opacity:1;paint-order:normal" /><path
       inkscape:connector-curvature="0"
       id="path4784"
       d="m 1976.1266,646.97235 c 10e-5,-0.63384 1.1201,-6.68421 2.4888,-13.44525 3.072,-15.17513 3.4919,-51.38582 0.7565,-65.23762 -10.962,-55.51142 -45.3507,-102.59014 -104.6612,-143.28278 -13.4828,-9.25046 -43.2677,-27.34772 -45.0097,-27.34772 -0.414,0 1.1945,4.78509 3.5745,10.63354 19.2246,47.24009 21.2804,110.21048 5.2726,161.49683 -3.3337,10.68039 -17.2825,46.08535 -18.1466,46.05973 -2.057,-0.061 -18.667,-7.85952 -18.6351,-8.74937 0.024,-0.67727 2.9608,-10.01145 6.5257,-20.74262 21.6419,-65.14875 24.3069,-130.94493 7.4798,-184.67362 l -3.3902,-10.82473 -12.2444,-6.52266 c -15.0022,-7.99168 -29.4292,-11.98246 -54.4066,-15.04987 -11.1088,-1.36425 -19.6745,-3.15412 -20.4537,-4.27398 -4.0328,-5.79623 2.8226,-43.87421 9.3502,-51.93555 4.0279,-4.97415 11.3071,-3.13284 25.9567,6.56576 13.2521,8.77339 48.2737,42.94684 58.0528,56.64694 5.0964,7.13978 8.4748,9.84972 19.9639,16.01377 59.2566,31.79192 101.5557,67.13833 128.563,107.43127 15.5603,23.21483 24.1516,43.63372 29.597,70.34314 3.7935,18.60632 2.9105,60.48799 -1.5886,75.35819 -0.6557,2.16739 -2.582,2.68905 -9.9296,2.68905 -5.0138,0 -9.116,-0.5186 -9.1158,-1.15245 z"
       style="opacity:1;fill:#bdd630;fill-opacity:1;fill-rule:nonzero;stroke:none;stroke-width:11.61524582;stroke-linecap:square;stroke-linejoin:miter;stroke-miterlimit:4;stroke-dasharray:none;stroke-dashoffset:0;stroke-opacity:1;paint-order:normal" /><path
       inkscape:connector-curvature="0"
       id="path4786"
       d="m 1728.2021,558.69653 c -4.0826,-33.9944 3.8799,-65.69682 24.0445,-95.73205 7.785,-11.59563 14.9617,-20.38271 33.2573,-40.7199 7.983,-8.87387 17.1615,-19.07526 20.3966,-22.66976 l 5.882,-6.53546 1.6437,4.23056 c 1.2236,3.14919 0.986,9.33654 -0.9295,24.20636 -5.7534,44.6623 -13.0317,70.82796 -25.582,91.96752 -7.674,12.92585 -30.0993,36.07591 -43.9369,45.35682 -13.8726,9.30442 -13.6455,9.30602 -14.7757,-0.10403 z"
       style="opacity:1;fill:#bdd630;fill-opacity:1;fill-rule:nonzero;stroke:none;stroke-width:11.61524582;stroke-linecap:square;stroke-linejoin:miter;stroke-miterlimit:4;stroke-dasharray:none;stroke-dashoffset:0;stroke-opacity:1;paint-order:normal" /><path
       inkscape:connector-curvature="0"
       id="path4788"
       d="m 1588.2589,454.49143 c -14.6817,-1.81067 -30.2776,-5.73304 -43.9172,-11.04518 -12.0609,-4.69729 -33.8052,-16.39081 -33.8052,-18.17962 0,-1.7702 15.6233,-15.91858 26.1222,-23.6561 36.8636,-27.16787 90.5765,-39.3173 154.3244,-34.90692 47.5963,3.29294 96.5654,11.80745 110.2507,19.16988 l 8.7312,4.6972 -13.341,5.97245 c -98.5022,44.09713 -136.3323,56.2787 -181.5987,58.47626 -8.8739,0.4308 -20.9187,0.19322 -26.7664,-0.52797 z"
       style="opacity:1;fill:#bdd630;fill-opacity:1;fill-rule:nonzero;stroke:none;stroke-width:11.61524582;stroke-linecap:square;stroke-linejoin:miter;stroke-miterlimit:4;stroke-dasharray:none;stroke-dashoffset:0;stroke-opacity:1;paint-order:normal" /><path
       inkscape:connector-curvature="0"
       id="path4792"
       d="m 1973.8214,848.45775 c -1.6902,-0.33285 -6.8763,-1.35355 -11.5245,-2.26823 -15.0449,-2.96054 -30.0851,-11.33345 -42.1348,-23.45662 -18.486,-18.59864 -26.8073,-38.91898 -28.0851,-68.58269 -0.9385,-21.78413 1.6954,-35.6576 10.0647,-53.01271 16.2292,-33.65372 45.8737,-52.14725 83.2042,-51.90632 62.6916,0.40461 110.5157,49.9594 102.7376,106.45563 -4.7171,34.26365 -28.2766,66.33135 -60.4811,82.3232 -18.5908,9.2317 -39.414,13.2769 -53.781,10.44774 z m 39.0436,-17.31551 c 32.4906,-10.11221 57.1311,-45.43524 59.6031,-85.44333 2.4584,-39.78503 -22.1052,-72.61737 -61.9901,-82.85734 -14.6509,-3.76146 -34.4228,-3.14068 -47.4128,1.48862 -5.9159,2.10828 -14.1046,4.90211 -18.1972,6.20849 -8.6735,2.76866 -19.2819,12.55771 -22.3359,20.61093 -1.1217,2.95795 -4.0066,9.97057 -6.4107,15.58359 -20.0182,46.73641 -3.9703,96.87553 37.5792,117.41042 20.5251,10.14401 41.2002,12.58969 59.1644,6.99862 z"
       style="opacity:1;fill:#bdd630;fill-opacity:1;fill-rule:nonzero;stroke:none;stroke-width:11.61524582;stroke-linecap:square;stroke-linejoin:miter;stroke-miterlimit:4;stroke-dasharray:none;stroke-dashoffset:0;stroke-opacity:1;paint-order:normal" /></g><g
     id="g4820"
     transform="translate(-337.29626,1215.7677)"><path
       transform="scale(0.74009375)"
       inkscape:connector-curvature="0"
       id="path4814"
       d="m 1136.1878,976.02452 c -0.6496,-5.06559 -1.2756,-12.62245 -2.1273,-25.68074 -0.6636,-10.17431 -0.8942,-11.67876 -1.7906,-11.67876 -0.3863,0 -1.9523,0.6509 -3.4801,1.44644 -12.5047,6.51153 -26.7786,11.35571 -40.1498,13.62574 -10.1737,1.72722 -25.1785,1.75192 -31.6624,0.0521 -1.1419,-0.29936 -2.7769,-0.68913 -3.6334,-0.86615 -1.5344,-0.31716 -3.2871,-0.96272 -5.0537,-1.86139 -0.4957,-0.25217 -1.2548,-0.45849 -1.6869,-0.45849 -0.4321,0 -0.7857,-0.20524 -0.7857,-0.45609 0,-0.25084 -0.6694,-0.73338 -1.4876,-1.0723 -1.468,-0.60804 -5.7191,-4.39273 -7.4449,-6.62789 -0.4879,-0.63196 -1.3546,-2.11664 -1.926,-3.29929 l -1.0389,-2.15027 1.1475,0.34375 c 4.8312,1.44734 11.8525,0.68617 17.1742,-1.86183 4.6562,-2.22939 7.5222,-4.63546 18.2309,-15.30532 10.8031,-10.76397 13.6023,-13.23018 19.5329,-17.20981 3.6694,-2.46225 4.7685,-3.13209 9.4045,-5.73146 1.9955,-1.1189 9.642,-4.2082 14.4038,-5.81933 1.8556,-0.62785 3.5858,-1.33802 3.8449,-1.57816 0.8708,-0.807 -0.6735,-1.85916 -3.7086,-2.52669 -2.8921,-0.6361 -4.5995,-1.20637 -6.4877,-2.16692 -0.4958,-0.25217 -1.2478,-0.45849 -1.6712,-0.45849 -0.4234,0 -1.6015,-0.46716 -2.6181,-1.03812 -1.0165,-0.57096 -2.1915,-1.03811 -2.6111,-1.03811 -0.4195,0 -0.7628,-0.17656 -0.7628,-0.39235 0,-0.21579 -0.7591,-0.72099 -1.6869,-1.12265 -3.6588,-1.58398 -9.7088,-6.52014 -8.9121,-7.27139 0.2626,-0.24766 1.4118,-0.57913 2.5537,-0.7366 1.1419,-0.15747 3.3609,-0.53277 4.931,-0.834 1.5702,-0.30122 4.2563,-0.76951 5.9692,-1.04064 1.7128,-0.27113 4.5157,-0.75277 6.2286,-1.0703 1.7129,-0.31755 4.7494,-0.77396 6.7478,-1.01427 1.9983,-0.2403 6.2027,-0.83086 9.343,-1.31234 3.8997,-0.59793 9.3293,-0.89657 17.1288,-0.94214 10.6797,-0.0624 11.635,0.0103 14.7501,1.12198 3.6479,1.30188 6.7366,3.25112 9.0938,5.73892 2.6772,2.82549 3.0455,2.31985 2.7037,-3.71132 -0.1659,-2.92618 -0.4272,-6.25463 -0.5807,-7.39655 -0.1535,-1.14192 -0.5396,-4.41198 -0.858,-7.26678 -0.9717,-8.71087 -3.7124,-21.25322 -5.5577,-25.43374 -0.7511,-1.70167 -2.4485,-5.09926 -3.2401,-6.48567 -1.1723,-2.05322 -6.1897,-6.75026 -7.2107,-6.75026 -1.0244,0 -2.4287,-1.39466 -1.9183,-1.90507 0.3224,-0.32232 0.9273,-0.4397 10.2063,-1.98046 9.6122,-1.5961 15.2404,-3.55763 19.4689,-6.78537 1.3492,-1.02983 2.6187,-1.6779 2.821,-1.44014 0.3578,0.42022 1.0871,2.81719 2.0663,6.79072 1.1066,4.4903 2.6023,42.84308 2.4274,62.24345 -0.029,3.18787 0.127,5.97537 0.3461,6.19445 0.2191,0.21908 1.6948,-0.87094 3.2795,-2.42226 4.0358,-3.95101 4.0407,-3.95513 5.9901,-5.02335 3.3518,-1.83675 5.7336,-2.29838 10.5752,-2.04967 2.5694,0.13198 5.7226,0.48789 7.0073,0.7909 1.2847,0.30302 3.0365,0.71162 3.8929,0.90802 0.8565,0.19639 1.7908,0.51723 2.0762,0.71298 0.2855,0.19575 1.5702,0.66207 2.8548,1.03626 1.2847,0.3742 3.3259,1.117 4.5361,1.65066 1.2102,0.53367 2.5066,0.97031 2.8808,0.97031 0.3742,0 0.9023,0.19574 1.1735,0.43498 0.2712,0.23925 2.9457,1.43327 5.9432,2.65339 2.9976,1.22012 6.034,2.51219 6.7477,2.87129 4.5354,2.28188 5.9174,2.86429 6.7968,2.86429 1.7632,0 1.0551,0.99329 -2.1253,2.98133 -1.7128,1.07072 -3.1143,2.11693 -3.1143,2.32493 0,0.208 1.4581,1.30523 3.2402,2.43828 5.5996,3.56028 7.7907,5.46786 10.5859,9.21613 0.8141,1.09168 1.5983,2.10166 1.7426,2.2444 0.8516,0.84201 5.2595,9.55443 6.1712,12.19781 1.2952,3.75482 5.3107,11.88034 7.4389,15.05263 1.8394,2.74182 7.1392,8.36269 10.0551,10.66425 4.112,3.24559 14.7266,8.80034 16.8167,8.80034 1.9686,0 1.0475,1.32997 -1.42,2.05019 -1.356,0.39581 -2.8158,0.89877 -3.2441,1.11767 -1.9744,1.00935 -11.8238,3.07576 -18.1669,3.81143 -3.854,0.44699 -8.1751,0.95342 -9.6026,1.1254 -4.9296,0.59397 -21.0199,-1.41797 -29.0671,-3.63455 -7.9632,-2.19346 -16.674,-6.21299 -24.1361,-11.13736 -5.6555,-3.7322 -5.6825,-3.75378 -10.6593,-8.51516 -2.3126,-2.21248 -4.4434,-4.02269 -4.7351,-4.02269 -0.2918,0 -0.8188,1.34306 -1.1712,2.98458 -0.8603,4.00761 -1.612,6.88721 -2.1745,8.32931 -0.2557,0.65577 -0.465,1.76842 -0.465,2.47256 0,0.70415 -0.2108,1.68585 -0.4684,2.18157 -0.2577,0.49572 -0.7407,1.95239 -1.0733,3.23705 -2.371,9.15642 -2.8089,10.38112 -3.7123,10.38112 -1.0607,0 -6.4905,-3.02173 -9.8151,-5.46219 -4.2574,-3.12528 -8.8022,-8.79706 -10.9177,-13.62529 -0.7639,-1.74321 -1.8784,-2.01672 -2.5943,-0.63664 -0.2222,0.42822 -1.7007,3.40802 -3.2856,6.62179 -1.5848,3.21376 -3.8223,7.25945 -4.972,8.99042 -1.1498,1.73097 -2.0904,3.26117 -2.0904,3.40047 0,0.2382 -3.0507,4.30202 -3.6513,4.86389 -0.1526,0.14274 -0.8124,0.96025 -1.4662,1.81669 -1.9668,2.5763 -7.1369,7.8374 -9.5179,9.68536 -1.2287,0.95363 -2.3508,1.85066 -2.4935,1.9934 -0.484,0.48399 -2.5787,1.55717 -3.0394,1.55717 -0.252,0 -0.7285,-2.10781 -1.0589,-4.68403 z m 6.6936,-13.41805 c 0,-1.76672 -0.6409,-4.21732 -1.103,-4.21732 -0.5163,0 -0.6158,3.1272 -0.1391,4.36952 0.4342,1.13168 1.2421,1.0327 1.2421,-0.1522 z m 5.5489,-3.98251 c 0.4419,-0.44182 0.6699,-0.93678 0.5067,-1.09991 -0.2989,-0.29894 -1.9032,1.0553 -1.9032,1.6066 0,0.52516 0.5723,0.3175 1.3965,-0.50669 z m -3.4727,-0.75387 c 0,-0.28548 -0.2336,-0.51906 -0.519,-0.51906 -0.2855,0 -0.5191,0.23358 -0.5191,0.51906 0,0.28548 0.2336,0.51906 0.5191,0.51906 0.2854,0 0.519,-0.23358 0.519,-0.51906 z m -3.6334,-3.11434 c 0,-0.85644 -0.2336,-1.55716 -0.519,-1.55716 -0.2855,0 -0.5191,0.70072 -0.5191,1.55716 0,0.85645 0.2336,1.55717 0.5191,1.55717 0.2854,0 0.519,-0.70072 0.519,-1.55717 z m 14.0145,-4.6715 c 0,-0.28548 -0.2335,-0.51906 -0.519,-0.51906 -0.2855,0 -0.5191,0.23358 -0.5191,0.51906 0,0.28548 0.2336,0.51906 0.5191,0.51906 0.2855,0 0.519,-0.23358 0.519,-0.51906 z m 33.7387,-3.11433 c 0,-0.28549 -0.2336,-0.51906 -0.5191,-0.51906 -0.2855,0 -0.519,-0.70073 -0.519,-1.55717 0,-0.85644 -0.2336,-1.55717 -0.5191,-1.55717 -0.2855,0 -0.5191,0.9343 -0.5191,2.07623 0,1.73018 0.1731,2.07622 1.0382,2.07622 0.5709,0 1.0381,-0.23357 1.0381,-0.51905 z m -4.1525,-2.59528 c 0,-0.57097 -0.2336,-1.03812 -0.519,-1.03812 -0.2855,0 -0.5191,0.46715 -0.5191,1.03812 0,0.57096 0.2336,1.03811 0.5191,1.03811 0.2854,0 0.519,-0.46715 0.519,-1.03811 z m 58.1343,0 c 0,-0.57097 -0.2336,-1.03812 -0.5191,-1.03812 -0.2855,0 -0.519,-0.70072 -0.519,-1.55716 0,-1.21113 -0.2307,-1.55717 -1.0381,-1.55717 -0.571,0 -1.0382,0.23357 -1.0382,0.51905 0,0.28548 0.2336,0.51906 0.5191,0.51906 0.2855,0 0.5191,0.46715 0.5191,1.03811 0,0.57096 0.2335,1.03811 0.519,1.03811 0.2855,0 0.5191,0.46715 0.5191,1.03812 0,0.57096 0.2335,1.03811 0.519,1.03811 0.2855,0 0.5191,-0.46715 0.5191,-1.03811 z m 10.2838,0.17147 c 0.6302,-0.63024 0.6909,-0.92521 0.2224,-1.08137 -0.3543,-0.1181 -0.6442,-0.66241 -0.6442,-1.20958 0,-0.71515 -0.3648,-0.99486 -1.2976,-0.99486 -0.9516,0 -1.2976,0.27683 -1.2976,1.03811 0,0.69207 -0.3461,1.03811 -1.0381,1.03811 -0.571,0 -1.0382,0.23358 -1.0382,0.51906 0,0.28548 0.584,0.51906 1.2977,0.51906 0.7137,0 1.2976,0.23357 1.2976,0.51905 0,0.81993 1.5455,0.60488 2.498,-0.34758 z m 11.4755,-0.30124 c -0.023,-0.64233 -0.1587,-0.87591 -0.3027,-0.51905 -0.3103,0.76887 -2.2516,0.88076 -2.2516,0.12976 0,-0.28548 -0.2335,-0.51906 -0.519,-0.51906 -0.2855,0 -0.5191,0.46715 -0.5191,1.03812 0,0.84037 0.3461,1.03811 1.8167,1.03811 1.5501,0 1.8107,-0.17139 1.7757,-1.16788 z m 3.1554,0.12977 c 0,-0.57097 -0.2336,-1.03812 -0.5191,-1.03812 -0.2855,0 -0.519,-0.70072 -0.519,-1.55716 0,-1.21113 -0.2307,-1.55717 -1.0382,-1.55717 -0.5709,0 -1.0381,0.23357 -1.0381,0.51905 0,0.28548 0.2336,0.51906 0.5191,0.51906 0.2855,0 0.519,0.46715 0.519,1.03811 0,0.57096 0.2336,1.03811 0.5191,1.03811 0.2855,0 0.5191,0.46715 0.5191,1.03812 0,0.57096 0.2335,1.03811 0.519,1.03811 0.2855,0 0.5191,-0.46715 0.5191,-1.03811 z m -28.0291,-0.51906 c 0,-0.28548 -0.2335,-0.51906 -0.519,-0.51906 -0.2855,0 -0.5191,0.23358 -0.5191,0.51906 0,0.28548 0.2336,0.51906 0.5191,0.51906 0.2855,0 0.519,-0.23358 0.519,-0.51906 z m 6.2287,0 c 0,-0.28548 -0.2336,-0.51906 -0.519,-0.51906 -0.2855,0 -0.5191,0.23358 -0.5191,0.51906 0,0.28548 0.2336,0.51906 0.5191,0.51906 0.2854,0 0.519,-0.23358 0.519,-0.51906 z m 11.9383,0 c 0,-0.28548 -0.4671,-0.51906 -1.0381,-0.51906 -0.571,0 -1.0381,0.23358 -1.0381,0.51906 0,0.28548 0.4671,0.51906 1.0381,0.51906 0.571,0 1.0381,-0.23358 1.0381,-0.51906 z m 12.9764,0 c 0,-0.28548 -0.2336,-0.51906 -0.5191,-0.51906 -0.2854,0 -0.519,0.23358 -0.519,0.51906 0,0.28548 0.2336,0.51906 0.519,0.51906 0.2855,0 0.5191,-0.23358 0.5191,-0.51906 z m -194.1269,-2.07622 c 0,-0.28548 -0.4672,-0.51906 -1.0381,-0.51906 -0.704,0 -1.0381,-0.34604 -1.0381,-1.07519 0,-1.14915 -1.1232,-2.5582 -2.0392,-2.5582 -0.3059,0 -0.5561,0.38045 -0.5561,0.84545 0,0.71442 -0.4023,0.7921 -2.5953,0.50118 -2.1363,-0.2834 -2.5953,-0.20343 -2.5953,0.45219 0,0.58316 0.556,0.79646 2.0762,0.79646 1.142,0 2.0763,0.23357 2.0763,0.51905 0,0.28548 0.8175,0.51906 1.8167,0.51906 0.9991,0 1.8167,0.23358 1.8167,0.51906 0,0.28548 0.4671,0.51905 1.0381,0.51905 0.5709,0 1.0381,-0.23357 1.0381,-0.51905 z m 9.343,-0.51906 c 0,-0.69207 -0.346,-1.03811 -1.0381,-1.03811 -1.2047,0 -1.2882,0.27882 -0.3893,1.2998 0.9161,1.0405 1.4274,0.94676 1.4274,-0.26169 z m 99.6587,0.51906 c 0,-0.28548 -0.2335,-0.51906 -0.519,-0.51906 -0.2855,0 -0.5191,0.23358 -0.5191,0.51906 0,0.28548 0.2336,0.51905 0.5191,0.51905 0.2855,0 0.519,-0.23357 0.519,-0.51905 z m 46.5544,-0.28425 c 0.4418,-0.44181 0.6267,-0.96736 0.4109,-1.16788 -0.2158,-0.20051 -0.4966,-0.0726 -0.6241,0.28425 -0.1274,0.35685 -0.6794,0.64882 -1.2266,0.64882 -0.5471,0 -0.9948,0.23358 -0.9948,0.51906 0,0.79566 1.5338,0.61659 2.4346,-0.28425 z m 24.5563,0.28425 c 0,-0.28548 -0.4672,-0.51906 -1.0381,-0.51906 -0.571,0 -1.0381,0.23358 -1.0381,0.51906 0,0.28548 0.4671,0.51905 1.0381,0.51905 0.5709,0 1.0381,-0.23357 1.0381,-0.51905 z m -168.1741,-1.59425 c 0,-0.59135 -0.3957,-1.46725 -0.8793,-1.94646 -0.8236,-0.81608 -0.8565,-0.81104 -0.5191,0.0795 0.1981,0.52294 0.3603,1.39885 0.3603,1.94646 0,0.54761 0.2335,0.99566 0.519,0.99566 0.2855,0 0.5191,-0.48383 0.5191,-1.07519 z m 8.3049,0.55613 c 0,-0.28548 0.7007,-0.51905 1.5571,-0.51905 1.6876,0 1.9876,-0.68185 0.8157,-1.85377 -0.972,-0.97198 -2.3728,-0.95009 -2.3728,0.0371 0,0.51906 -0.5191,0.77859 -1.5572,0.77859 -1.0381,0 -1.5572,-0.25953 -1.5572,-0.77859 0,-0.42822 -0.367,-0.77858 -0.8156,-0.77858 -1.145,0 -2.2987,1.28396 -2.2987,2.5582 0,0.96808 0.3102,1.07519 3.1143,1.07519 1.7302,0 3.1144,-0.23069 3.1144,-0.51906 z m 141.7022,0 c 0,-0.28548 -0.2335,-0.51905 -0.519,-0.51905 -0.2855,0 -0.5191,0.23357 -0.5191,0.51905 0,0.28548 0.2336,0.51906 0.5191,0.51906 0.2855,0 0.519,-0.23358 0.519,-0.51906 z m 6.2287,0 c 0,-0.28548 -0.2336,-0.51905 -0.5191,-0.51905 -0.2854,0 -0.519,0.23357 -0.519,0.51905 0,0.28548 0.2336,0.51906 0.519,0.51906 0.2855,0 0.5191,-0.23358 0.5191,-0.51906 z m 19.2051,0 c 0,-0.28548 -0.2336,-0.51905 -0.5191,-0.51905 -0.2855,0 -0.519,0.23357 -0.519,0.51905 0,0.28548 0.2335,0.51906 0.519,0.51906 0.2855,0 0.5191,-0.23358 0.5191,-0.51906 z m -39.4483,-1.07518 c 0,-0.30587 -0.3337,-0.88981 -0.7415,-1.29764 -0.9646,-0.96458 -1.8538,-0.94679 -1.8538,0.0371 0,0.42822 0.3504,0.77859 0.7786,0.77859 0.4282,0 0.7786,0.23357 0.7786,0.51905 0,0.28548 0.2336,0.51906 0.5191,0.51906 0.2854,0 0.519,-0.25026 0.519,-0.55613 z m -139.5757,-1.58998 c 0.8338,-0.74067 1.0322,-1.1852 0.5985,-1.34089 -0.3568,-0.1281 -0.6488,-0.68059 -0.6488,-1.22776 0,-0.84779 -0.3837,-0.99486 -2.5953,-0.99486 -1.4274,0 -2.5953,0.23358 -2.5953,0.51906 0,0.28548 0.3671,0.51906 0.8157,0.51906 1.145,0 2.2987,1.28395 2.2987,2.5582 0,1.36766 0.5597,1.35903 2.1265,-0.0328 z m 145.1556,0.7502 c -0.4996,-0.13056 -1.3171,-0.13056 -1.8167,0 -0.4996,0.13055 -0.091,0.23738 0.9083,0.23738 0.9992,0 1.408,-0.10683 0.9084,-0.23738 z m -119.8695,-1.0279 c 0.6302,-0.63023 0.6909,-0.92521 0.2224,-1.08137 -0.3543,-0.1181 -0.6441,-0.5623 -0.6441,-0.98713 0,-1.31139 -1.3967,-2.25542 -3.3368,-2.25542 -1.5078,0 -1.8538,0.19378 -1.8538,1.03811 0,0.59771 0.346,1.03812 0.8157,1.03812 1.049,0 2.2986,1.24964 2.2986,2.29867 0,1.07147 1.4042,1.04281 2.498,-0.051 z m -8.7346,-1.8584 c 0,-0.21411 -0.2256,-0.38929 -0.5111,-0.38929 -0.2855,0 -0.5155,0.52554 -0.5111,1.16787 0.01,0.94439 0.1042,1.01889 0.5111,0.38929 0.2768,-0.42822 0.5068,-0.95376 0.5111,-1.16787 z m 76.3092,1.39032 c 0,-0.16312 -0.3337,-0.63027 -0.7415,-1.03811 -1.0059,-1.00586 -1.3347,-0.93278 -1.3347,0.29661 0,0.69207 0.346,1.03811 1.0381,1.03811 0.5709,0 1.0381,-0.13347 1.0381,-0.29661 z m -101.2159,-1.26056 c 0,-0.28548 -0.2336,-0.51905 -0.5191,-0.51905 -0.2855,0 -0.519,0.23357 -0.519,0.51905 0,0.28548 0.2335,0.51906 0.519,0.51906 0.2855,0 0.5191,-0.23358 0.5191,-0.51906 z m 15.0526,0.22245 c 0,-0.16313 -0.3615,-0.65809 -0.8033,-1.0999 -1.0135,-1.01355 -1.6225,-0.50583 -0.6765,0.56403 0.709,0.80173 1.4798,1.08088 1.4798,0.53587 z m 3.1143,-0.7415 c 0,-0.69208 -0.346,-1.03812 -1.0381,-1.03812 -1.2047,0 -1.2882,0.27883 -0.3893,1.29981 0.9161,1.04049 1.4274,0.94675 1.4274,-0.26169 z m 22.8385,0.51905 c 0,-0.28548 -0.2336,-0.51905 -0.5191,-0.51905 -0.2854,0 -0.519,-0.46716 -0.519,-1.03812 0,-0.57096 -0.2336,-1.03811 -0.5191,-1.03811 -0.2854,0 -0.519,0.70073 -0.519,1.55717 0,1.21113 0.2307,1.55717 1.0381,1.55717 0.571,0 1.0381,-0.23358 1.0381,-0.51906 z m -44.1197,-1.03811 c 0,-0.28548 -0.3504,-0.51906 -0.7786,-0.51906 -0.4283,0 -0.7786,0.23358 -0.7786,0.51906 0,0.28548 0.3503,0.51906 0.7786,0.51906 0.4282,0 0.7786,-0.23358 0.7786,-0.51906 z m 25.4337,0 c 0,-0.28548 -0.4672,-0.51906 -1.0381,-0.51906 -0.571,0 -1.0381,0.23358 -1.0381,0.51906 0,0.28548 0.4671,0.51906 1.0381,0.51906 0.5709,0 1.0381,-0.23358 1.0381,-0.51906 z m 23.8766,-1.03811 c 0,-0.28548 0.4671,-0.51906 1.0381,-0.51906 0.5709,0 1.0381,-0.23357 1.0381,-0.51905 0,-0.77093 -1.5222,-0.62822 -2.3728,0.22245 -0.8696,0.86959 -0.9472,1.33471 -0.2225,1.33471 0.2855,0 0.5191,-0.23357 0.5191,-0.51905 z m 50.8674,-0.51906 c 0,-1.22939 -0.3288,-1.30247 -1.3347,-0.2966 -1.0058,1.00587 -0.9328,1.33471 0.2966,1.33471 0.6921,0 1.0381,-0.34604 1.0381,-1.03811 z m -53.9818,-1.03811 c 0,-0.57096 -0.2335,-1.03811 -0.519,-1.03811 -0.2855,0 -0.5191,0.46715 -0.5191,1.03811 0,0.57096 0.2336,1.03811 0.5191,1.03811 0.2855,0 0.519,-0.46715 0.519,-1.03811 z m 91.8729,0.51906 c 0,-0.28549 -0.2336,-0.51906 -0.519,-0.51906 -0.2855,0 -0.5191,0.23357 -0.5191,0.51906 0,0.28548 0.2336,0.51905 0.5191,0.51905 0.2854,0 0.519,-0.23357 0.519,-0.51905 z m -1.7776,-3.50783 c -0.5638,-0.56382 -0.7256,0.13579 -0.391,1.69113 l 0.3349,1.55717 0.1773,-1.47486 c 0.098,-0.81117 0.043,-1.60922 -0.1212,-1.77344 z m 3.8538,2.46971 c 0,-0.28548 -0.2335,-0.51905 -0.519,-0.51905 -0.2855,0 -0.5191,0.23357 -0.5191,0.51905 0,0.28548 0.2336,0.51906 0.5191,0.51906 0.2855,0 0.519,-0.23358 0.519,-0.51906 z m -90.8347,-1.55716 c 0,-0.57097 -0.2336,-1.03812 -0.5191,-1.03812 -0.2855,0 -0.519,0.46715 -0.519,1.03812 0,0.57096 0.2335,1.03811 0.519,1.03811 0.2855,0 0.5191,-0.46715 0.5191,-1.03811 z m 49.8293,0.51905 c 0,-0.28548 -0.2335,-0.51905 -0.519,-0.51905 -0.2855,0 -0.5191,0.23357 -0.5191,0.51905 0,0.28548 0.2336,0.51906 0.5191,0.51906 0.2855,0 0.519,-0.23358 0.519,-0.51906 z m -42.0435,-3.56851 c 0,-0.67477 0.4974,-1.07271 1.6221,-1.29764 2.8267,-0.56534 4.6066,-0.38986 4.6066,0.45418 0,0.42822 0.2335,0.77858 0.519,0.77858 0.2855,0 0.5191,-0.46715 0.5191,-1.03811 0,-0.79739 -0.3461,-1.03811 -1.4923,-1.03811 -0.8208,0 -2.1658,-0.13471 -2.989,-0.29935 -1.0565,-0.21131 -1.8389,-0.003 -2.6602,0.70971 -1.1853,1.02807 -1.5847,2.70397 -0.6444,2.70397 0.2855,0 0.5191,-0.43795 0.5191,-0.97323 z m 72.5381,-1.97985 c -0.4996,-0.13055 -1.3171,-0.13055 -1.8167,0 -0.4996,0.13056 -0.091,0.23738 0.9083,0.23738 0.9992,0 1.408,-0.10682 0.9084,-0.23738 z m -5.5799,-4.3137 c 0,-0.28548 -0.2336,-0.51906 -0.519,-0.51906 -0.2855,0 -0.5191,0.23358 -0.5191,0.51906 0,0.28548 0.2336,0.51906 0.5191,0.51906 0.2854,0 0.519,-0.23358 0.519,-0.51906 z"
       style="opacity:1;fill:#bdd630;fill-opacity:1;fill-rule:nonzero;stroke:none;stroke-width:3.9235723;stroke-linecap:square;stroke-linejoin:miter;stroke-miterlimit:4;stroke-dasharray:none;stroke-dashoffset:0;stroke-opacity:1;paint-order:normal" /><path
       transform="scale(0.74009375)"
       inkscape:connector-curvature="0"
       id="path4816"
       d="m 1158.6458,1092.1605 c -14.4097,-2.2626 -28.1651,-9.8082 -41.0532,-22.5201 -12.2262,-12.059 -20.4607,-23.6249 -29.3617,-41.2402 -4.8261,-9.551 -6.3013,-12.9296 -8.9744,-20.5535 -0.5663,-1.6149 -1.3197,-3.5969 -1.6743,-4.4044 -0.62,-1.4115 -2.3791,-7.2576 -4.7489,-15.78216 -1.5891,-5.71629 -3.961,-19.18625 -4.5375,-25.76788 l -0.4889,-5.58134 9.8178,-0.4066 c 5.3997,-0.22363 12.2952,-0.97027 15.3231,-1.65921 9.4852,-2.15809 23.3858,-6.87608 31.4079,-10.6601 4.2425,-2.00118 7.8301,-3.6385 7.9724,-3.6385 0.1423,0 0.264,2.56002 0.2704,5.68893 0.014,6.76174 1.088,20.77639 2.2788,29.72927 0.9908,7.44936 1.3983,7.70269 6.7202,4.17759 7.552,-5.00224 19.1131,-19.89839 24.6869,-31.80846 l 2.3674,-5.05865 2.9078,4.45029 c 3.6378,5.56744 9.774,11.1393 15.4886,14.06408 2.4143,1.23571 4.6788,2.24674 5.032,2.24674 0.7609,0 1.7455,-3.23698 5.4708,-17.98437 1.5297,-6.05596 2.8721,-11.1219 2.9831,-11.25763 0.111,-0.13573 2.9536,2.13287 6.3168,5.04134 12.4042,10.72678 27.6469,17.60531 44.164,19.92972 l 6.4845,0.91255 -0.3844,2.96379 c -0.6964,5.36892 -2.7104,15.41548 -3.3901,16.91086 -0.3671,0.80746 -0.8948,2.62425 -1.1728,4.0373 -0.4729,2.40357 -3.86,13.15198 -5.3565,16.99754 -0.3683,0.9465 -1.2475,3.2074 -1.9537,5.0241 -1.5371,3.9544 -13.0892,27.4343 -14.8718,30.2273 -0.6902,1.0814 -2.6648,4.2195 -4.388,6.9735 -5.0192,8.0217 -10.741,15.7656 -15.565,21.0655 -5.5076,6.0511 -12.7848,13.051 -15.8754,15.2705 -1.7767,1.2759 -3.2304,2.5942 -3.2304,2.9295 0,2.8223 10.8213,-4.6137 20.4813,-14.0741 6.8838,-6.7415 16.9556,-18.9133 16.9556,-20.4908 0,-0.3695 0.2477,-0.782 0.5505,-0.9166 0.7546,-0.3353 6.8985,-9.6238 9.6301,-14.5587 2.899,-5.2376 11.107,-21.8101 11.107,-22.4259 0,-0.2613 0.4902,-1.5159 1.0894,-2.7881 3.7341,-7.9289 8.8348,-24.97939 11.013,-36.81377 0.6687,-3.63358 1.3637,-7.34974 1.5443,-8.25813 0.2558,-1.28665 0.8308,-1.65163 2.6021,-1.65163 2.1117,0 2.2383,0.14391 1.7764,2.01866 -0.2736,1.11026 -0.9568,4.59364 -1.5182,7.74085 -0.5615,3.14721 -1.3508,6.78079 -1.7541,8.07462 -0.4033,1.29382 -1.2823,4.49952 -1.9532,7.12377 -1.7392,6.80209 -5.3208,17.64353 -6.5852,19.93273 -0.5919,1.0717 -1.0761,2.3242 -1.0761,2.7834 0,0.7856 -1.5994,4.42 -6.738,15.3106 -5.2128,11.0481 -16.7614,28.7742 -24.4505,37.5294 -13.6842,15.5814 -28.5675,25.6415 -44.0522,29.7761 -4.4451,1.1869 -17.2189,2.0091 -21.2877,1.3703 z m 14.8054,-26.4316 c 3.6586,-1.7361 6.8293,-5.1762 8.8608,-9.6136 1.9839,-4.3333 1.9431,-6.4274 -0.1253,-6.4274 -0.9041,0 -1.6485,0.7767 -2.1103,2.2021 -1.0134,3.1284 -4.1908,7.6766 -6.6198,9.4758 -3.0631,2.2689 -9.2671,2.1495 -11.7969,-0.2272 -2.4125,-2.2663 -4.1304,-6.8076 -4.3281,-11.4409 -0.1248,-2.9266 -0.4326,-3.7137 -1.5351,-3.926 -4.492,-0.8651 -2.8871,10.9745 2.2841,16.8499 3.7476,4.258 10.1979,5.562 15.3706,3.1073 z m -27.1044,-45.5635 c 2.1365,-2.6473 2.0629,-5.8826 -0.1967,-8.6484 -1.5252,-1.867 -2.3131,-2.2022 -5.1755,-2.2022 -2.7894,0 -3.6845,0.3581 -5.1481,2.0596 -3.0088,3.498 -1.89,9.104 2.1608,10.8267 2.6837,1.1414 6.5565,0.1983 8.3595,-2.0357 z m 54.075,-0.9972 c 2.8469,-3.3833 2.3376,-7.4368 -1.3053,-10.3876 -2.0777,-1.683 -4.5383,-1.6251 -7.4516,0.1755 -3.7911,2.343 -4.3784,6.6599 -1.3894,10.2121 1.5823,1.8805 2.4314,2.2585 5.0731,2.2585 2.6417,0 3.4909,-0.378 5.0732,-2.2585 z m 19.9076,-9.6869 c 1.5846,-1.363 1.9498,-2.3258 1.9941,-5.2571 0.048,-3.1385 -0.2381,-3.8497 -2.2775,-5.67192 -2.6941,-2.40717 -3.5623,-2.52075 -5.6877,-0.74405 -3.3641,2.81217 -4.1982,7.19217 -1.9854,10.42567 2.3794,3.477 4.9043,3.8728 7.9565,1.2474 z m -118.4057,-5.8999 c 2.2885,-2.8999 1.9707,-7.40475 -0.7218,-10.23232 -2.5121,-2.63812 -4.7292,-2.5631 -7.0877,0.23983 -2.7564,3.2758 -2.6288,7.40289 0.3202,10.35189 1.7889,1.7889 2.6095,2.126 4.2208,1.7341 1.1001,-0.2675 2.5709,-1.2096 3.2685,-2.0935 z m 135.6887,-4.60253 c 3.7407,-3.98181 1.2751,-12.07094 -3.6703,-12.04154 -1.0399,0.006 -2.2286,0.25392 -2.6417,0.55054 -1.496,1.07428 -3.2863,4.56724 -3.2863,6.41175 0,1.8445 1.7903,5.33747 3.2863,6.41178 1.5884,1.1406 4.5824,0.5085 6.312,-1.33253 z m -121.558,-9.83275 c 3.0159,-3.33247 1.5056,-11.26886 -2.3275,-12.23091 -5.7027,-1.43128 -9.5931,6.95757 -5.4488,11.74914 2.3725,2.743 5.5517,2.93996 7.7763,0.48177 z m 107.5634,-3.1376 c 4.2452,-6.96265 -2.2598,-15.21869 -7.8518,-9.96532 -1.3375,1.25655 -1.6989,2.37859 -1.6989,5.2746 0,4.60343 1.9724,7.0764 5.6441,7.0764 1.9787,0 2.7329,-0.46058 3.9066,-2.38568 z m -126.3189,-4.68685 c 2.8258,-3.59238 1.6593,-9.97482 -2.2005,-12.04052 -1.9169,-1.02592 -5.4441,1.0161 -6.6078,3.82553 -1.0748,2.59496 -0.3135,6.84653 1.562,8.72196 2.0751,2.07515 5.3981,1.84267 7.2463,-0.50697 z m 142.5208,-5.62823 c 2.7339,-3.30373 2.4309,-7.56339 -0.7654,-10.75972 -2.1682,-2.16813 -4.7072,-1.8896 -6.9376,0.76107 -2.7564,3.2758 -2.6287,7.40289 0.3202,10.35186 2.5457,2.54563 5.0845,2.42416 7.3828,-0.35321 z"
       style="opacity:1;fill:#bdd630;fill-opacity:1;fill-rule:nonzero;stroke:none;stroke-width:5.54876947;stroke-linecap:square;stroke-linejoin:miter;stroke-miterlimit:4;stroke-dasharray:none;stroke-dashoffset:0;stroke-opacity:1;paint-order:normal" /></g><g
     id="g4851"
     transform="matrix(1.639681,0,0,1.639681,-1651.5063,-574.76678)"><path
       transform="scale(0.74009375)"
       inkscape:connector-curvature="0"
       id="path4835"
       d="m 1452.8086,664.71905 c -0.094,-0.1514 -0.5733,-0.27527 -1.0661,-0.27527 -0.4927,0 -0.8959,-0.17491 -0.8959,-0.38869 0,-0.21378 -0.1584,-0.29076 -0.3521,-0.17108 -0.1936,0.11969 -0.6478,0.0665 -1.0093,-0.11812 -0.3615,-0.18466 -1.4005,-0.69196 -2.3089,-1.12735 -2.8687,-1.37497 -4.1777,-2.33631 -3.7557,-2.75831 0.1356,-0.13563 -0.037,-0.13763 -0.3845,-0.004 -0.3626,0.13911 -0.6311,0.0693 -0.6311,-0.16413 0,-0.22347 -0.1673,-0.4063 -0.3718,-0.4063 -0.3756,0 -1.5677,-1.01939 -5.687,-4.86312 l -2.2617,-2.11041 h -35.9559 c -26.0849,0 -36.069,-0.11304 -36.3677,-0.41175 -0.2265,-0.22647 -0.3308,-0.62267 -0.2319,-0.88045 0.099,-0.25778 0,-0.57772 -0.2122,-0.71099 -0.2759,-0.17052 -0.392,-21.71663 -0.392,-72.73032 0,-55.25136 0.1021,-72.42492 0.4294,-72.22264 0.2955,0.18267 0.35,0.0586 0.1748,-0.39807 -0.16,-0.4168 -0.024,-0.88265 0.366,-1.25305 0.5508,-0.52331 2.1182,-0.57782 13.9427,-0.48481 16.3055,0.12825 14.8803,0.70292 14.7943,-5.96539 -0.058,-4.46962 0.107,-5.55137 0.7815,-5.13456 0.1879,0.11614 0.3416,0.0362 0.3416,-0.17753 0,-0.25881 2.1542,-0.38869 6.4471,-0.38869 3.7423,0 6.745,-0.1594 7.1571,-0.37994 0.5641,-0.3019 0.7099,-0.7775 0.7099,-2.31553 0,-1.1337 0.2233,-2.23075 0.5389,-2.64804 0.2964,-0.39185 0.5441,-0.999 0.5505,-1.34923 0.031,-1.68505 5.4052,-7.98837 6.811,-7.98837 0.2483,0 0.657,-0.24775 0.9083,-0.55055 0.2513,-0.30279 0.8909,-0.55639 1.4213,-0.56354 0.5304,-0.007 1.3773,-0.24905 1.8819,-0.53754 1.2417,-0.70978 5.882,-0.70978 7.5807,0 0.7247,0.3028 1.6076,0.55054 1.9619,0.55054 0.3544,0 0.8499,0.24775 1.1012,0.55054 0.2513,0.3028 0.6963,0.55055 0.9888,0.55055 0.6952,0 1.6188,0.93229 1.2877,1.29974 -0.1418,0.15733 -0.065,0.1755 0.1713,0.0404 0.8347,-0.47787 4.8221,4.13806 5.1208,5.92784 0.044,0.26286 0.3408,0.87641 0.6599,1.36344 0.3386,0.51673 0.5851,1.69336 0.5919,2.82532 0.02,3.24192 -0.022,3.2244 7.6446,3.2244 4.8279,0 6.6578,0.11769 6.6578,0.4282 0,0.23551 0.1087,0.31953 0.2415,0.1867 0.3893,-0.38934 1.2019,0.49066 0.982,1.06356 -0.1105,0.28804 -0.01,0.52371 0.2327,0.52371 0.3135,0 0.4086,1.16348 0.3434,4.19923 -0.066,3.05288 0.042,4.3588 0.3949,4.78377 0.4285,0.51621 2.0264,0.58001 13.6707,0.54581 10.9255,-0.0321 13.3224,0.0521 13.9836,0.4911 l 0.798,0.52983 0.1836,38.67673 0.1835,38.67673 1.6516,0.11493 c 0.9084,0.0632 1.8085,0.26966 2.0003,0.45878 0.1918,0.18912 0.9035,0.34386 1.5815,0.34386 0.8079,0 1.1463,0.14006 0.9818,0.40627 -0.1738,0.28126 0.091,0.33112 0.861,0.16203 0.6529,-0.14341 1.2111,-0.0838 1.3521,0.14426 0.1321,0.21369 0.6531,0.38852 1.1577,0.38852 0.5112,0 0.8183,0.1607 0.6933,0.36283 -0.1252,0.20261 0.011,0.27259 0.3083,0.15849 0.2929,-0.11238 0.6415,-0.0279 0.7748,0.18772 0.1332,0.21562 0.5317,0.39205 0.8855,0.39205 0.3537,0 0.9633,0.29379 1.3547,0.65287 0.3913,0.35908 1.0005,0.59472 1.3538,0.52363 0.3532,-0.0711 0.6423,0.0188 0.6423,0.19964 0,0.18088 0.7432,0.70007 1.6516,1.15374 0.9084,0.45368 1.6516,0.97844 1.6516,1.16614 0,0.18771 0.1721,0.34128 0.3825,0.34128 0.6345,0 4.8602,3.95779 5.857,5.4856 0.3028,0.4641 0.7242,1.03004 0.9366,1.25764 0.59,0.63241 2.183,4.04014 2.0651,4.41748 -0.057,0.18337 0.028,0.43111 0.1904,0.55054 0.623,0.45915 1.2122,1.90599 1.2122,2.97667 0,0.61482 0.2478,1.71079 0.5506,2.43548 0.3841,0.91928 0.5505,2.63041 0.5505,5.65988 0,4.00556 -0.1569,4.9492 -1.1971,7.19929 -0.2043,0.44213 -0.2718,1.30282 -0.1498,1.91267 0.122,0.60984 0.062,1.20754 -0.1332,1.32821 -0.1953,0.12068 -0.355,0.53999 -0.355,0.93181 0,0.39181 -0.1423,0.71239 -0.3162,0.71239 -0.1738,0 -0.2372,0.41291 -0.1407,0.91757 0.1024,0.53562 0,0.91757 -0.2344,0.91757 -0.2254,0 -0.4098,0.46392 -0.4098,1.03093 0,0.56702 -0.2425,1.35154 -0.5389,1.74339 -0.2964,0.39184 -0.5441,1.00839 -0.5505,1.37009 -0.01,0.36171 -0.3299,0.99918 -0.7188,1.41662 -0.3889,0.41743 -0.6126,1.00526 -0.4971,1.30629 0.1156,0.30103 0.062,0.65452 -0.1189,0.78555 -0.1809,0.13103 -0.9534,1.50228 -1.7165,3.04722 -0.7632,1.54495 -1.6283,3.00884 -1.9227,3.25309 -0.2943,0.24424 -0.4445,0.59053 -0.3339,0.76953 0.1106,0.17899 0.046,0.32544 -0.1448,0.32544 -0.1902,0 -0.4429,0.28903 -0.5615,0.64229 -0.1945,0.57917 -0.6513,1.36407 -1.4303,2.45741 -0.1517,0.21288 -1.0389,1.46062 -1.9715,2.77274 -0.9326,1.31213 -2.0099,2.71601 -2.3941,3.11974 -0.3841,0.40373 -1.2534,1.34496 -1.9317,2.09162 -0.6783,0.74665 -1.3762,1.24214 -1.551,1.10108 -0.1747,-0.14106 -0.1952,-0.10651 -0.045,0.0768 0.3629,0.44454 -0.4346,1.37469 -0.9209,1.07411 -0.2102,-0.1299 -0.2805,-0.0716 -0.1562,0.12946 0.241,0.3899 -3.5129,4.15211 -4.1429,4.15211 -0.2057,0 -0.374,0.16925 -0.374,0.37611 0,0.41524 -1.8046,1.26295 -2.3857,1.12068 -0.2018,-0.0494 -0.251,0.0262 -0.1092,0.16794 0.3389,0.33889 -0.4502,1.10834 -1.4678,1.43132 -0.4448,0.14116 -0.8087,0.4107 -0.8087,0.59896 0,0.18826 -0.3101,0.3423 -0.6891,0.3423 -0.379,0 -0.8947,0.24774 -1.146,0.55054 -0.2513,0.3028 -0.7573,0.55054 -1.1244,0.55054 -0.3671,0 -0.765,0.15795 -0.8844,0.351 -0.1193,0.19305 -0.4593,0.25796 -0.7557,0.14424 -0.2963,-0.11371 -0.5388,-0.0239 -0.5388,0.19955 0,0.22346 -0.4031,0.40629 -0.8959,0.40629 -0.4927,0 -0.973,0.12475 -1.0672,0.27722 -0.1922,0.31092 -7.64,0.31807 -8.1625,0.008 -0.184,-0.1093 -0.8714,-0.31386 -1.5275,-0.45457 -0.6561,-0.14071 -1.1928,-0.40788 -1.1928,-0.5937 0,-0.18581 -0.4955,-0.33785 -1.1011,-0.33785 -0.6056,0 -1.1011,0.15204 -1.1011,0.33786 0,0.18583 -0.5368,0.453 -1.1928,0.59371 -0.6561,0.14071 -1.3549,0.35232 -1.5529,0.47025 -0.5344,0.31819 -7.9403,0.29502 -8.1383,-0.0255 z m 9.2567,-6.33123 c 1.2634,-0.70653 2.5738,-1.2846 2.9119,-1.2846 0.3381,0 1.6485,0.57807 2.9119,1.2846 1.9715,1.10255 2.6368,1.2846 4.6944,1.2846 5.6308,0 13.39,-4.94535 20.1551,-12.84598 5.072,-5.92332 8.419,-11.34228 11.7879,-19.08545 0.8382,-1.92664 2.3055,-6.50423 2.8824,-8.99219 0.6636,-2.86206 0.6798,-11.53548 0.026,-13.76355 -1.7077,-5.81729 -5.5623,-10.60845 -10.9573,-13.61948 -3.3558,-1.87295 -3.9413,-2.15804 -4.4368,-2.16046 -0.255,-0.001 -0.7505,-0.14947 -1.1011,-0.32939 -2.9473,-1.51286 -10.2408,-2.0308 -13.3454,-0.94772 -3.5856,1.25094 -5.6509,2.59827 -8.5644,5.58724 -3.9679,4.07065 -4.3508,4.07817 -8.2053,0.16101 -4.6526,-4.72826 -8.1466,-6.30854 -13.9484,-6.30854 -4.3027,0 -6.431,0.54378 -11.628,2.97098 -3.1283,1.46108 -5.6828,3.30267 -7.9381,5.72293 -2.3236,2.4935 -3.3885,4.27626 -4.5862,7.67818 -0.8931,2.5368 -1.0214,3.44433 -1.0324,7.30121 -0.01,2.42239 0.2089,5.39532 0.4794,6.60651 0.7275,3.25737 1.5352,6.08973 2.109,7.39603 0.2794,0.6361 0.508,1.34028 0.508,1.56485 0,0.22456 0.1551,0.69508 0.3446,1.04561 0.1896,0.35053 0.9319,1.87604 1.6496,3.39003 0.7177,1.51399 1.7992,3.57852 2.4033,4.58785 0.604,1.00932 1.2143,2.08288 1.356,2.38568 0.2234,0.47728 2.8535,4.27431 3.6864,5.32191 0.1604,0.20186 1.1403,1.44058 2.1774,2.7527 3.7231,4.7105 10.3494,10.2947 14.0505,11.84085 3.3075,1.38172 4.4855,1.6784 6.7789,1.70728 2.2453,0.0283 2.7956,-0.11442 4.831,-1.25269 z m -32.8733,-11.97919 c 0,-0.6155 -0.2349,-1.16346 -0.5506,-1.2846 -0.3028,-0.1162 -0.5505,-0.34216 -0.5505,-0.50214 0,-0.15999 -0.5965,-1.17458 -1.3255,-2.25466 -0.729,-1.08008 -1.4743,-2.2941 -1.6562,-2.69783 -0.1819,-0.40374 -0.6618,-1.28197 -1.0666,-1.95165 -0.4047,-0.66967 -0.6248,-1.39713 -0.4892,-1.61657 0.1473,-0.23838 0.076,-0.29357 -0.1772,-0.13711 -0.2511,0.15518 -0.4237,0.0287 -0.4237,-0.31032 0,-0.31471 -0.1844,-0.5722 -0.4098,-0.5722 -0.2254,0 -0.3303,-0.30448 -0.2329,-0.67661 0.1064,-0.40696 -0.096,-0.84702 -0.5078,-1.1042 -0.3765,-0.23517 -0.6846,-0.72494 -0.6846,-1.08838 0,-0.36343 -0.2425,-0.9814 -0.5389,-1.37324 -0.2964,-0.39185 -0.5441,-1.08407 -0.5506,-1.53826 -0.01,-0.4542 -0.1623,-0.82582 -0.3464,-0.82582 -0.1841,0 -0.4464,-0.66065 -0.5828,-1.46811 -0.1364,-0.80746 -0.4166,-1.46811 -0.6226,-1.46811 -0.2071,0 -0.2802,-0.37581 -0.1635,-0.8407 0.1262,-0.50313 -0.063,-1.29137 -0.4716,-1.96311 -0.3755,-0.61734 -0.7635,-1.93194 -0.8623,-2.92135 -0.099,-0.9894 -0.3602,-2.45956 -0.5809,-3.26703 -0.5157,-1.88641 -0.5191,-8.37162 -0.01,-10.27678 0.2177,-0.80746 0.4794,-2.12876 0.5815,-2.93622 0.1022,-0.80746 0.438,-1.75359 0.7463,-2.10251 0.3083,-0.34892 0.5911,-0.92699 0.6285,-1.2846 0.1052,-1.00637 0.6115,-1.95037 0.9379,-1.74867 0.1618,0.10005 0.2079,-0.14864 0.1022,-0.55265 -0.1056,-0.40401 -0.027,-0.73456 0.1749,-0.73456 0.2019,0 0.4641,-0.28904 0.5827,-0.6423 0.1187,-0.35326 0.4269,-0.96689 0.6851,-1.36361 0.5024,-0.77192 5.6811,-6.06871 5.9335,-6.06871 0.083,0 1.1135,-0.64713 2.2902,-1.43807 1.1766,-0.79094 2.2418,-1.37473 2.3671,-1.29729 0.1253,0.0774 0.5762,-0.18383 1.0021,-0.58058 0.4259,-0.39675 0.9974,-0.72136 1.27,-0.72136 0.2727,0 0.8164,-0.2425 1.2082,-0.53887 0.3919,-0.29638 1.1569,-0.54412 1.7001,-0.55055 0.5432,-0.006 1.098,-0.19021 1.2329,-0.40844 0.1364,-0.22064 0.6484,-0.29557 1.1535,-0.1688 0.5843,0.14665 0.8241,0.0918 0.6724,-0.15377 -0.1437,-0.23253 0.2029,-0.38174 0.8868,-0.38174 0.6175,0 1.1227,-0.13754 1.1227,-0.30564 0,-0.36714 10.1398,-0.32072 10.5086,0.0481 0.1417,0.14165 0.5604,0.25754 0.9305,0.25754 0.37,0 0.6728,0.17629 0.6728,0.39176 0,0.219 0.3101,0.29334 0.7032,0.16858 0.3868,-0.12275 0.8094,-0.0513 0.9392,0.15878 0.1299,0.21008 0.619,0.38196 1.0871,0.38196 0.468,0 1.0566,0.24775 1.3079,0.55054 0.2513,0.3028 0.675,0.55055 0.9416,0.55055 0.2667,0 0.7419,0.36707 1.0562,0.81572 0.3142,0.44864 0.5713,0.66335 0.5713,0.47714 0,-0.18623 0.1982,-0.1404 0.4405,0.10184 0.2422,0.24224 0.546,0.44044 0.6751,0.44044 0.5724,0 1.0866,-2.07397 1.0866,-4.38234 0,-1.95264 -0.1294,-2.56231 -0.5805,-2.73544 -0.3194,-0.12253 -2.8126,-0.22278 -5.5406,-0.22278 -4.4223,0 -5.0752,-0.0821 -6.0234,-0.75727 -0.5849,-0.41649 -1.2295,-0.65467 -1.4324,-0.52928 -0.462,0.28558 -1.9285,-0.70305 -1.5718,-1.0597 0.1439,-0.14396 -0.022,-0.15277 -0.3694,-0.0196 -0.3626,0.13913 -0.6311,0.0693 -0.6311,-0.16412 0,-0.22346 -0.2065,-0.41154 -0.4588,-0.41795 -1.0788,-0.0274 -6.2381,-6.62679 -5.6447,-7.2202 0.1028,-0.10276 -0.1335,-0.53073 -0.5251,-0.95104 -0.3916,-0.4203 -0.7178,-1.10466 -0.725,-1.52079 -0.01,-0.41614 -0.249,-1.16952 -0.5375,-1.67418 -1.0195,-1.78336 -0.3304,-4.40434 1.158,-4.40434 0.2715,0 0.4936,-0.16516 0.4936,-0.36703 0,-0.20186 0.7225,-0.36703 1.6055,-0.36703 0.883,0 2.3077,-0.24774 3.1659,-0.55054 2.0713,-0.7308 3.8683,-0.69435 6.2737,0.12725 1.0914,0.37278 2.1884,0.60756 2.4378,0.52174 0.2494,-0.0858 0.9514,0.19848 1.5599,0.6318 0.6085,0.43332 1.1064,0.69022 1.1064,0.57088 0,-0.39859 2.0024,1.04672 3.3946,2.45018 0.7568,0.7629 1.5134,1.38709 1.6814,1.38709 0.8416,0 1.2322,-1.89114 1.1086,-5.36695 -0.1474,-4.1431 0.1852,-4.90984 2.1301,-4.90984 0.8814,0 1.3692,0.26843 1.9371,1.06599 0.7361,1.03375 0.7591,1.49762 0.7591,15.34177 0,15.08705 0.05,15.54131 1.6161,14.71749 0.4232,-0.22263 0.8521,-0.50394 0.9531,-0.62511 0.1009,-0.12118 0.7616,-0.48621 1.4681,-0.81117 0.7065,-0.32496 1.723,-0.79864 2.2589,-1.05262 0.5359,-0.25398 1.1553,-0.34996 1.3764,-0.21331 0.2211,0.13666 0.402,0.0736 0.402,-0.14022 0,-0.21378 0.321,-0.38869 0.7132,-0.38869 0.3923,0 0.9704,-0.36708 1.2846,-0.81573 0.5077,-0.72485 0.5714,-4.8324 0.5714,-36.87339 0,-35.27353 -0.015,-36.06594 -0.7099,-36.43762 -1.1046,-0.59115 -22.9469,-0.51262 -23.4423,0.0843 -0.2119,0.25532 -0.4274,2.16637 -0.4788,4.24677 -0.082,3.3314 -0.1828,3.84513 -0.8424,4.30714 -0.6344,0.4444 -5.295,0.52376 -30.4883,0.51918 -22.873,-0.004 -29.9428,-0.11009 -30.6206,-0.45879 -0.8444,-0.43443 -0.878,-0.59647 -0.8031,-3.87809 0.06,-2.6088 -0.06,-3.63625 -0.5035,-4.31258 l -0.5818,-0.88786 h -11.296 c -8.2964,0 -11.4129,0.11696 -11.7364,0.44044 -0.6569,0.65691 -0.6388,137.52041 0.018,138.40966 0.4236,0.5732 2.8108,0.62788 31.1057,0.71245 16.8557,0.0504 30.8533,0.0326 31.1056,-0.0394 0.2523,-0.0721 0.4588,-0.61403 0.4588,-1.20436 z m -12.5864,-33.06921 c -0.088,-0.45655 -0.163,-0.16944 -0.1671,0.63802 0,0.80746 0.068,1.181 0.1597,0.83009 0.092,-0.35091 0.095,-1.01156 0.01,-1.46811 z m -0.01,-5.3192 c -0.093,-0.35711 -0.1753,-0.1538 -0.1828,0.4518 -0.01,0.6056 0.069,0.89777 0.1692,0.64928 0.1006,-0.24849 0.1067,-0.74397 0.014,-1.10108 z m 43.0057,-34.03355 c 0.4234,-0.41686 0.3982,-0.72721 -0.1624,-1.99778 -0.365,-0.82735 -0.797,-1.50426 -0.96,-1.50426 -0.163,0 -0.2964,-0.23471 -0.2964,-0.52157 0,-0.65525 -2.8833,-3.56307 -4.0685,-4.10316 -2.9608,-1.34914 -6.5991,-1.96471 -8.6178,-1.45805 -0.7292,0.183 -0.8938,0.45562 -0.8938,1.48026 0,0.69077 0.1608,1.35529 0.3573,1.47671 0.1964,0.12142 0.6276,0.79078 0.9583,1.48747 0.6717,1.41563 2.9064,3.73315 3.9054,4.05023 0.3583,0.11372 0.6515,0.34273 0.6515,0.50891 0,0.16618 0.5368,0.38966 1.1928,0.49663 0.6561,0.10697 1.7709,0.36372 2.4775,0.57055 1.5857,0.46422 4.78,0.17972 5.4561,-0.48594 z m -20.9876,-11.64548 c -0.1172,-0.29279 -0.2041,-0.20582 -0.2218,0.22175 -0.016,0.38691 0.071,0.60368 0.1928,0.48172 0.122,-0.12196 0.135,-0.43852 0.029,-0.70347 z m 26.8099,-7.12646 c -0.1219,-0.12196 -0.4385,-0.13499 -0.7034,-0.029 -0.2928,0.11717 -0.2059,0.20414 0.2217,0.22175 0.3869,0.0159 0.6037,-0.0708 0.4817,-0.19277 z m -17.2304,-49.87757 c 0.057,-4.0373 0.013,-7.71217 -0.099,-8.16637 -0.2019,-0.82236 -0.2337,-0.82581 -7.5975,-0.82581 -4.0671,0 -7.2857,-0.10906 -7.1524,-0.24235 0.1333,-0.1333 -0.087,-0.47299 -0.4894,-0.75487 -0.7741,-0.54223 -1.018,-2.45278 -0.3647,-2.85658 0.7192,-0.44449 0.2381,-3.95468 -0.7797,-5.68893 -0.6832,-1.16407 -1.1703,-2.4008 -1.0841,-2.75271 0.049,-0.20186 -0.024,-0.25308 -0.1634,-0.11382 -0.3164,0.31646 -1.2618,-0.51648 -1.0267,-0.9046 0.095,-0.1564 0.036,-0.25145 -0.1303,-0.21122 -0.4589,0.11094 -2.3212,-0.86382 -2.3212,-1.21495 0,-0.16947 -0.3114,-0.30812 -0.6921,-0.30812 -0.3807,0 -1.1652,-0.24673 -1.7434,-0.54828 -1.3491,-0.70364 -4.0566,-0.70364 -5.4058,0 -0.5782,0.30155 -1.2086,0.54828 -1.4008,0.54828 -0.3512,0 -2.5386,1.54145 -3.6459,2.5692 -0.3262,0.3028 -1.0446,1.27495 -1.5963,2.16033 -0.9197,1.47598 -1.0024,1.91308 -0.9945,5.25806 0.013,5.31755 0.4402,5.06056 -8.4203,5.06056 -6.2449,0 -7.2498,0.0784 -7.4425,0.58056 -0.3058,0.79676 -0.2831,15.38598 0.024,15.69344 0.1359,0.13591 11.9863,0.20473 26.3343,0.15292 l 26.0871,-0.0942 z m -27.7228,-30.15585 c -0.2524,-0.10182 -0.6653,-0.10182 -0.9176,0 -0.2523,0.10182 -0.046,0.18512 0.4588,0.18512 0.5046,0 0.7111,-0.0833 0.4588,-0.18512 z m 3.6702,0 c -0.2523,-0.10182 -0.6652,-0.10182 -0.9175,0 -0.2524,0.10182 -0.046,0.18512 0.4588,0.18512 0.5046,0 0.7111,-0.0833 0.4587,-0.18512 z"
       style="opacity:1;fill:#7cc6cc;fill-opacity:0.3137255;fill-rule:nonzero;stroke:none;stroke-width:2.77438474;stroke-linecap:square;stroke-linejoin:miter;stroke-miterlimit:4;stroke-dasharray:none;stroke-dashoffset:0;stroke-opacity:1;paint-order:normal" /><path
       transform="scale(0.74009375)"
       inkscape:connector-curvature="0"
       id="path4833"
       d="m 1452.4633,658.12478 c -9.1063,-3.24816 -20.9446,-16.91934 -26.7325,-30.8715 -2.3933,-5.76909 -4.1205,-14.71833 -3.5912,-18.60748 1.4695,-10.7992 11.193,-19.55387 22.7356,-20.47041 6.6332,-0.52671 10.0107,0.67072 15.049,5.33532 2.3842,2.20732 4.6673,4.0133 5.0736,4.0133 0.4062,0 2.5642,-1.79663 4.7955,-3.99252 2.8023,-2.75791 5.0404,-4.25867 7.2378,-4.85323 4.9201,-1.33127 11.708,-0.48458 16.9839,2.11849 14.8577,7.33059 17.6063,21.68398 7.899,41.24909 -5.3238,10.7302 -14.5947,21.08589 -22.3436,24.95806 -5.1584,2.57769 -7.9018,2.72805 -11.7864,0.64599 l -2.8637,-1.53483 -2.7308,1.53483 c -3.1341,1.76142 -5.7599,1.88963 -9.7262,0.47489 z"
       style="opacity:1;fill:#7cc6cc;fill-opacity:0.3137255;fill-rule:nonzero;stroke:none;stroke-width:5.54876947;stroke-linecap:square;stroke-linejoin:miter;stroke-miterlimit:4;stroke-dasharray:none;stroke-dashoffset:0;stroke-opacity:1;paint-order:normal" /><path
       inkscape:connector-curvature="0"
       id="path4843"
       d="m 1029.2598,404.02459 c -4.5196,-0.13418 -5.0155,-0.1966 -5.3648,-0.67513 -0.5299,-0.72583 -0.4821,-1.68451 0.1137,-2.28036 0.7127,-0.71269 6.4703,-0.85944 33.72,-0.85944 h 22.4509 l 0.5943,0.80391 c 0.7887,1.06678 0.7495,1.66222 -0.1675,2.54071 l -0.7618,0.72991 -22.8025,-0.0559 c -12.5414,-0.0307 -25.0435,-0.1224 -27.7823,-0.20372 z"
       style="opacity:1;fill:#7cc6cc;fill-opacity:0.31372549;fill-rule:nonzero;stroke:none;stroke-width:2.05330491;stroke-linecap:square;stroke-linejoin:miter;stroke-miterlimit:4;stroke-dasharray:none;stroke-dashoffset:0;stroke-opacity:1;paint-order:normal" /><path
       inkscape:connector-curvature="0"
       id="path4837"
       d="m 1024.4637,424.52669 c -1.4222,-0.62639 -1.4172,-2.86341 0.01,-3.40507 0.4294,-0.16326 6.1652,-0.26769 14.7024,-0.26769 16.1001,0 15.8518,-0.0314 15.8391,2.00031 -0.01,1.03397 -0.089,1.16137 -1.0397,1.59886 -0.9428,0.43396 -2.2374,0.47344 -14.865,0.4533 -10.8082,-0.0173 -14.0098,-0.10025 -14.6443,-0.37971 z"
       style="opacity:1;fill:#7cc6cc;fill-opacity:0.3137255;fill-rule:nonzero;stroke:none;stroke-width:2.05330491;stroke-linecap:square;stroke-linejoin:miter;stroke-miterlimit:4;stroke-dasharray:none;stroke-dashoffset:0;stroke-opacity:1;paint-order:normal" /><path
       inkscape:connector-curvature="0"
       id="path4839"
       d="m 1023.5882,444.20152 c -0.2214,-0.58673 -0.231,-1.06157 -0.033,-1.62982 l 0.2795,-0.80187 h 8.4704 8.4704 l 0.3076,0.81491 c 0.229,0.60678 0.229,1.02303 0,1.62981 l -0.3076,0.8149 h -8.4374 -8.4374 z"
       style="opacity:1;fill:#7cc6cc;fill-opacity:0.3137255;fill-rule:nonzero;stroke:none;stroke-width:2.05330491;stroke-linecap:square;stroke-linejoin:miter;stroke-miterlimit:4;stroke-dasharray:none;stroke-dashoffset:0;stroke-opacity:1;paint-order:normal" /></g></svg>