<?xml version="1.0" encoding="UTF-8" standalone="no"?>
<!-- Created with Inkscape (http://www.inkscape.org/) -->

<svg
   xmlns:dc="http://purl.org/dc/elements/1.1/"
   xmlns:cc="http://creativecommons.org/ns#"
   xmlns:rdf="http://www.w3.org/1999/02/22-rdf-syntax-ns#"
   xmlns:svg="http://www.w3.org/2000/svg"
   xmlns="http://www.w3.org/2000/svg"
   xmlns:sodipodi="http://sodipodi.sourceforge.net/DTD/sodipodi-0.dtd"
   xmlns:inkscape="http://www.inkscape.org/namespaces/inkscape"
   width="203.2mm"
   height="400mm"
   viewBox="0 0 203.19999 400.00002"
   version="1.1"
   id="svg4604"
   inkscape:version="0.92.1 unknown"
   sodipodi:docname="back-sobre-small.svg">
  <defs
     id="defs4598" />
  <sodipodi:namedview
     id="base"
     pagecolor="#ffffff"
     bordercolor="#666666"
     borderopacity="1.0"
     inkscape:pageopacity="0.0"
     inkscape:pageshadow="2"
     inkscape:zoom="0.14303473"
     inkscape:cx="1360.704"
     inkscape:cy="954.78964"
     inkscape:document-units="mm"
     inkscape:current-layer="g41"
     showgrid="false"
     fit-margin-top="0"
     fit-margin-left="0"
     fit-margin-right="0"
     fit-margin-bottom="0"
     inkscape:window-width="1366"
     inkscape:window-height="713"
     inkscape:window-x="0"
     inkscape:window-y="0"
     inkscape:window-maximized="1" />
  <metadata
     id="metadata4601">
    <rdf:RDF>
      <cc:Work
         rdf:about="">
        <dc:format>image/svg+xml</dc:format>
        <dc:type
           rdf:resource="http://purl.org/dc/dcmitype/StillImage" />
        <dc:title></dc:title>
      </cc:Work>
    </rdf:RDF>
  </metadata>
  <g
     inkscape:label="Camada 1"
     inkscape:groupmode="layer"
     id="layer1"
     transform="translate(-2.6575105,548.23157)">
    <g
       id="g41">
      <g
         id="g4499">
        <rect
           y="-548.23157"
           x="2.6575105"
           height="400"
           width="203.2"
           id="rect4485"
           style="opacity:1;fill:#5bc6d0;fill-opacity:1;fill-rule:nonzero;stroke:none;stroke-width:0.80341637;stroke-linecap:square;stroke-linejoin:miter;stroke-miterlimit:4;stroke-dasharray:none;stroke-dashoffset:0;stroke-opacity:1;paint-order:normal" />
        <path
           style="opacity:1;fill:#001719;fill-opacity:1;fill-rule:nonzero;stroke:none;stroke-width:2;stroke-linecap:square;stroke-linejoin:miter;stroke-miterlimit:4;stroke-dasharray:none;stroke-dashoffset:0;stroke-opacity:1;paint-order:normal"
           d="m 131.2418,-315.55938 c 0.007,0 0.0151,0.009 0.0222,0.0114 0,-8e-4 0.005,-0.008 0.006,-0.008 z m 0.0222,0.0114 c -0.0874,0.0443 -0.55912,1.38064 -1.06402,3.01738 -0.51324,1.66449 -1.78684,5.75056 -2.83033,9.07955 -1.62195,5.17507 -2.43692,7.88773 -4.64984,15.47761 -0.18024,0.61828 -0.44992,1.12448 -0.59894,1.12448 -0.51083,0 -3.12158,-7.43435 -3.48401,-9.92394 -0.54826,-3.75587 -0.45577,-4.7685 0.6749,-7.42539 0.57063,-1.341 1.03434,-2.92696 1.02421,-3.52536 -0.0111,-0.99331 -0.0664,-0.93757 -0.63717,0.6413 -0.34401,0.95119 -0.95695,2.37625 -1.36166,3.16725 -0.40473,0.79109 -0.8374,2.07463 -0.96223,2.85305 -0.1238,0.77844 -0.34012,1.41542 -0.48006,1.41542 -0.13991,0 -0.85413,-1.43137 -1.58803,-3.18068 -0.73364,-1.74918 -2.07833,-4.4056 -2.98741,-5.903 -0.90969,-1.4974 -1.65365,-2.84888 -1.65365,-3.00292 0,-0.15424 -0.21788,-0.46051 -0.48368,-0.6811 -0.41175,-0.3421 -0.51311,1.85508 -0.68628,14.91641 -0.11274,8.42487 -0.29916,16.1314 -0.41494,17.12505 l -0.21032,1.80661 -1.57356,-1.20148 c -0.86529,-0.66084 -1.75516,-1.20148 -1.97765,-1.20148 -0.22238,0 -0.84532,-0.46074 -1.38494,-1.02371 -0.53943,-0.56289 -2.13585,-1.57133 -3.54758,-2.24172 -1.411792,-0.67052 -3.727612,-2.16048 -5.145942,-3.31039 -2.3437,-1.90016 -6.09206,-4.49172 -6.49573,-4.49172 -0.0896,0 0.0845,0.50521 0.38653,1.12345 0.88704,1.81533 4.01905,5.68925 7.46726,9.23613 1.76585,1.8162 3.994732,4.31354 4.952152,5.55005 1.98583,2.56318 6.77148,9.72208 6.60839,9.88518 -0.0595,0.06 -0.72652,-0.23895 -1.48156,-0.66249 -0.94271,-0.52868 -2.1862,-1.90536 -3.96462,-4.39095 -4.892922,-6.83897 -11.131982,-12.31799 -21.516002,-18.89394 -4.7734,-3.02271 -7.31689,-4.3089 -10.48051,-5.29993 -1.33173,-0.41709 -3.31936,-1.12376 -4.4173,-1.57045 l -1.99626,-0.81183 0.71985,1.01079 c 0.39574,0.5557 1.7656,1.52488 3.04427,2.15491 2.46261,1.21318 6.57389,4.12512 8.87543,6.28592 0.76091,0.71439 4.07537,3.6357 7.36544,6.49211 3.28986,2.85625 5.90235,5.27461 5.8017,5.37331 -0.0987,0.0991 -0.37748,0.02 -0.6201,-0.1757 -0.7865,-0.63499 -8.31636,-3.44071 -11.3497,-4.2292 -2.51971,-0.65509 -3.16897,-0.70929 -4.42711,-0.37052 -2.64856,0.7132 -2.39488,1.54338 1.33273,4.36046 2.36937,1.7904 3.70345,2.89272 10.76523,8.8899 1.55372,1.319 2.28166,2.16695 2.15078,2.50682 -0.26337,0.68639 -0.37468,0.66841 -2.92902,-0.47749 -1.21515,-0.5451 -3.53203,-1.42488 -5.14906,-1.95544 -1.61692,-0.53054 -3.24752,-1.12001 -3.62405,-1.30948 -1.28331,-0.6465 -4.15531,-1.27331 -5.86941,-1.27331 h -1.71154 l 1.36531,1.32086 c 1.99488,1.93059 4.93101,4.06546 10.04641,7.30394 l 4.53046,2.86753 -0.69143,2.26807 -0.69297,2.26705 1.00406,0.83819 c 2.90126,2.42227 5.05807,4.89107 6.74016,7.71478 2.46814,4.14306 5.79051,8.31588 7.35822,9.24078 0.69255,0.40876 1.25934,0.8664 1.25934,1.01802 0,0.46468 3.646912,3.15368 4.602322,3.39359 0.51575,0.12938 1.47907,0.98567 2.26031,2.00815 1.76895,2.3166 3.94724,5.75985 3.6432,5.75985 -0.13068,0 -1.26357,-0.6805 -2.5182,-1.51308 -1.25449,-0.83259 -3.01331,-1.92508 -3.90829,-2.42724 -0.89532,-0.50231 -2.14109,-1.39236 -2.76728,-1.97869 -1.472772,-1.37841 -6.447202,-5.12987 -7.938002,-5.9862 -5.13765,-2.9512 -11.94916,-5.3883 -15.05902,-5.3883 -1.16663,0 -0.79267,0.43423 2.08047,2.4169 1.36607,0.94271 3.07327,2.14634 3.7941,2.67477 2.05306,1.50601 6.72369,4.69507 9.75754,6.66265 3.34081,2.16677 2.73645,2.14937 -3.80442,-0.11421 -4.37393,-1.51377 -4.55525,-1.54699 -6.66057,-1.18959 -2.6539,0.45063 -2.57616,0.58972 1.76009,3.14141 1.74392,1.0261 5.50577,3.2376 8.35917,4.91391 2.85345,1.67648 6.27771,3.78188 7.609362,4.67879 2.82483,1.90268 7.29515,5.982 7.52668,6.86883 0.15365,0.58707 -0.005,0.58701 -3.6835,0.01 -2.11386,-0.33397 -5.546702,-0.93046 -7.628472,-1.32549 -3.77549,-0.71682 -6.56883,-0.90461 -7.59542,-0.51057 -0.45907,0.17598 -0.42391,0.31345 0.23048,0.89142 0.4218,0.3764 0.57867,0.58383 0.34108,0.46302 -0.83349,-0.42351 -0.42249,0.47273 0.51882,1.13275 0.52329,0.36677 4.37523,2.43955 8.56022,4.60644 l 7.609342,3.93929 -1.71823,0.10852 c -0.94515,0.0599 -2.40943,-0.0649 -3.25409,-0.27802 -0.92299,-0.2323 -1.61763,-0.25994 -1.740452,-0.0687 -0.18243,0.28419 -1.68664,0.10635 -6.94428,-0.82217 -1.18695,-0.2097 -1.19597,-0.20256 -0.57981,0.47801 0.34388,0.38007 1.08357,0.88115 1.64333,1.11311 0.93929,0.3891 0.97149,0.4569 0.40772,0.87591 -0.48223,0.3586 -0.532,0.58633 -0.23101,1.08004 0.49575,0.81448 3.5152,2.32416 6.415652,3.20859 1.26478,0.38559 2.97688,1.01586 3.80441,1.40043 l 1.50532,0.6997 -1.3844,-0.19741 c -2.16615,-0.30851 -10.202472,-0.58026 -10.202472,-0.34468 0,0.22166 0.17156,0.45412 1.4609,1.97508 0.44931,0.53032 3.90091,2.5129 8.050132,4.624 7.88871,4.01297 8.50681,4.4112 7.85844,5.05964 -0.32064,0.32055 -1.62454,0.2755 -5.80739,-0.19999 -2.96648,-0.33725 -5.46695,-0.53381 -5.56763,-0.43821 -0.30786,0.30771 1.5403,1.3189 3.5967,1.96784 2.12958,0.67221 2.22199,0.87961 1.095,2.46238 -0.63222,0.88759 -0.645,1.0433 -0.1638,1.97404 0.50982,0.9858 0.56076,1.00146 2.1332,0.66611 1.01883,-0.21767 1.69037,-0.22284 1.82727,-0.0145 0.11901,0.18151 0.97922,0.43191 1.91047,0.55655 2.75315,0.368 4.35893,0.90206 4.35893,1.44952 0,0.27797 -0.15594,0.5054 -0.34623,0.5054 -0.63294,0 -0.35769,0.71529 0.59066,1.53066 l 0.93742,0.80615 -2.23399,0.25321 c -1.22862,0.13944 -2.77878,0.47863 -3.44424,0.75345 l -1.21078,0.49919 0.86508,0.66508 c 0.4758,0.36576 1.02849,0.67282 1.22782,0.67282 0.19937,0 0.53748,0.18307 0.7519,0.39739 0.28895,0.28891 0.12784,0.60966 -0.6222,1.24127 -0.57846,0.48692 -1.01232,1.19208 -1.01232,1.64693 0,0.63394 -0.24405,0.84164 -1.20044,1.02113 -0.66011,0.12388 -1.65769,0.6103 -2.21745,1.08107 -0.71519,0.60171 -1.06656,0.72603 -1.18131,0.41858 -0.22222,-0.59357 -1.22314,0.65028 -1.49294,1.8557 -0.15806,0.70186 -0.36253,0.86795 -0.89709,0.72812 -0.62625,-0.16421 -0.68038,-0.40946 -0.55555,-2.61224 0.12385,-2.1854 0.0936,-2.32886 -0.29403,-1.42007 -0.2376,0.55602 -0.43688,1.19986 -0.44699,1.43092 -0.009,0.23101 -0.40589,1.11697 -0.88109,1.96887 -0.56478,1.01172 -0.86455,2.08875 -0.86455,3.10575 0,1.40586 -0.1374,1.66802 -1.417482,2.70061 -0.77962,0.62913 -1.92011,1.56449 -2.53526,2.07894 -1.04418,0.87376 -1.15639,0.89734 -1.69601,0.35812 -0.61915,-0.61907 -0.63288,-0.50991 -0.72347,4.78318 0,0.0578 -0.005,0.11139 -0.007,0.16743 h 83.310682 c -0.0683,-0.79869 -1.22743,-2.61845 -1.75443,-2.61845 -0.20227,-2e-5 -0.80536,-0.45938 -1.33995,-1.01751 -0.82651,-0.8585 -0.9375,-1.2003 -0.74621,-2.2226 0.12481,-0.66453 0.3828,-1.26056 0.57309,-1.32395 0.50144,-0.1674 -0.32716,-2.35593 -0.89194,-2.35593 -0.25066,0 -0.51032,0.16911 -0.58084,0.37569 -0.0689,0.20651 -1.18633,-0.64993 -2.48306,-1.90273 -1.29667,-1.2527 -2.50113,-2.2779 -2.67528,-2.2779 -0.17013,0 -0.22331,-0.5839 -0.10956,-1.29759 0.17568,-1.10064 0.0452,-1.50109 -0.86093,-2.64118 -0.80238,-1.01026 -1.06804,-1.18264 -1.06815,-0.69195 -1.9e-4,0.54806 -0.2953,0.66527 -1.83864,0.73277 l -1.83865,0.0786 -0.46302,-1.80816 c -0.30263,-1.18279 -0.86296,-2.20894 -1.62007,-2.96674 -0.63645,-0.63717 -1.15702,-1.22209 -1.15702,-1.2976 0,-0.41257 1.05495,-0.0497 1.35599,0.46612 0.19328,0.33303 0.35277,0.43001 0.36277,0.21549 0.0257,-0.94888 -1.01804,-1.22726 -5.61001,-1.49706 -1.16129,-0.0679 1.74797,-3.25003 4.04214,-4.42092 0.96317,-0.49157 2.21711,-0.99164 2.78691,-1.11105 0.65127,-0.13662 1.08323,-0.46805 1.16375,-0.89451 0.14274,-0.75512 2.29798,-2.82103 3.26749,-3.13159 0.3433,-0.11004 0.56248,-0.37839 0.49197,-0.59635 -0.24844,-0.74511 5.36271,-2.6906 9.17308,-3.18068 0.90334,-0.1162 1.64332,-0.3371 1.64332,-0.49093 0,-0.27013 -1.75569,-0.81026 -4.04473,-1.24437 -0.7279,-0.13792 -1.04386,-0.36661 -0.92708,-0.67024 0.11417,-0.2977 -0.28268,-0.61165 -1.11929,-0.8878 -1.46214,-0.48244 -2.75045,-0.52596 -6.20996,-0.20723 -1.9836,0.18263 -2.28867,0.14591 -1.76011,-0.21239 3.2993,-2.23752 10.5664,-6.6853 12.50466,-7.65328 1.33154,-0.66511 2.73193,-1.45515 3.11248,-1.75596 0.6409,-0.5067 0.47633,-0.53349 -2.24793,-0.36174 -1.61684,0.10189 -3.54237,0.32641 -4.27932,0.49816 -1.99477,0.4649 -1.08082,-0.17454 1.68053,-1.17615 1.32165,-0.47937 2.79389,-1.26235 3.2711,-1.73995 l 0.86764,-0.86868 h -0.93017 c -1.96167,0 -8.10389,0.79389 -9.5808,1.23817 -0.8506,0.25611 -1.59713,0.42025 -1.64745,0.36483 -0.1216,-0.12157 4.45614,-3.01898 6.02443,-3.8132 0.61304,-0.31022 1.29201,-0.89696 1.50947,-1.30328 0.35436,-0.66113 0.31899,-0.71777 -0.33538,-0.54673 -1.39576,0.36509 -0.71586,-0.27952 2.03295,-1.92702 1.5203,-0.9109 2.9351,-1.97593 3.14349,-2.36575 0.35256,-0.6582 0.30281,-0.69355 -0.68884,-0.50126 -0.58743,0.11386 -1.57401,0.29387 -2.19213,0.39998 l -1.12448,0.19379 0.80563,-0.64803 c 0.44299,-0.35601 1.79808,-1.15214 3.0112,-1.76837 2.18929,-1.11209 3.96565,-2.76632 3.96565,-3.69434 0,-0.84409 -1.8951,-0.37328 -10.31928,2.56883 -5.70354,1.99187 -8.61774,3.39524 -10.34663,4.98213 -2.60639,2.3923 1.80358,-3.64216 4.63899,-6.34794 3.38087,-3.22631 8.85309,-7.39399 15.13549,-11.52952 5.19816,-3.42174 6.81577,-4.77291 6.31642,-5.27255 -0.20013,-0.2 -5.57448,1.20625 -8.11734,2.1239 -1.27764,0.46111 -3.64577,1.56095 -5.26272,2.44326 -2.96598,1.61853 -4.84872,2.37872 -4.82864,1.94562 0.0164,-0.28337 1.851,-1.64565 6.42337,-4.76922 5.5327,-3.77959 9.74598,-6.96847 12.09796,-9.15655 1.21013,-1.12571 2.36279,-2.04638 2.56212,-2.04638 0.39868,0 1.25032,-1.63342 0.98859,-1.89498 -0.0896,-0.09 -1.16496,-5.3e-4 -2.39006,0.19534 -2.54585,0.41003 -8.81155,3.40489 -12.75477,6.09627 -7.05281,4.81367 -11.39142,7.67682 -12.47418,8.23205 -1.36003,0.6976 -1.34929,0.68048 1.51673,-2.38021 1.04539,-1.11637 2.33167,-2.8808 2.85718,-3.92018 1.36284,-2.69358 4.48236,-5.44994 16.75194,-14.80271 1.7468,-1.33158 4.06696,-3.19845 5.15628,-4.14962 1.08918,-0.9511 3.19145,-2.7338 4.67156,-3.96151 2.61644,-2.17 3.05358,-3.18695 0.78134,-1.81695 -1.52744,0.92094 -3.98669,1.38166 -7.64604,1.43196 -2.75005,0.038 -3.49178,0.20434 -7.26366,1.63814 -2.31039,0.87819 -5.36826,2.11919 -6.79492,2.75797 l -2.59363,1.16169 1.55649,-1.42317 c 0.85614,-0.78322 2.95688,-2.47044 4.66897,-3.74964 2.77196,-2.07107 5.07759,-3.66802 15.5639,-10.77609 5.63973,-3.82286 10.86316,-7.68173 11.04739,-8.16074 0.2277,-0.59351 -0.11623,-0.50343 -4.38113,1.14876 -1.66052,0.64317 -3.21709,1.16427 -3.45871,1.16427 -0.42707,-0.01 -2.68989,1.05036 -8.39536,3.91553 -4.21569,2.11709 -11.36701,6.49811 -14.13505,8.65838 l -1.33686,1.04284 0.53226,-1.01234 c 0.29308,-0.5568 1.36226,-2.19046 2.37556,-3.63028 1.01328,-1.43977 3.03467,-4.31857 4.49223,-6.39805 2.05428,-2.93098 3.21643,-4.20869 5.16919,-5.68338 1.38562,-1.0463 3.22538,-2.58599 4.0902,-3.4215 1.52381,-1.4734 1.66044,-1.52869 4.51548,-1.81229 11.75692,-1.16779 12.1326,-1.22991 10.69549,-1.7663 -0.4586,-0.17115 -3.01281,-0.39347 -5.67616,-0.49454 -8.01555,-0.30437 -11.80997,0.56331 -17.81233,4.0721 -2.57609,1.50589 -1.65021,0.48933 1.45934,-1.60248 1.38498,-0.93159 3.40891,-2.44633 4.49791,-3.36569 2.02369,-1.7087 3.38976,-2.2671 7.45382,-3.04633 1.19351,-0.22892 2.24311,-0.53501 2.3337,-0.68057 0.09,-0.14559 -1.04235,-0.54543 -2.51613,-0.88832 -2.56741,-0.59766 -5.30405,-0.79078 -7.52203,-0.53124 -0.57073,0.0665 -2.82551,0.1049 -5.01054,0.0847 l -3.97288,-0.0372 1.74874,-1.17771 c 2.40844,-1.62189 7.54903,-4.01061 8.6315,-4.01061 0.50638,0 0.80034,-0.14929 0.67852,-0.34571 -0.3616,-0.58523 -1.55691,-0.39508 -5.69889,0.9064 -7.30056,2.2942 -13.50975,5.64393 -20.55894,11.09132 -1.43068,1.10559 -3.68816,2.83128 -5.01674,3.8349 l -2.41641,1.8247 1.03767,-2.51665 c 1.17316,-2.84575 5.31672,-10.87709 6.77479,-13.13098 0.53056,-0.8201 2.17043,-3.15664 3.64421,-5.19244 3.55362,-4.90877 5.21668,-7.5396 4.76663,-7.5396 -0.20246,0 -1.13599,0.38948 -2.07428,0.86507 -0.93848,0.47549 -1.9195,0.86454 -2.18126,0.86454 -0.26138,0 -1.44573,0.48489 -2.63189,1.07746 -2.71004,1.3543 -8.2346,6.84444 -12.23129,12.15481 -2.13944,2.84292 -2.94346,3.67524 -3.4096,3.52743 -0.33523,-0.10641 -1.09853,0.0594 -1.69654,0.36897 -0.59822,0.30883 -1.17112,0.47797 -1.27383,0.37517 -0.10269,-0.10248 0.20552,-2.64306 0.68471,-5.64565 0.47921,-3.00269 0.82058,-5.51355 0.76015,-5.58105 -0.0609,-0.067 -0.91924,0.63371 -1.90788,1.55649 -1.56639,1.46231 -4.28916,5.27533 -7.84138,10.98228 l -1.02939,1.65468 -0.21137,-1.05937 c -0.11579,-0.58269 -0.31496,-2.06722 -0.4408,-3.2985 -0.14499,-1.41796 -0.40497,-2.30652 -0.709,-2.42311 -0.38762,-0.1488 -0.43591,-0.89838 -0.25271,-3.91656 0.25956,-4.27528 -0.19227,-8.36264 -1.44849,-13.09842 -0.79205,-2.98555 -1.69886,-5.53843 -2.00244,-5.65599 z"
           id="rect4488"
           inkscape:connector-curvature="0"
           sodipodi:nodetypes="ccccccccsccccccsccscccccscccsccccccccccccccccccccccccscccccccccsccsccccscccccccccccccccccccccccccccccscccccccccccssccccccsccscccccccccsccccccccccsccscccccccscccccccccsccccccccscccscccccccccccssccscccccccscccccccccscccccccccccccccccccccccccccccccscccccccsscscccccccccccccccc" />
      </g>
    </g>
  </g>
</svg>
