<?xml version="1.0" encoding="UTF-8" standalone="no"?>
<!-- Created with Inkscape (http://www.inkscape.org/) -->

<svg
   xmlns:dc="http://purl.org/dc/elements/1.1/"
   xmlns:cc="http://creativecommons.org/ns#"
   xmlns:rdf="http://www.w3.org/1999/02/22-rdf-syntax-ns#"
   xmlns:svg="http://www.w3.org/2000/svg"
   xmlns="http://www.w3.org/2000/svg"
   xmlns:sodipodi="http://sodipodi.sourceforge.net/DTD/sodipodi-0.dtd"
   xmlns:inkscape="http://www.inkscape.org/namespaces/inkscape"
   width="959.99445mm"
   height="541.29498mm"
   viewBox="0 0 959.99444 541.295"
   version="1.1"
   id="svg4604"
   inkscape:version="0.92.1 unknown"
   sodipodi:docname="section-1.svg">
  <defs
     id="defs4598" />
  <sodipodi:namedview
     id="base"
     pagecolor="#ffffff"
     bordercolor="#666666"
     borderopacity="1.0"
     inkscape:pageopacity="0.0"
     inkscape:pageshadow="2"
     inkscape:zoom="0.13749342"
     inkscape:cx="1969.8506"
     inkscape:cy="1107.1632"
     inkscape:document-units="mm"
     inkscape:current-layer="g41"
     showgrid="false"
     fit-margin-top="0"
     fit-margin-left="0"
     fit-margin-right="0"
     fit-margin-bottom="0"
     inkscape:window-width="1366"
     inkscape:window-height="713"
     inkscape:window-x="0"
     inkscape:window-y="0"
     inkscape:window-maximized="1" />
  <metadata
     id="metadata4601">
    <rdf:RDF>
      <cc:Work
         rdf:about="">
        <dc:format>image/svg+xml</dc:format>
        <dc:type
           rdf:resource="http://purl.org/dc/dcmitype/StillImage" />
        <dc:title />
      </cc:Work>
    </rdf:RDF>
  </metadata>
  <g
     inkscape:label="Camada 1"
     inkscape:groupmode="layer"
     id="layer1"
     transform="translate(356.02606,620.82163)">
    <g
       id="g41">
      <path
         id="rect4487-6"
         d="m -356.02601,-620.82163 v 500.00051 h 5.935 c 0.015,-1.1838 0.2741,-2.28129 0.7674,-2.88049 0.3987,-0.48401 0.4987,-0.70141 0.2222,-0.48311 -0.4764,0.37611 -0.4837,0.36611 -0.1395,-0.18661 0.1998,-0.3208 0.4159,-0.5307 0.4801,-0.46659 0.2074,0.20749 1.3732,-1.57081 1.3027,-1.98699 -0.038,-0.22173 0.01,-0.40252 0.098,-0.40252 0.3854,0 1.2539,-1.02139 1.0992,-1.29248 -0.093,-0.16262 -0.074,-0.2104 0.041,-0.10642 0.3215,0.29041 1.2394,-0.30178 1.031,-0.66508 -0.1002,-0.1746 -0.085,-0.22932 0.034,-0.12142 0.2785,0.2522 0.969,-0.31089 0.772,-0.62939 -0.082,-0.1328 0.01,-0.2086 0.201,-0.16851 0.1928,0.04 0.3206,-0.076 0.2843,-0.25789 -0.036,-0.18201 0.083,-0.30091 0.2646,-0.26461 0.1819,0.036 0.2983,-0.092 0.2583,-0.2847 -0.04,-0.19259 0.042,-0.279 0.183,-0.19219 0.3592,0.22209 4.3008,-3.2702 4.085,-3.6195 -0.1005,-0.16251 -0.053,-0.2087 0.1111,-0.10739 0.2703,0.16698 0.7078,-0.25451 0.7167,-0.69091 0,-0.10919 0.087,-0.16859 0.1876,-0.13232 0.3205,0.11552 2.0517,-1.72587 1.8816,-2.00088 -0.09,-0.1451 -0.039,-0.18751 0.11159,-0.094 0.35181,0.21751 1.71491,-0.84249 1.51001,-1.17409 -0.085,-0.1374 0,-0.21711 0.1839,-0.17722 0.1861,0.04 0.3438,-0.095 0.3504,-0.29868 0.01,-0.20432 0.2184,-0.40241 0.4708,-0.43932 0.2524,-0.037 1.1435,-0.64328 1.9802,-1.34768 1.9599,-1.64999 2.6885,-2.33892 2.1911,-2.07121 -0.2352,0.1266 -0.3069,0.11501 -0.1762,-0.027 0.1213,-0.1325 0.29979,-0.24371 0.39689,-0.24752 0.45641,-0.018 1.60761,-1.00888 1.45621,-1.2537 -0.1004,-0.16258 -0.043,-0.19719 0.139,-0.085 0.399,0.24659 2.4788,-1.3847 2.24589,-1.7617 -0.10519,-0.1701 -0.049,-0.20471 0.14261,-0.086 0.3959,0.24468 1.1426,-0.3402 0.91159,-0.71411 -0.098,-0.1582 -0.043,-0.1964 0.12971,-0.09 0.4116,0.2545 1.4271,-0.32499 1.2035,-0.68678 -0.1015,-0.16431 -0.061,-0.21813 0.093,-0.1229 0.2968,0.18349 2.3577,-1.33842 2.2661,-1.67331 -0.031,-0.1121 0.14789,-0.18812 0.3968,-0.16901 0.249,0.0191 0.42299,-0.1138 0.3866,-0.2956 -0.036,-0.182 0.023,-0.31689 0.13229,-0.29969 0.55471,0.088 0.8708,-0.064 0.70221,-0.33689 -0.1043,-0.16873 -0.074,-0.23421 0.068,-0.14632 0.14151,0.087 0.60631,-0.073 1.03301,-0.35711 0.4266,-0.28397 1.1628,-0.76559 1.6355,-1.07018 0.4727,-0.30441 0.8051,-0.6413 0.739,-0.7483 -0.066,-0.10721 0.047,-0.19481 0.25059,-0.19481 0.4809,0 2.24521,-1.20751 2.1022,-1.4387 -0.06,-0.098 0.098,-0.16089 0.35091,-0.1411 0.2531,0.0201 0.4353,-0.098 0.4046,-0.263 -0.031,-0.1647 0.148,-0.28379 0.39689,-0.26461 0.24901,0.019 0.42431,-0.10948 0.3897,-0.2862 -0.039,-0.19798 0.1046,-0.25688 0.3741,-0.15348 0.25981,0.10009 0.37041,0.06 0.27281,-0.098 -0.09,-0.146 -0.02,-0.27871 0.1551,-0.29462 1.10879,-0.10099 3.6417,-1.23369 4.00799,-1.79257 0.23111,-0.35272 1.38211,-1.32731 2.55751,-2.1658 3.29329,-2.34921 3.5101,-2.50471 5.2291,-3.74193 0.8856,-0.63738 1.5349,-1.28079 1.4428,-1.42988 -0.092,-0.14931 -0.039,-0.19162 0.1189,-0.094 0.36,0.22251 2.7643,-1.373 2.56209,-1.70011 -0.082,-0.13258 0.01,-0.18388 0.19581,-0.1143 0.18949,0.07 0.6012,-0.0209 0.9147,-0.20148 0.31349,-0.18042 1.17329,-0.6726 1.9105,-1.09349 0.7372,-0.42101 1.2656,-0.8858 1.1746,-1.03302 -0.095,-0.1529 -0.033,-0.18618 0.1421,-0.078 0.16899,0.10451 1.3482,-0.3385 2.6205,-0.9844 1.27229,-0.64591 2.9684,-1.44759 3.76879,-1.78139 0.8003,-0.33361 2.5267,-1.10731 3.83641,-1.71971 1.3097,-0.61249 3.20049,-1.38179 4.2018,-1.709 1.00139,-0.32718 2.7873,-1.0336 3.96879,-1.57041 1.1815,-0.53679 3.53911,-1.43888 5.23951,-2.00459 1.70029,-0.5656 3.03339,-1.1226 2.9626,-1.23708 -0.071,-0.11462 0.027,-0.14902 0.216,-0.077 0.1894,0.072 1.7139,-0.3555 3.38739,-0.95139 1.67351,-0.59571 3.24961,-1.1462 3.50261,-1.22312 0.25299,-0.077 0.3835,-0.26397 0.2899,-0.41547 -0.1014,-0.16412 -0.041,-0.19572 0.14879,-0.078 0.42171,0.26059 3.7541,-0.92292 3.5461,-1.25942 -0.091,-0.14758 -0.026,-0.1773 0.15091,-0.068 0.17149,0.10599 1.23159,-0.1111 2.35589,-0.4826 4.023,-1.32969 11.4232,-2.25898 12.2876,-1.5431 0.213,0.1764 0.7543,0.2054 1.4516,0.078 0.7436,-0.13621 1.09411,-0.1106 1.0583,0.077 -0.029,0.15452 0.12541,0.28641 0.34371,0.293 0.21829,0.0101 0.41169,0.16071 0.42989,0.34261 0.018,0.1819 0.047,0.4568 0.066,0.61079 0.018,0.15412 0.1441,0.21191 0.27961,0.12822 0.13549,-0.084 0.33239,-0.013 0.43769,0.15758 0.11961,0.19352 0.077,0.23882 -0.1137,0.12092 -0.43029,-0.26591 -0.3834,-0.0241 0.22891,1.1757 0.294,0.57629 0.65809,1.04799 0.80929,1.04799 0.15111,0 0.2121,0.10131 0.1354,0.22529 -0.077,0.12412 0.044,0.45151 0.2687,0.72761 0.22441,0.27612 0.32921,0.32361 0.23311,0.10541 -0.096,-0.21831 0.071,-0.099 0.3715,0.26461 0.3005,0.36377 0.54869,0.77359 0.55189,0.91048 0,0.137 -0.1782,0.018 -0.4036,-0.26458 -0.3711,-0.46533 -0.3722,-0.43903 -0.01,0.28009 0.2207,0.43658 0.65341,1.0914 0.9617,1.4552 0.3083,0.36381 0.472,0.48289 0.36331,0.26459 -0.1087,-0.21828 -0.097,-0.30531 0.026,-0.19331 0.1233,0.11211 0.24821,0.40982 0.2775,0.66151 0.087,0.7443 2.4244,6.20991 2.55331,5.96969 0.065,-0.1211 0.078,-0.063 0.03,0.12973 -0.087,0.34729 0.015,0.74469 1.30849,5.0741 0.3695,1.2369 0.7485,2.84429 0.8423,3.57187 0.23571,1.82801 0.3964,2.28582 0.72971,2.07992 0.15989,-0.099 0.21109,-0.055 0.11569,0.099 -0.094,0.15201 0.1938,1.74779 0.63981,3.54651 0.44599,1.79848 0.82699,3.47059 0.84649,3.71498 0.02,0.24461 0.158,0.36899 0.30791,0.27649 0.4688,-0.28979 1.60529,-1.744 1.5359,-1.96529 -0.036,-0.1161 0.023,-0.19699 0.13229,-0.17979 0.4737,0.075 0.8814,-0.047 0.7689,-0.22939 -0.067,-0.10922 0.1938,-0.22172 0.5798,-0.24961 0.91351,-0.066 2.74251,-0.8346 2.5869,-1.0863 -0.066,-0.10739 0.3752,-0.1714 0.9814,-0.14211 1.10221,0.053 1.10221,0.053 0.1762,-0.15859 -0.70709,-0.16179 -0.7853,-0.22831 -0.33069,-0.28011 1.02889,-0.11729 1.07599,-0.12931 1.27899,-0.33229 0.1091,-0.10912 0.3945,-0.19841 0.63401,-0.19841 0.44449,0 1.91219,-1.35711 1.90529,-1.76171 0,-0.12268 0.065,-0.28239 0.1489,-0.35499 0.084,-0.073 0.086,-0.013 0,0.13229 -0.306,0.54211 2.531,0.41461 3.23961,-0.14578 0.53169,-0.42021 0.55769,-0.4876 0.13229,-0.3446 -0.2911,0.098 -0.4416,0.081 -0.33439,-0.037 0.1072,-0.11819 1.00019,-0.2685 1.98439,-0.3339 0.9842,-0.065 1.9681,-0.27589 2.1864,-0.4676 0.2183,-0.19159 1.2899,-0.4226 2.3813,-0.51319 1.9264,-0.16042 2.95931,-0.37621 5.15931,-1.07741 1.10179,-0.3511 2.29049,-0.40489 2.09909,-0.096 -0.2071,0.3352 1.6691,0.51409 2.41541,0.2304 0.40899,-0.1555 1.40589,-0.28541 2.2154,-0.28832 0.80939,0 2.66279,-0.0209 4.11809,-0.041 4.7803,-0.064 15.9584,0.19928 15.8507,0.37359 -0.1775,0.28731 0.6623,0.49041 2.0252,0.49041 0.7131,0 3.4125,0.5453 5.998,1.21179 2.5856,0.6663 5.4542,1.37631 6.3749,1.57771 2.0377,0.44601 6.9462,1.82689 8.9751,2.52489 0.8174,0.28131 1.7322,0.44342 2.033,0.3597 0.4545,-0.12639 0.4802,-0.10088 0.1503,0.1524 -0.3279,0.25191 -0.2937,0.2826 0.1985,0.17471 0.3276,-0.072 0.535,-0.032 0.46089,0.087 -0.1863,0.3016 2.43001,1.13951 2.81491,0.90181 0.2084,-0.1288 0.2406,-0.078 0.097,0.15449 -0.1599,0.25871 -0.069,0.30922 0.35599,0.19791 0.31401,-0.082 0.51071,-0.051 0.43671,0.068 -0.1866,0.30181 3.2234,1.4046 3.608,1.1669 0.1875,-0.11589 0.2415,-0.079 0.1354,0.093 -0.2219,0.35912 2.54669,1.4542 3.7285,1.47481 0.4708,0.01 0.72719,0.094 0.57,0.19169 -0.159,0.098 0.024,0.2544 0.4129,0.3519 0.3843,0.096 0.8308,0.094 0.99209,-0.0101 0.17051,-0.1052 0.21921,-0.061 0.11631,0.10541 -0.099,0.1609 0.086,0.36851 0.4222,0.4734 0.32949,0.1026 1.535,0.6465 2.6789,1.20919 2.2831,1.12321 2.4044,1.16401 2.1286,0.71782 -0.1179,-0.19082 -0.073,-0.23381 0.1209,-0.1142 0.1704,0.10539 0.2413,0.3024 0.1576,0.4377 -0.084,0.1356 -0.026,0.26149 0.1276,0.27959 0.1542,0.018 0.39359,0.048 0.5318,0.066 0.1382,0.018 0.4061,0.2058 0.5953,0.41709 0.3007,0.33581 0.2776,0.33581 -0.185,0 -0.4922,-0.35729 -0.5031,-0.35099 -0.15611,0.091 0.20531,0.26131 0.52371,0.41701 0.70801,0.34621 0.1843,-0.071 0.4927,0.073 0.6852,0.3189 0.32179,0.41119 0.3077,0.4155 -0.1788,0.05 -0.4939,-0.3705 -0.5043,-0.36531 -0.15601,0.078 0.20521,0.2613 0.53851,0.4115 0.74101,0.3339 0.2025,-0.078 0.2989,-0.029 0.21399,0.10848 -0.21499,0.34782 1.09031,1.15681 1.47891,0.9167 0.1955,-0.12089 0.24779,-0.084 0.1365,0.096 -0.099,0.16068 0.053,0.4172 0.339,0.56999 0.6749,0.3614 0.8955,0.35229 0.6609,-0.028 -0.11791,-0.19082 -0.073,-0.2336 0.1209,-0.11419 0.1704,0.10538 0.24899,0.28998 0.1747,0.41028 -0.1693,0.2739 0.6159,0.59421 0.9503,0.38759 0.136,-0.084 0.2147,-1.8e-4 0.17469,0.19741 -0.041,0.19891 0.13541,0.33361 0.40821,0.3111 0.26439,-0.022 0.4138,0.027 0.3323,0.1085 -0.2478,0.2477 0.88579,0.90141 1.2129,0.69922 0.2027,-0.12542 0.2323,-0.071 0.088,0.16168 -0.157,0.2539 -0.097,0.30441 0.2201,0.18301 0.2695,-0.1035 0.41299,-0.045 0.3741,0.15338 -0.035,0.17672 0.14429,0.30472 0.3974,0.2848 0.2617,-0.0209 0.3857,0.084 0.2874,0.24342 -0.1075,0.17388 -0.01,0.21648 0.264,0.1121 0.2695,-0.10332 0.413,-0.045 0.3742,0.15349 -0.035,0.17671 0.1406,0.30559 0.3896,0.2863 0.24899,-0.019 0.4275,0.10001 0.3969,0.26461 -0.031,0.1646 0.1828,0.29959 0.4738,0.2997 0.2911,1.8e-4 0.52919,0.1584 0.52919,0.35189 0,0.46001 0.92771,1.13311 1.2702,0.92141 0.14661,-0.091 0.1898,-0.041 0.096,0.1106 -0.23099,0.37399 0.51571,0.9588 0.91161,0.71419 0.1917,-0.11851 0.2479,-0.084 0.14209,0.087 -0.21989,0.35581 1.94231,2.23761 2.3787,2.0701 0.36571,-0.14038 0.969,0.48792 1.0593,1.10382 0.011,0.077 0.1007,0.22328 0.23461,0.40568 0,-0.01 -0.01,-0.019 -0.011,-0.03 -2.1541,-5.31238 -4.7554,-14.5995 -6.2807,-22.42288 -1.8375,-9.4248 1.4191,-25.71232 6.8657,-34.33951 0.3939,-0.62391 0.63379,-1.2673 0.53329,-1.42991 -0.10399,-0.1683 -0.064,-0.22198 0.093,-0.12499 0.1517,0.094 0.78539,-0.513 1.4082,-1.34829 1.4437,-1.93601 11.113597,-11.6033 13.805886,-13.8022 1.12541,-0.91922 1.9698,-1.79422 1.87691,-1.94461 -0.095,-0.15409 -0.04,-0.1941 0.12559,-0.092 0.3284,0.20298 2.87311,-2.3694 2.75741,-2.78742 -0.04001,-0.14438 0.031,-0.19878 0.15658,-0.12088 0.27681,0.171 1.53112,-1.4477 1.41182,-1.82211 -0.046,-0.14549 0,-0.18129 0.1007,-0.079 0.361,0.36091 12.38218,-15.27469 12.38218,-16.10501 0,-0.18079 0.099,-0.26709 0.220719,-0.19219 0.12128,0.075 0.22061,0.0241 0.22061,-0.11269 0,-0.13692 0.37978,-0.62042 0.84388,-1.07431 0.46422,-0.45379 0.74851,-0.82479 0.63201,-0.82479 -0.11652,0 0.0259,-0.20841 0.31679,-0.46302 0.5624,-0.49249 1.20081,-2.09888 0.97772,-2.4598 -0.073,-0.1188 0.0101,-0.30189 0.17618,-0.4072 0.2055,-0.127 0.24519,-0.066 0.11729,0.18042 -0.10599,0.20439 -0.01,0.14529 0.215,-0.13081 0.22442,-0.27609 0.357,-0.58491 0.29411,-0.6868 -0.063,-0.10179 0.2681,-0.53089 0.73581,-0.9534 0.8505,-0.76809 0.85069,-0.76801 0.057,0.15811 -0.7937,0.92599 -0.79391,0.92618 0.066,0.14889 0.4731,-0.42749 0.8364,-0.90379 0.80719,-1.05839 -0.055,-0.29141 2.35601,-4.1175 2.59469,-4.1175 0.074,0 0.05001,0.1374 -0.05401,0.30538 -0.114299,0.18492 -0.073,0.234 0.10491,0.12401 0.161711,-0.10001 0.23971,-0.32721 0.17312,-0.5044 -0.067,-0.1773 0.186291,-0.67921 0.562291,-1.11569 0.6836,-0.79381 0.6835,-0.79381 0.109479,0.13229 -0.557,0.8986 -0.557,0.90651 -0.0159,0.26461 1.15189,-1.3666 1.5186,-1.749 2.73629,-2.85001 0.687389,-0.62141 1.25,-1.21119 1.25,-1.31049 0,-0.099 -0.50591,0.28948 -1.1244,0.86408 -0.703501,0.6532 -0.5833,0.47532 0.321389,-0.47548 1.39261,-1.4636 2.464011,-2.1472 1.449021,-0.9244 -0.49422,0.5952 -0.49432,0.5951 0.108479,0.042 0.331601,-0.30459 0.636211,-0.78079 0.677011,-1.05831 0.04099,-0.27739 0.214099,-0.50438 0.3855,-0.50438 0.481199,0 2.6884,-2.28661 2.500599,-2.59051 -0.095,-0.15369 -0.035,-0.18859 0.138991,-0.081 0.334009,0.2064 1.457799,-0.45418 1.204119,-0.70789 -0.086,-0.086 0.081,-0.095 0.37158,-0.0191 0.29051,0.076 0.7797,-1.1e-4 1.0877,-0.16169 0.43842,-0.23461 0.5452,-0.225 0.49041,0.042 -0.039,0.1882 0.1335,0.32631 0.3824,0.30699 0.249,-0.019 0.4436,0.04 0.43209,0.1323 -0.11549,0.92191 1.081911,1.1666 1.93421,0.39531 0.36089,-0.3266 0.5666,-0.3602 0.8351,-0.1374 0.41789,0.34679 1.39219,0.11581 3.02411,-0.71681 1.57118,-0.8015 2.979179,-0.77089 2.979179,0.065 0,0.7801 0.55772,1.26561 1.542021,1.34311 1.01838,0.08 1.377789,0.3416 1.17978,0.85777 -0.091,0.23752 -0.056,0.36381 0.077,0.28123 0.1338,-0.083 0.24328,0.30308 0.24328,0.85728 0,0.5543 -0.089,0.95271 -0.198381,0.88521 -0.109119,-0.067 -0.198409,0 -0.198409,0.15759 0,0.15412 -0.20839,0.2898 -0.463101,0.30131 -0.276599,0.0119 -0.32981,0.075 -0.132189,0.15401 0.18188,0.073 0.330679,0.24969 0.330679,0.39169 0,0.142 -0.139279,0.17219 -0.309589,0.067 -0.217591,-0.13449 -0.24839,-0.041 -0.10491,0.31531 0.11232,0.2785 0.492419,1.2606 0.84492,2.18281 0.922389,2.413 1.66868,3.78949 1.95808,3.61058 0.138219,-0.085 0.184119,0.0201 0.101809,0.23461 -0.082,0.2145 -0.013,0.6455 0.15399,0.9576 0.42952,0.80259 0.7865,3.20379 0.444921,2.9926 -0.160601,-0.099 -0.2019,0.0101 -0.102821,0.26559 0.091,0.23752 0.033,0.5135 -0.128189,0.61341 -0.188511,0.1165 -0.224891,0.048 -0.101311,-0.18971 0.1061,-0.20439 0.0101,-0.14578 -0.214999,0.13031 -0.224391,0.27609 -0.353801,0.59 -0.28728,0.6976 0.066,0.10761 -0.086,0.35809 -0.33901,0.55661 -0.40021,0.31379 -0.426011,0.30728 -0.195791,-0.049 0.14549,-0.2251 0,-0.1107 -0.31891,0.2543 -0.320989,0.36499 -0.529109,0.7177 -0.462489,0.78449 0.067,0.067 -0.073,0.33512 -0.30951,0.59682 -0.242591,0.2681 -0.368691,0.7112 -0.289401,1.01438 0.077,0.2961 0.033,0.4713 -0.099,0.38971 -0.379299,-0.2344 -0.280979,-0.95211 0.21291,-1.55141 0.390211,-0.4735 0.36481,-0.4676 -0.18499,0.04 -0.6686,0.6173 -0.512019,2.14241 0.2046,1.99311 0.332291,-0.069 0.158191,0.6147 -0.315199,1.23819 -0.21891,0.28832 -0.20992,0.33311 0.038,0.18442 0.222301,-0.13351 0.2776,-0.065 0.171,0.21249 -0.086,0.225 -0.25181,0.3503 -0.367909,0.2785 -0.9422,-0.5823 -1.264601,5.0342 -0.5602,9.76219 0.7025,4.71462 2.36519,11.59971 2.744599,11.36521 0.16071,-0.099 0.203101,-0.048 0.099,0.11991 -0.263101,0.42569 0.10419,1.6687 0.43299,1.4655 0.166609,-0.103 0.197909,-0.043 0.079,0.14988 -0.263499,0.42641 0.36599,1.9181 0.717781,1.70061 0.166799,-0.103 0.194309,-0.04 0.07,0.16079 -0.25741,0.41651 0.37471,1.64251 0.73279,1.4211 0.147801,-0.091 0.184101,-0.032 0.082,0.1333 -0.2308,0.37341 0.5697,1.97022 0.88881,1.773 0.1293,-0.08 0.32099,-0.0101 0.4263,0.16431 0.1265,0.2046 0.076,0.23881 -0.1483,0.1003 -0.227909,-0.14089 -0.295699,-0.089 -0.20619,0.15759 0.073,0.20222 0.276091,0.33451 0.45069,0.29461 0.17449,-0.04 0.253,0.032 0.1741,0.1596 -0.079,0.12771 0.04,0.4582 0.26461,0.7344 0.22439,0.27609 0.3203,0.32319 0.21338,0.10491 -0.11419,-0.23331 -0.095,-0.30591 0.04701,-0.17632 0.132499,0.12131 0.242379,0.29991 0.244389,0.3969 0.0101,0.3887 1.28641,1.8659 1.50019,1.73382 0.126,-0.078 0.19661,0.0111 0.156611,0.19679 -0.04001,0.18619 0.066,0.3438 0.236089,0.35039 0.16981,0.0101 0.4079,0.12031 0.52922,0.2527 0.13089,0.14301 0.059,0.1524 -0.17672,0.0241 -0.21828,-0.11959 -0.1079,0.10001 0.2449,0.48681 0.71832,0.78851 1.07572,0.95599 0.5152,0.2413 -0.32859,-0.419 -0.3192,-0.42871 0.097,-0.10229 0.2531,0.19839 0.4005,0.45728 0.32769,0.57518 -0.18169,0.2939 1.3363,1.3445 1.5993,1.10691 0.11609,-0.10491 0.13131,-0.051 0.034,0.11941 -0.2037,0.35578 4.552109,4.63978 4.907209,4.42039 0.124111,-0.077 0.19301,-0.027 0.153001,0.1121 -0.10149,0.35179 3.489699,3.26409 3.793599,3.07629 0.13629,-0.084 0.21511,-0.013 0.17521,0.15811 -0.121919,0.52189 10.8263804,9.05669 11.3671803,8.86151 0.18021,-0.065 0.29922,0.0259 0.26461,0.20259 -0.035,0.17669 0.1443101,0.30509 0.39741,0.28519 0.2531,-0.0201 0.3983,0.063 0.3229999,0.185 -0.3036099,0.4912 9.1801996,6.2112 9.8633796,5.949 0.2252099,-0.086 0.2898199,-0.023 0.1716099,0.16801 -0.12769,0.2065 -0.041,0.24971 0.2646101,0.13229 0.24968,-0.096 0.3889899,-0.069 0.3094799,0.06 -0.1858999,0.3008 0.6056,0.6101 0.9757,0.38139 0.1559199,-0.096 0.20461,-0.05 0.10951,0.1038 -0.2060001,0.3334 0.5495999,0.67201 0.9487999,0.42532 0.15489,-0.096 0.2078,-0.055 0.11779,0.091 -0.2205,0.35679 2.3165099,1.52659 2.7415099,1.26399 0.2011899,-0.12438 0.26601,-0.098 0.16431,0.066 -0.22051,0.35669 3.6472795,2.04629 4.0767995,1.78081 0.196079,-0.12121 0.25699,-0.091 0.15338,0.077 -0.18309,0.29639 4.47622,2.31 9.482219,4.098 1.6007,0.57161 3.2676,1.19319 3.70408,1.38129 1.6596,0.71482 7.843019,2.90822 12.699999,4.50511 2.03732,0.66979 12.21722,3.54071 22.621909,6.3795 5.08449,1.38721 9.24689,2.5319 13.033289,3.58061 0.2599,-2.48412 0.742821,-5.56192 1.136411,-6.69261 0.368589,-1.05889 0.6721,-2.14831 0.6748,-2.42099 0.0101,-0.88152 3.30059,-7.33902 5.101609,-10.00771 4.9262,-7.3002 11.111,-12.32159 17.29349,-14.04051 1.186492,-0.32988 2.157482,-0.7198 2.157482,-0.86659 0,-0.1469 -1.147,-1.2038 -2.548673,-2.34921 -4.7607,-3.89009 -6.751209,-6.54968 -8.511119,-11.3719 -1.86309,-5.10489 -2.22199,-12.80228 -0.8904,-19.1022 0.67241,-3.18119 4.044819,-10.18379 6.079699,-12.62459 2.18012,-2.6148 5.717623,-6.21901 6.805303,-6.93341 6.69581,-4.39819 14.55091,-6.35529 22.70661,-5.657 1.93008,0.16531 5.6887,0.46532 8.352,0.66662 2.66319,0.2014 5.60981,0.59348 6.5479,0.87079 0.93808,0.27721 1.82039,0.5038 1.9606,0.5038 0.1402,0 -0.48191,-1.36211 -1.3824,-3.02671 -0.90041,-1.66449 -1.7667,-3.33769 -1.9249,-3.71808 -0.62261,-1.49712 -1.26812,-8.19171 -1.2154,-12.60541 0.048,-4.0105 0.17541,-4.98639 0.92859,-7.09049 2.2633,-6.32272 6.81789,-12.3054 10.90679,-14.32682 4.05011,-2.00221 8.66701,-3.8591 10.08682,-4.05659 0.7788,-0.1084 2.13709,-0.49181 3.01839,-0.8522 1.37272,-0.56142 2.23992,-0.63269 6.05279,-0.4976 2.44782,0.087 5.37782,0.4014 6.51132,0.69869 2.6255,0.6885 7.6808,2.92711 9.60088,4.2514 2.26682,1.5635 6.41721,5.90511 7.57682,7.9261 0.57068,0.9947 1.1797,1.89621 1.3534,2.0035 0.1738,0.1074 1.13689,-0.45669 2.1405,-1.2537 3.02869,-2.40541 5.5621,-3.2544 7.15968,-2.39929 0.34132,0.18259 0.95001,1.09709 1.35242,2.03239 0.84058,1.954 1.33929,2.1812 4.28138,1.9462 1.10072,-0.088 2.93301,-0.23519 4.07162,-0.32718 1.9445,-0.1569 2.0649,-0.1233 1.9885,0.55969 -0.073,0.65001 0.24159,0.79381 2.96569,1.3529 1.6759,0.3439 3.31031,0.82881 3.63181,1.07741 2.53409,1.95979 4.51508,3.84357 5.80789,5.52368 0.83661,1.08741 1.52141,2.0565 1.52141,2.15342 0,0.097 0.4608,0.92548 1.0237,1.84168 1.64408,2.676 2.8389,7.3079 2.95119,11.43971 0.095,3.47739 0.1203,3.5769 1.29809,5.0152 0.661,0.80701 1.91522,2.55699 2.78752,3.88859 0.8722,1.33162 1.98739,2.888 2.47789,3.45871 l 0.8919,1.03769 0.59581,-0.8646 c 2.6646,-3.8654 7.73869,-7.41188 11.59309,-8.10279 0.8281,-0.14851 1.656,-0.62341 2.24851,-1.2904 1.69918,-1.91309 8.00067,-4.6165 13.56188,-5.81832 3.52981,-0.76258 6.13931,-0.70379 8.91842,0.20162 2.02668,0.66029 3.1637,0.6073 5.07039,-0.2362 1.42971,-0.6324 2.09029,-0.6972 5.4917,-0.54149 2.12649,0.097 4.87791,0.41269 6.11441,0.7012 1.2364,0.28839 2.63828,0.5928 3.11498,0.67638 2.36811,0.416 8.25521,4.17552 8.28741,5.29222 0.0101,0.21659 0.57518,0.49969 1.26451,0.62889 0.68908,0.1293 1.5064,0.36309 1.81589,0.5199 0.30951,0.15669 0.9517,0.45361 1.42728,0.6594 2.19052,0.94789 4.73682,2.5378 5.42193,3.38529 l 0.7529,0.9312 0.48059,-1.17769 c 0.43269,-1.0605 0.40971,-1.3453 -0.2294,-2.85821 -0.6704,-1.58679 -0.6763,-1.70508 -0.10912,-2.11979 0.33043,-0.24159 0.6005,-0.59981 0.6005,-0.79629 0,-0.1964 0.23353,-0.44712 0.51883,-0.5566 0.38939,-0.14931 0.5189,0.057 0.5189,0.82788 0,0.83881 0.1446,1.02682 0.79009,1.02682 1.12329,0 1.9771,-1.61981 1.9771,-3.75121 0,-0.95822 0.1663,-1.84481 0.3695,-1.97041 0.2032,-0.12559 0.27692,-0.46918 0.16381,-0.76379 -0.22591,-0.58899 1.14929,-2.84721 1.7364,-2.851 0.2022,0 0.80517,-0.45889 1.33988,-1.017 0.8225,-0.8585 0.93752,-1.20081 0.74569,-2.22311 -0.1247,-0.6645 -0.3824,-1.26 -0.57258,-1.32339 -0.50192,-0.1674 0.32621,-2.35651 0.89149,-2.35651 0.25079,0 0.51249,0.16912 0.58132,0.3757 0.069,0.20651 1.18628,-0.64939 2.48309,-1.90219 1.29669,-1.2527 2.50039,-2.27791 2.67479,-2.27791 0.17431,0 0.22361,-0.5839 0.10953,-1.29759 -0.17601,-1.10069 -0.046,-1.50159 0.86039,-2.64171 0.80288,-1.01028 1.06799,-1.1821 1.06821,-0.69138 8e-5,0.54798 0.29519,0.66569 1.83859,0.73218 l 1.83858,0.079 0.46311,-1.8087 c 0.30259,-1.18282 0.8633,-2.2095 1.62001,-2.96719 0.63647,-0.63722 1.15711,-1.221 1.15711,-1.29712 0,-0.41259 -1.05543,-0.049 -1.35602,0.46662 -0.19389,0.3329 -0.357,0.43 -0.3628,0.21547 -0.0259,-0.94887 1.01808,-1.22719 5.61001,-1.49698 1.16138,-0.068 -1.74811,-3.25059 -4.04212,-4.42151 -0.9633,-0.49159 -2.2174,-0.9916 -2.78689,-1.11098 -0.65172,-0.13661 -1.08308,-0.4685 -1.16382,-0.89501 -0.14269,-0.75509 -2.2982,-2.82051 -3.2675,-3.1311 -0.3434,-0.10999 -0.56459,-0.37801 -0.49187,-0.5959 0.24827,-0.74509 -5.36272,-2.6911 -9.17312,-3.18122 -0.90359,-0.11617 -1.6434,-0.33708 -1.6434,-0.49088 0,-0.27011 1.75521,-0.80981 4.04431,-1.2438 0.7274,-0.13801 1.0441,-0.36711 0.9275,-0.6708 -0.11411,-0.29761 0.28279,-0.61219 1.11941,-0.88831 1.462,-0.4825 2.75028,-0.52539 6.20989,-0.2067 1.98369,0.1827 2.28838,0.14589 1.7601,-0.2124 -3.29942,-2.23751 -10.5664,-6.68528 -12.5047,-7.65329 -1.33161,-0.66511 -2.7325,-1.4551 -3.1129,-1.75591 -0.64101,-0.50681 -0.4758,-0.5335 2.2484,-0.36179 1.617,0.10189 3.54269,0.326 4.27929,0.49768 1.99492,0.46493 1.08091,-0.17459 -1.6805,-1.17617 -1.32147,-0.4794 -2.79349,-1.26231 -3.27109,-1.7399 l -0.86871,-0.86821 h 0.9302 c 1.9617,0 8.10389,0.7938 9.58081,1.2382 0.85079,0.25601 1.59238,0.42029 1.648,0.36481 0.1216,-0.12161 -4.4565,-3.01901 -6.02502,-3.81321 -0.61258,-0.31019 -1.29147,-0.89651 -1.50898,-1.3028 -0.3538,-0.66109 -0.3187,-0.71869 0.3354,-0.54769 1.39579,0.3651 0.71609,-0.27911 -2.03289,-1.92651 -1.52023,-0.91102 -2.93493,-1.97551 -3.14353,-2.3653 -0.35229,-0.6582 -0.30307,-0.694 0.6889,-0.5017 0.5874,0.1139 1.57383,0.29379 2.19213,0.39989 l 1.1239,0.19331 -0.80511,-0.64749 c -0.44301,-0.35603 -1.79799,-1.15171 -3.01119,-1.76782 -2.18933,-1.1122 -3.9656,-2.76741 -3.9656,-3.69541 0,-0.8441 1.89508,-0.37229 10.31919,2.56982 5.7035,1.99189 8.6178,3.3953 10.34669,4.98211 2.60631,2.39239 -1.80408,-3.64212 -4.63948,-6.34791 -3.38091,-3.22631 -8.85263,-7.395 -15.13502,-11.53049 -5.19818,-3.4218 -6.8162,-4.77181 -6.3164,-5.27161 0.2,-0.2 5.5744,1.2057 8.11732,2.12338 1.27758,0.46112 3.6458,1.56052 5.2628,2.44282 2.96589,1.61849 4.85337,2.37919 4.82859,1.94609 -0.0161,-0.28339 -1.851,-1.6456 -6.4234,-4.76919 -5.53271,-3.7796 -9.74589,-6.96849 -12.098,-9.1566 -1.21002,-1.12569 -2.36302,-2.04641 -2.56212,-2.04641 -0.39769,0 -1.24999,-1.63389 -0.98848,-1.8954 0.09,-0.09 1.16538,-1.1e-4 2.39049,0.19582 2.54589,0.41 8.81161,3.40439 12.7548,6.09579 7.0527,4.8138 11.39131,7.67781 12.4742,8.23301 1.35991,0.6976 1.34922,0.67998 -1.5168,-2.38072 -1.0454,-1.11638 -2.3313,-2.88028 -2.85709,-3.91959 -1.36299,-2.6937 -4.48241,-5.4505 -16.752,-14.80331 -1.74688,-1.33159 -4.0675,-3.19889 -5.15681,-4.15009 -1.08918,-0.9511 -3.19138,-2.7338 -4.67149,-3.9615 -2.6161,-2.17 -3.05249,-3.1865 -0.78042,-1.8164 1.52742,0.9208 3.98673,1.3813 7.64613,1.4314 2.75009,0.038 3.49177,0.2048 7.26359,1.6386 2.31041,0.8783 5.36769,2.1192 6.7945,2.75801 l 2.59408,1.16168 -1.55649,-1.4237 c -0.856,-0.78319 -2.9569,-2.47039 -4.66889,-3.74959 -2.77211,-2.0711 -5.07819,-3.668 -15.56451,-10.7761 -5.63969,-3.82291 -10.8635,-7.6817 -11.04738,-8.1607 -0.22769,-0.5934 0.11679,-0.503 4.38169,1.1492 1.66038,0.6432 3.2168,1.1671 3.45871,1.1643 0.42708,-0.01 2.68939,1.0498 8.39477,3.915 4.21572,2.1171 11.36702,6.4976 14.13511,8.6579 l 1.33741,1.0438 -0.53231,-1.0123 c -0.293,-0.5568 -1.36218,-2.1905 -2.37559,-3.6303 -1.0133,-1.4398 -3.03469,-4.319 -4.49221,-6.3985 -2.0543,-2.931 -3.21629,-4.2087 -5.16918,-5.6834 -1.38552,-1.0463 -3.22641,-2.586 -4.09072,-3.4215 -1.5239,-1.4734 -1.65989,-1.5282 -4.51498,-1.8118 -11.757,-1.1678 -12.1326,-1.2299 -10.69541,-1.7663 0.45848,-0.17121 3.01291,-0.394 5.6761,-0.4951 8.0157,-0.3044 11.81,0.5634 17.8124,4.0722 2.57609,1.5059 1.65029,0.4893 -1.4594,-1.60251 -1.38499,-0.93159 -3.409,-2.44629 -4.4979,-3.36569 -2.02372,-1.7087 -3.38988,-2.2671 -7.45381,-3.0464 -1.19359,-0.2288 -2.2438,-0.5349 -2.33371,-0.6805 -0.09,-0.1455 1.04233,-0.5454 2.51611,-0.8883 2.56751,-0.5974 5.30411,-0.7908 7.52201,-0.5313 0.5707,0.067 2.8255,0.1052 5.0106,0.085 l 3.97278,-0.037 -1.74868,-1.1777 c -2.40832,-1.6219 -7.54911,-4.01061 -8.6315,-4.01061 -0.5067,0 -0.79991,-0.14929 -0.6785,-0.34569 0.36159,-0.5852 1.55678,-0.3952 5.6989,0.9063 7.30051,2.2942 13.50919,5.644 20.55841,11.0914 1.43067,1.1056 3.68847,2.8313 5.0173,3.8349 l 2.41637,1.82469 -1.03769,-2.51669 c -1.17319,-2.8458 -5.31669,-10.877 -6.77478,-13.1309 -0.53053,-0.8201 -2.17041,-3.1567 -3.64421,-5.1925 -3.55359,-4.9088 -5.2167,-7.53961 -4.76661,-7.53961 0.2024,0 1.1357,0.38951 2.07421,0.8651 0.9386,0.47551 1.92,0.86451 2.18129,0.86451 0.2613,0 1.44531,0.4849 2.63143,1.0775 2.71009,1.3543 8.23527,6.8444 12.23178,12.1548 2.1395,2.8429 2.9439,3.6752 3.40961,3.52739 0.33527,-0.10639 1.09868,0.059 1.69648,0.36901 0.5979,0.3092 1.1712,0.4779 1.27392,0.3752 0.10258,-0.1026 -0.20532,-2.6431 -0.68422,-5.6457 -0.479,-3.0027 -0.821,-5.5142 -0.7602,-5.581 0.061,-0.067 0.91929,0.6336 1.90791,1.5565 1.5664,1.4622 4.28868,5.2752 7.8409,10.9822 l 1.0299,1.6547 0.2119,-1.0594 c 0.11649,-0.5827 0.31509,-2.0672 0.44129,-3.2985 0.14531,-1.418 0.40522,-2.3065 0.70901,-2.4231 0.3878,-0.1488 0.43648,-0.8983 0.25321,-3.9165 -0.25972,-4.2753 0.1923,-8.3627 1.44849,-13.09851 0.81078,-3.05669 1.74349,-5.66729 2.0247,-5.66729 0.076,0 0.5571,1.3617 1.0702,3.02619 0.51308,1.66451 1.78689,5.75001 2.8303,9.07901 1.62201,5.1751 2.43701,7.8882 4.6499,15.4781 0.18021,0.6183 0.44968,1.124 0.59888,1.124 0.51091,0 3.12092,-7.4338 3.48401,-9.9235 0.54779,-3.7558 0.45572,-4.7684 -0.6749,-7.4253 -0.57071,-1.3411 -1.03209,-2.928 -1.02528,-3.5264 0.0109,-0.9933 0.067,-0.9371 0.63819,0.6418 0.34399,0.95119 0.95668,2.3762 1.36168,3.16729 0.40504,0.79101 0.83831,2.07511 0.96282,2.85351 0.12439,0.7784 0.3407,1.4154 0.48048,1.4154 0.13992,0 0.8545,-1.4313 1.58801,-3.1807 0.73362,-1.7492 2.07802,-4.4055 2.98751,-5.903 0.90948,-1.4974 1.6536,-2.8488 1.6536,-3.0029 0,-0.1542 0.2173,-0.461 0.4832,-0.6816 0.4121,-0.3421 0.51341,1.8555 0.68678,14.9169 0.11183,8.4249 0.298,16.1309 0.41392,17.1246 l 0.2109,1.8066 1.5735,-1.2015 c 0.8654,-0.6608 1.7552,-1.201 1.9776,-1.201 0.22238,0 0.84558,-0.4607 1.38499,-1.0237 0.5393,-0.5629 2.13581,-1.5723 3.54761,-2.2427 1.41179,-0.6705 3.72751,-2.16 5.14588,-3.3099 2.34371,-1.9002 6.09172,-4.4917 6.49571,-4.4917 0.09,0 -0.084,0.5056 -0.3865,1.1239 -0.8871,1.81529 -4.019,5.6888 -7.46729,9.2357 -1.76572,1.8162 -3.99409,4.314 -4.9521,5.5505 -1.9858,2.56319 -6.77149,9.72159 -6.60841,9.8847 0.06,0.06 0.7262,-0.2384 1.48161,-0.662 0.9428,-0.5287 2.1858,-1.9053 3.96409,-4.3909 4.89292,-6.839 11.13229,-12.318 21.5165,-18.894 4.7733,-3.0227 7.31671,-4.3089 10.48052,-5.2999 1.33159,-0.4171 3.31938,-1.1237 4.4173,-1.5704 l 1.9962,-0.8124 -0.71934,1.0108 c -0.39567,0.5557 -1.76558,1.5254 -3.04418,2.1554 -2.46268,1.2132 -6.57399,4.1251 -8.8755,6.2859 -0.76089,0.7144 -4.0754,3.6357 -7.36539,6.4922 -3.29001,2.8562 -5.90081,5.2743 -5.8017,5.3733 0.099,0.099 0.37819,0.02 0.6206,-0.1757 0.78651,-0.635 8.31589,-3.4407 11.3492,-4.2292 2.51968,-0.6551 3.1695,-0.7099 4.42759,-0.3711 2.64861,0.7132 2.3948,1.54349 -1.3327,4.3605 -2.3693,1.7904 -3.70348,2.8922 -10.76519,8.8894 -1.55342,1.3191 -2.28121,2.1679 -2.15079,2.5078 0.26339,0.6864 0.37468,0.6684 2.92899,-0.4775 1.21531,-0.5451 3.5321,-1.4254 5.149,-1.9559 1.617,-0.5305 3.248,-1.1195 3.6241,-1.309 1.28329,-0.6465 4.15539,-1.2697 5.86939,-1.2738 h 1.71101 l -1.36531,1.3214 c -1.9949,1.93049 -4.93051,4.0649 -10.04588,7.3034 l -4.53041,2.868 0.69189,2.2676 0.69252,2.2676 -1.00412,0.8381 c -2.90129,2.42239 -5.0581,4.89109 -6.74019,7.7148 -2.46811,4.14308 -5.7904,8.3148 -7.35821,9.2398 -0.69269,0.40871 -1.25929,0.86739 -1.25929,1.01899 0,0.46472 -3.64681,3.15371 -4.60229,3.3936 -0.51581,0.12941 -1.47961,0.98571 -2.26032,2.00822 -1.7691,2.31658 -3.947,5.75979 -3.6432,5.75979 0.13049,0 1.2637,-0.68151 2.51809,-1.5141 1.25452,-0.83259 3.01302,-1.9245 3.90832,-2.42671 0.8954,-0.5022 2.1408,-1.3929 2.7673,-1.97919 1.47281,-1.37829 6.44668,-5.12889 7.9375,-5.98519 5.1376,-2.95122 11.9493,-5.38882 15.059,-5.38882 1.1666,0 0.79319,0.43421 -2.07991,2.41691 -1.3661,0.94269 -3.07348,2.1467 -3.7941,2.67529 -2.0532,1.5059 -6.72381,4.695 -9.7576,6.6626 -3.34079,2.16681 -2.7364,2.14842 3.8045,-0.1152 4.37391,-1.51379 4.5553,-1.54599 6.66051,-1.18859 2.65399,0.45059 2.5757,0.58971 -1.76061,3.1414 -1.7439,1.02619 -5.50519,3.2376 -8.35859,4.9139 -2.8535,1.6765 -6.27782,3.7819 -7.60941,4.67881 -2.82491,1.9027 -7.2948,5.98199 -7.52669,6.8689 -0.15351,0.58708 0.0101,0.58719 3.683,0.0101 2.114,-0.33398 5.54678,-0.93038 7.6285,-1.32548 3.7756,-0.71681 6.5692,-0.90461 7.59589,-0.51059 0.45871,0.176 0.42331,0.31289 -0.231,0.89088 -0.42519,0.3756 -0.57881,0.5843 -0.3411,0.46352 0.8333,-0.42352 0.4228,0.47217 -0.5188,1.13228 -0.52319,0.36672 -4.3751,2.43951 -8.5602,4.6064 l -7.60931,3.9398 1.71822,0.10851 c 0.94518,0.06 2.4096,-0.065 3.2541,-0.278 0.92239,-0.2322 1.61729,-0.2594 1.74041,-0.068 0.18247,0.28419 1.68679,0.10629 6.9443,-0.82222 1.18729,-0.20968 1.19628,-0.20259 0.58028,0.47803 -0.34398,0.3801 -1.08331,0.88109 -1.6433,1.11318 -0.93919,0.38891 -0.97121,0.45691 -0.40769,0.8759 0.4821,0.35862 0.53091,0.58632 0.2305,1.08 -0.4958,0.8145 -3.5151,2.32421 -6.4157,3.20861 -1.26481,0.3856 -2.97672,1.01579 -3.80441,1.40038 l -1.5048,0.69972 1.38341,-0.19741 c 2.16619,-0.3089 10.20299,-0.58078 10.20299,-0.3452 0,0.2217 -0.17219,0.45461 -1.4614,1.97559 -0.4495,0.53031 -3.90088,2.51241 -8.05019,4.62352 -7.8876,4.01299 -8.5063,4.41179 -7.8579,5.0601 0.32059,0.3206 1.62401,0.27559 5.80688,-0.19989 2.9664,-0.33721 5.47262,-0.53422 5.56861,-0.43831 0.30781,0.30779 -1.5408,1.3189 -3.5972,1.96789 -2.1296,0.6722 -2.222,0.87971 -1.095,2.4624 0.63211,0.8877 0.6451,1.0428 0.1638,1.9735 -0.50979,0.98581 -0.56078,1.0019 -2.1332,0.66662 -1.01899,-0.21741 -1.69101,-0.22231 -1.8278,-0.014 -0.11901,0.18151 -0.9784,0.43202 -1.90989,0.55661 -2.75331,0.36811 -4.35901,0.90202 -4.35901,1.44952 0,0.278 0.15549,0.50538 0.34581,0.50538 0.63321,0 0.3574,0.7153 -0.59071,1.53061 l -0.93689,0.80619 2.23398,0.25321 c 1.22862,0.1394 2.77842,0.4781 3.44422,0.75289 l 1.21078,0.4998 -0.86508,0.66501 c -0.47551,0.36581 -1.02812,0.6686 -1.2278,0.6728 -0.19971,0 -0.53861,0.1831 -0.7529,0.39749 -0.2889,0.2889 -0.1279,0.6096 0.6227,1.24121 0.5787,0.48689 1.0123,1.19211 1.0123,1.6469 0,0.63399 0.24378,0.84119 1.20049,1.0206 0.66022,0.1238 1.65791,0.61079 2.21739,1.08159 0.71522,0.60172 1.06622,0.7261 1.18131,0.4186 0.22231,-0.59359 1.22309,0.65029 1.493,1.85571 0.15721,0.70199 0.36171,0.86789 0.89651,0.72811 0.628,-0.1642 0.68001,-0.40942 0.5556,-2.61221 -0.12361,-2.1854 -0.094,-2.32891 0.294,-1.4201 0.23728,0.556 0.43839,1.19989 0.44699,1.4309 0.01,0.231 0.405,1.11699 0.88061,1.96889 0.56479,1.01172 0.8645,2.08881 0.8645,3.10581 0,1.40589 0.13751,1.66741 1.41748,2.7001 0.77963,0.629 1.92032,1.56499 2.53532,2.07939 1.0442,0.87381 1.1562,0.89731 1.6955,0.35819 0.61899,-0.61909 0.63558,-0.51048 0.7239,4.78261 0.018,1.04561 0.2415,1.79581 0.66249,2.2174 0.42931,0.42992 0.58711,0.97401 0.48469,1.67121 -0.259,1.76509 1.48762,4.4106 2.19792,3.32899 0.2734,-0.4164 0.41,-0.38651 0.8459,0.1851 0.28588,0.37499 0.42439,0.9199 0.3075,1.21071 -0.3339,0.83021 -0.57671,4.5062 -0.29771,4.5062 0.1379,0 0.88921,-0.5098 1.66971,-1.13271 0.78049,-0.62288 3.28689,-2.0397 5.56969,-3.1487 3.72221,-1.8083 6.05239,-2.97709 13.66221,-6.85229 1.2365,-0.62971 2.3259,-1.23991 2.42099,-1.35601 0.37689,-0.46019 2.42879,-1.34509 3.1187,-1.34509 0.89579,0 1.9629,-0.52901 3.1073,-1.54051 0.4756,-0.42029 2.26551,-1.3707 3.9775,-2.11148 1.71211,-0.74092 3.1905,-1.44791 3.28559,-1.57091 0.35372,-0.458 5.47021,-3.0784 6.01051,-3.0784 0.30861,0 0.5612,-0.11769 0.5612,-0.26149 0,-0.29041 1.92209,-1.21582 2.82931,-1.36221 0.31959,-0.052 0.9833,-0.4663 1.47479,-0.92191 0.78159,-0.7243 1.3748,-0.96251 3.6164,-1.45259 0.2662,-0.058 0.59521,-0.2853 0.73069,-0.5044 0.13542,-0.21911 0.34521,-0.38511 0.46659,-0.36891 0.91462,0.12231 1.63111,-0.047 2.07382,-0.4894 0.2853,-0.2853 0.99699,-0.5188 1.5813,-0.5188 0.5843,0 1.0619,-0.1185 1.0619,-0.2636 0,-0.1451 0.34741,-0.41781 0.77211,-0.60569 0.42458,-0.1878 0.95808,-0.71699 1.18489,-1.1766 0.22691,-0.45961 1.23201,-1.73791 2.23401,-2.8407 1.9876,-2.18749 2.2738,-2.2013 3.31039,-0.15401 0.29601,0.58452 3.60489,4.17571 7.35301,7.98041 7.3575,7.4684 8.93,9.52389 12.5703,16.42899 2.45819,4.66291 3.6264,7.85072 4.60848,12.57601 0.50799,2.4442 0.7248,2.96389 1.15761,2.7781 1.88111,-0.80761 3.52851,-1.28489 5.08751,-1.47431 l 1.78851,-0.21759 -1.17773,-1.72911 c -0.64769,-0.95109 -1.18049,-1.84319 -1.1834,-1.98228 0,-0.13901 0.39899,-0.35452 0.893,-0.4785 l 0.89821,-0.22532 -0.89821,-0.83248 c -0.99909,-0.92642 -1.18128,-1.8428 -0.36689,-1.8428 0.41841,0 0.4546,-0.14243 0.1716,-0.6713 -0.55379,-1.0346 0.6772,-1.75721 2.3425,-1.37512 0.70299,0.1611 2.1028,0.1986 3.1109,0.083 1.88149,-0.21619 4.4049,0.3188 7.67858,1.6278 0.85613,0.34221 2.13942,0.73062 2.85153,0.86301 1.4143,0.26318 3.21137,1.98909 3.57339,3.43181 0.11511,0.45839 0.4406,0.9221 0.72299,1.0305 0.42951,0.16478 0.39622,0.3456 -0.20418,1.10889 -0.77632,0.987 -0.98981,3.37749 -0.33741,3.78069 0.80569,0.498 2.99851,4.3371 3.91972,6.8626 l 0.96419,2.6438 2.46969,1.2056 c 2.22078,1.08399 2.53541,1.36601 3.1264,2.8014 0.4101,0.9959 0.63461,2.29352 0.59679,3.45041 l -0.061,1.8542 0.89509,-0.3401 c 0.4922,-0.18711 2.20919,-0.44129 3.8158,-0.5648 3.73699,-0.28721 5.20951,0.29048 6.71429,2.63549 1.01,1.5739 1.02672,1.66801 0.60871,3.44371 -0.29549,1.2556 -0.94222,2.46221 -2.07119,3.8649 -0.90281,1.12159 -1.579,2.0397 -1.50219,2.0397 0.077,0 0.94638,-0.41881 1.9322,-0.9302 2.01178,-1.0437 2.5781,-0.91421 3.45969,0.79119 0.2853,0.55192 0.54918,1.0601 0.58649,1.1291 0.037,0.069 1.2047,-0.6305 2.59419,-1.5545 1.3894,-0.92379 3.3819,-2.1241 4.4282,-2.667 1.04632,-0.54279 1.98023,-1.0885 2.07532,-1.2128 0.095,-0.1243 1.58839,-0.5887 3.31858,-1.0315 4.9277,-1.26109 11.91159,-1.08588 16.56962,0.4155 1.87168,0.6032 5.04829,2.20911 6.95819,3.51761 0.7384,0.50591 1.6928,1.05619 2.12079,1.22269 0.42802,0.1664 0.77819,0.47411 0.77819,0.68371 0,0.2096 0.474,0.85479 1.0532,1.43399 1.37923,1.37922 3.58871,4.8406 5.69633,8.924 l 1.6955,3.2861 -0.071,4.44161 c -0.082,5.1758 -0.43759,7.70001 -1.59678,11.33941 -1.20412,3.77999 -2.01221,5.18419 -4.02612,6.99489 l -1.77919,1.59941 1.24479,1.69648 c 1.65281,2.2515 2.76931,4.77422 3.68361,8.32461 0.61978,2.4067 0.7262,3.60519 0.60399,6.7954 l -0.1483,3.8726 2.6991,0.58349 c 2.0579,0.44471 2.86152,0.7902 3.38531,1.45621 0.82539,1.04929 0.59029,1.651 -1.21229,3.097 l -1.24331,0.9973 1.76369,2.6748 c 0.97001,1.47119 2.0788,3.41059 2.46441,4.3103 0.7076,1.6506 1.2124,3.78201 1.47899,5.9831 h 0.3256 v -500.00108 z m 315.340874,366.33272 c 0.092,0 0.17111,0.028 0.214999,0.072 0.088,0.088 -0.068,0.1505 -0.347289,0.13899 -0.30818,-0.013 -0.370711,-0.075 -0.159591,-0.15971 0.095,-0.038 0.19999,-0.055 0.291881,-0.051 z m -8.70899,0.01 c 0.119901,0 0.23981,0.018 0.3307,0.055 0.1819,0.073 0.033,0.1334 -0.3307,0.1334 -0.36381,0 -0.51261,-0.06 -0.33071,-0.1334 0.091,-0.036 0.21082,-0.055 0.33071,-0.055 z m -5.584699,0.49451 c 0.073,0 -0.271591,0.4168 -0.765301,0.92609 -0.493689,0.50932 -0.95711,0.92602 -1.029899,0.92602 -0.073,0 0.271709,-0.4167 0.765309,-0.92602 0.493691,-0.50929 0.95719,-0.92609 1.029891,-0.92609 z m 16.555588,1.7095 c 0.0161,0.01 0.034,0.031 0.05201,0.077 0.073,0.1819 0.073,0.4795 0,0.66141 -0.073,0.1819 -0.1333,0.033 -0.1333,-0.33071 0,-0.27289 0.033,-0.42508 0.081,-0.40719 z m -0.33689,4.14599 c 0.046,0.013 0.129011,0.11462 0.246011,0.3157 0.15438,0.26562 0.225179,0.53861 0.157109,0.60672 -0.068,0.068 -0.198199,-0.07 -0.28893,-0.30591 -0.1596,-0.4158 -0.19,-0.63871 -0.11419,-0.61651 z m -25.842888,5.11911 c -0.035,-0.043 -0.3978,0.40812 -1.0604,1.3286 -0.44309,0.6155 -0.54782,0.87231 -0.25011,0.61331 0.281599,-0.2449 0.7375,-0.84021 1.01291,-1.32289 0.22148,-0.38841 0.3185,-0.59301 0.2976,-0.61902 z m 28.224078,0.1725 c 0.04599,0.013 0.129121,0.1146 0.246011,0.31581 0.15449,0.26548 0.225299,0.53909 0.157109,0.60719 -0.068,0.068 -0.19812,-0.07 -0.28882,-0.30649 -0.15959,-0.41582 -0.18999,-0.6386 -0.1143,-0.61651 z m 0.591721,1.76329 c 0.0209,-0.0111 0.045,0.029 0.07,0.12552 0.067,0.25749 0.062,0.61468 -0.0101,0.79381 -0.072,0.17909 -0.127319,-0.032 -0.12192,-0.46821 v 0 c 0,-0.27281 0.027,-0.4327 0.062,-0.45112 z m -33.838199,4.9221 c 0.027,-0.0101 0.052,-1.8e-4 0.072,0.0201 0.082,0.081 -1e-4,0.2949 -0.18089,0.4744 -0.2613,0.25942 -0.29141,0.22881 -0.1478,-0.1483 0.074,-0.19579 0.17619,-0.32708 0.25689,-0.34618 z m 29.634888,7.65381 c 0.0151,0 0.032,0.079 0.05,0.25012 0.057,0.54898 0.057,1.38239 0,1.85208 -0.058,0.46971 -0.10559,0.0209 -0.1044,-0.9978 0,-0.7003 0.0241,-1.1008 0.056,-1.1044 z m 0.256811,4.10671 c 0.014,0.01 0.03,0.043 0.047,0.10649 0.067,0.25461 0.067,0.6713 0,0.9261 -0.067,0.25461 -0.120891,0.046 -0.120891,-0.4631 0,-0.3819 0.031,-0.59439 0.074,-0.56949 z m -19.756909,0.04 c -0.064,0 -0.81849,0.86321 -1.676401,1.91821 -0.857889,1.05507 -1.323109,1.73958 -1.033489,1.52138 0.28958,-0.21839 0.099,0.0201 -0.42281,0.52911 -0.522101,0.5093 -0.7602,0.80701 -0.52908,0.66149 0.23108,-0.1455 -0.0101,0.1521 -0.529221,0.6614 -0.522109,0.5093 -0.76021,0.80711 -0.5292,0.66151 0.23112,-0.14552 -0.014,0.15208 -0.545089,0.66149 -1.240501,1.1902 -3.0298,3.5502 -2.1064,2.7781 0.57269,-0.47879 0.56218,-0.43469 -0.10901,0.46302 -0.40799,0.54567 -0.80161,0.99218 -0.8749,0.99218 -0.073,0 0.0151,-0.1787 0.1959,-0.3969 0.18111,-0.21831 0.2608,-0.3969 0.17719,-0.3969 -0.084,0 -0.53779,0.56549 -1.00978,1.2568 -0.48131,0.70501 -0.64162,1.08259 -0.36481,0.85989 0.33211,-0.26699 0.25101,-0.029 -0.24799,0.72761 -0.40791,0.61841 -0.79222,1.1245 -0.85421,1.1245 -0.062,0 -0.039,-0.11901 0.051,-0.26461 0.09,-0.14549 0.1066,-0.26458 0.037,-0.26458 -0.3106,0 -1.24529,1.87478 -1.07339,2.15289 0.11729,0.1897 0.078,0.23971 -0.102309,0.12861 -0.368811,-0.22802 -1.205001,1.32429 -1.000501,1.8573 0.082,0.2127 0.04001,0.31991 -0.092,0.2382 -1.1117,-0.68709 -1.25521,5.8152 -0.22479,10.17508 0.395571,1.67352 1.028781,5.72162 1.40768,8.99581 0.37891,3.27419 0.85681,6.9056 1.06202,8.06979 0.20507,1.16422 0.37549,2.2756 0.37819,2.46962 0.0119,0.84828 0.64418,0.027 0.975201,-1.266 v 0 c 0.199389,-0.77909 0.293289,-1.66629 0.208199,-1.97152 -0.1008,-0.36179 -0.074,-0.43899 0.078,-0.22169 0.29059,0.41561 1.2446,-2.43869 0.96589,-2.8897 -0.10819,-0.175 -0.071,-0.2313 0.087,-0.13341 0.35732,0.22091 0.97739,-1.27359 0.716199,-1.72598 -0.110099,-0.1906 -0.098,-0.25392 0.0259,-0.14052 0.45479,0.41381 3.78089,-6.0724 4.4618,-8.70079 0.59459,-2.2955 0.89529,-4.8391 1.216999,-10.29079 0.154491,-2.61929 0.454401,-7.0843 0.666091,-9.9219 0.61719,-8.27572 0.7389,-10.3187 0.61492,-10.3187 z m -0.275491,0.71049 c 0.018,-0.0101 0.032,-0.0101 0.04,0 0.065,0.055 -0.283289,0.48321 -0.774589,0.95141 -0.89311,0.8513 -0.893,0.8513 -0.118801,-0.10001 0.37261,-0.45738 0.727211,-0.8083 0.8537,-0.85209 z m -4.973789,6.1686 c 0.014,0.014 -0.066,0.12139 -0.23101,0.33131 -0.34571,0.44069 -0.5628,0.5805 -0.5628,0.36269 0,-0.055 0.20839,-0.26328 0.463,-0.46299 0.20989,-0.16449 0.3171,-0.24461 0.33081,-0.23101 z m -0.79381,1.05841 c 0.014,0.014 -0.066,0.12079 -0.23101,0.33071 -0.34559,0.44079 -0.56268,0.58099 -0.56268,0.3633 0,-0.055 0.20828,-0.26321 0.46299,-0.4631 0.20979,-0.16452 0.3171,-0.24461 0.3307,-0.23091 z m -7.0476,11.4685 c 0.0241,0 0.053,0.044 0.085,0.12348 0.076,0.191 0.067,0.4196 -0.0209,0.50752 -0.088,0.088 -0.150521,-0.068 -0.139011,-0.34731 0.0101,-0.19259 0.035,-0.2898 0.075,-0.28369 z m -0.26461,3.96931 c 0.0241,0 0.053,0.044 0.085,0.12297 0.076,0.19101 0.067,0.4195 -0.0209,0.50742 -0.088,0.088 -0.15049,-0.068 -0.139009,-0.34721 0.01,-0.1927 0.035,-0.2893 0.075,-0.28318 z m 1.85211,10.05358 c 0.0241,0 0.053,0.044 0.085,0.12351 0.076,0.191 0.067,0.4196 -0.0209,0.5075 -0.088,0.088 -0.15052,-0.068 -0.13901,-0.3473 0.0101,-0.19261 0.035,-0.2898 0.075,-0.28371 z m 0.292001,2.1477 c 0.0161,0.0101 0.033,0.03 0.052,0.076 0.073,0.1819 0.073,0.47951 0,0.66141 -0.073,0.1819 -0.13341,0.033 -0.13341,-0.33071 0,-0.27289 0.034,-0.42449 0.082,-0.40669 z m 5.848188,0.67181 c 0.073,0 0.0101,0.23759 -0.150889,0.52869 -0.15582,0.29101 -0.34272,0.52911 -0.415511,0.52911 -0.073,0 -0.01,-0.2381 0.150901,-0.52911 0.155809,-0.2911 0.34271,-0.52869 0.415499,-0.52869 z m -5.583689,1.70939 c 0.0159,0.01 0.033,0.03 0.05201,0.076 0.073,0.18191 0.073,0.48009 0,0.66199 -0.073,0.1819 -0.133301,0.033 -0.133301,-0.3312 0,-0.27289 0.034,-0.42461 0.082,-0.4068 z m -163.092305,1.9653 c 0.072,-0.019 0.1788,0.103 0.2542,0.29922 0.1789,0.46619 0.026,0.54819 -0.23459,0.1261 -0.096,-0.15521 -0.11741,-0.33891 -0.048,-0.40831 0.01,-0.01 0.018,-0.014 0.028,-0.0169 z m 163.356885,0.15139 c 0.0161,0.0101 0.033,0.031 0.052,0.076 0.073,0.1819 0.073,0.4795 0,0.6614 -0.073,0.1819 -0.1333,0.033 -0.1333,-0.3307 0,-0.27281 0.034,-0.4245 0.082,-0.40672 z m 0.2372,2.08622 c 0.0241,0 0.053,0.044 0.085,0.123 0.076,0.191 0.067,0.4195 -0.0209,0.50739 -0.088,0.088 -0.15049,-0.068 -0.138879,-0.34718 0.0101,-0.19262 0.035,-0.28933 0.075,-0.28321 z m 0.26461,1.85211 c 0.0241,0 0.05299,0.044 0.085,0.12297 0.076,0.19101 0.067,0.41942 -0.0209,0.50742 -0.088,0.088 -0.15049,-0.068 -0.13901,-0.34721 0.0101,-0.1927 0.035,-0.2893 0.075,-0.28318 z m 0.26461,1.5875 c 0.0241,0 0.053,0.044 0.085,0.12297 0.076,0.19101 0.067,0.41942 -0.0209,0.50742 -0.088,0.088 -0.15052,-0.068 -0.13901,-0.34721 0.0101,-0.1927 0.035,-0.2893 0.075,-0.28318 z m 0.26459,1.05828 c 0.0241,0 0.053,0.044 0.085,0.123 0.076,0.191 0.067,0.4196 -0.0209,0.5075 -0.088,0.088 -0.15049,-0.068 -0.13898,-0.34729 0.0101,-0.19259 0.035,-0.2893 0.075,-0.28321 z m -156.152195,12.1879 c 0.014,0.01 0.03,0.043 0.047,0.10641 0.066,0.25469 0.066,0.67141 0,0.9261 -0.067,0.25468 -0.12101,0.046 -0.12101,-0.463 0,-0.382 0.031,-0.59452 0.074,-0.56951 z m 36.64161,0.60409 c 0.11989,0 0.23979,0.018 0.33079,0.055 0.1819,0.073 0.033,0.1333 -0.33079,0.1333 -0.36381,0 -0.51261,-0.06 -0.33071,-0.1333 0.091,-0.036 0.2109,-0.055 0.33071,-0.055 z m 6.84509,0.26202 c 0.1918,0 0.3738,0.0201 0.5002,0.055 0.253,0.066 -0.016,0.11818 -0.5984,0.1152 -0.5821,0 -0.789,-0.057 -0.4599,-0.12042 v 0 c 0.1646,-0.032 0.3663,-0.047 0.5581,-0.045 z m -10.2846,0 c 0.1199,0 0.2397,0.018 0.3307,0.055 0.1819,0.073 0.033,0.13329 -0.3307,0.13329 -0.3638,0 -0.5127,-0.06 -0.3308,-0.13329 0.091,-0.036 0.21091,-0.055 0.3308,-0.055 z m 20.1083,0.26458 c 0.1199,0 0.2398,0.018 0.3307,0.055 0.1819,0.073 0.033,0.1338 -0.3307,0.1338 -0.3638,0 -0.5126,-0.06 -0.3307,-0.1338 0.091,-0.036 0.2108,-0.055 0.3307,-0.055 z m -29.1383,0.79171 c 0.1918,0 0.37381,0.0201 0.5003,0.055 0.25291,0.066 -0.016,0.11758 -0.5985,0.1147 -0.5821,0 -0.78899,-0.057 -0.4599,-0.12041 v 0 c 0.16461,-0.032 0.3663,-0.047 0.5581,-0.045 z m -1.5751,0 c 0.092,0 0.171,0.028 0.21501,0.072 0.088,0.088 -0.068,0.15049 -0.34731,0.13901 -0.3082,-0.013 -0.3712,-0.075 -0.1602,-0.1597 0.096,-0.038 0.2006,-0.055 0.2925,-0.051 z m -1.5658,0.26361 c 0.1679,0 0.33571,0.0169 0.4631,0.051 0.25461,0.067 0.046,0.12092 -0.4631,0.12092 -0.5093,0 -0.71769,-0.054 -0.463,-0.12092 0.12731,-0.033 0.2952,-0.051 0.463,-0.051 z m -3.1967,0.79481 c 0.092,0 0.17101,0.028 0.215,0.072 0.088,0.088 -0.068,0.1505 -0.3473,0.13899 -0.3082,-0.013 -0.37119,-0.075 -0.1602,-0.15971 0.095,-0.038 0.2006,-0.055 0.2925,-0.051 z m -6.06679,2.34508 c 0.022,0.0101 -0.055,0.11351 -0.22791,0.3338 -0.1997,0.25471 -0.6164,0.44939 -0.92599,0.43251 -0.53471,-0.029 -0.53631,-0.037 -0.034,-0.16071 0.291,-0.072 0.70771,-0.26619 0.926,-0.43248 0.1295,-0.099 0.2113,-0.15701 0.246,-0.17061 0.01,0 0.012,0 0.015,0 z m -4.96761,2.4039 c 0.034,0 0.063,0.0111 0.083,0.032 0.082,0.082 -0.066,0.22979 -0.3266,0.3292 -0.3771,0.14359 -0.4072,0.113 -0.1478,-0.1483 0.1346,-0.1356 0.2883,-0.2154 0.3912,-0.21241 z m -1.0584,0.26461 c 0.034,0 0.063,0.0111 0.083,0.032 0.082,0.082 -0.066,0.22981 -0.32661,0.32922 -0.3771,0.14359 -0.4071,0.11297 -0.1478,-0.1483 0.1346,-0.13571 0.2884,-0.21543 0.3912,-0.21241 z m -2.32019,1.69759 c 0.05,-0.0151 -0.07,0.13729 -0.36181,0.4677 -0.7503,0.84881 -0.81389,0.87101 -0.81389,0.2847 0,-0.2426 0.08,-0.3615 0.17729,-0.26408 0.097,0.097 0.42471,-0.031 0.7276,-0.28472 0.1504,-0.1261 0.241,-0.19479 0.27081,-0.2036 z m 111.27738,16.2796 c 0.011,-0.0111 0.16021,0.1148 0.45791,0.3669 0.5594,0.47371 0.716,0.6868 0.50429,0.6868 -0.05,0 -0.31809,-0.26789 -0.59529,-0.59531 v 0 c -0.252,-0.29768 -0.3783,-0.44648 -0.36691,-0.45789 z m 2.1115,1.8506 c -0.014,0.014 0.066,0.12081 0.23101,0.33071 0.34559,0.44069 0.5627,0.5811 0.5627,0.36329 0,-0.055 -0.20831,-0.26339 -0.463,-0.4631 -0.2098,-0.16449 -0.31701,-0.2446 -0.33071,-0.2309 z m -192.92308,6.4352 c -0.081,0 -0.269,0.066 -0.4873,0.17931 -0.2911,0.1557 -0.5292,0.34279 -0.5292,0.4155 0,0.073 0.2381,0 0.5292,-0.15089 0.291,-0.15571 0.5292,-0.34272 0.5292,-0.41551 0,-0.018 -0.015,-0.027 -0.042,-0.028 z"
         style="opacity:1;fill:#5bc6d0;fill-opacity:1;fill-rule:nonzero;stroke:none;stroke-width:2.61628103;stroke-linecap:square;stroke-linejoin:miter;stroke-miterlimit:4;stroke-dasharray:none;stroke-dashoffset:0;stroke-opacity:1;paint-order:normal"
         inkscape:connector-curvature="0" />
      <path
         style="opacity:1;fill:#001719;fill-opacity:1;fill-rule:nonzero;stroke:none;stroke-width:2.01682925;stroke-linecap:square;stroke-linejoin:miter;stroke-miterlimit:4;stroke-dasharray:none;stroke-dashoffset:0;stroke-opacity:1;paint-order:normal"
         d="m 367.08435,-416.5581 c -0.28112,0 -1.21378,2.61064 -2.0247,5.66735 -1.25619,4.7358 -1.70802,8.82311 -1.44849,13.09841 0.1833,3.0182 0.13473,3.76777 -0.25321,3.91657 -0.30376,0.1166 -0.56366,1.0051 -0.709,2.42311 -0.1261,1.23129 -0.3248,2.71581 -0.44132,3.29851 l -0.21188,1.05936 -1.02939,-1.65468 c -3.55219,-5.70698 -6.27499,-9.51997 -7.84138,-10.98227 -0.98861,-0.92281 -1.84697,-1.62348 -1.90791,-1.55649 -0.061,0.067 0.28128,2.57834 0.76018,5.58104 0.479,3.0026 0.78687,5.54315 0.68418,5.64565 -0.1026,0.1028 -0.67588,-0.0661 -1.27381,-0.37517 -0.5979,-0.30959 -1.36133,-0.47536 -1.69653,-0.36897 -0.4658,0.1478 -1.27013,-0.68453 -3.40961,-3.52742 -3.99661,-5.3104 -9.52121,-10.80053 -12.23132,-12.15483 -1.1861,-0.59258 -2.37056,-1.07746 -2.63186,-1.07746 -0.2613,0 -1.2428,-0.38904 -2.18128,-0.86453 -0.9385,-0.47561 -1.87187,-0.86508 -2.07428,-0.86508 -0.45008,0 1.21304,2.63081 4.76663,7.5396 1.47381,2.03581 3.1137,4.37234 3.64421,5.19244 1.45809,2.25391 5.6016,10.2852 6.77479,13.13098 l 1.03767,2.51667 -2.41639,-1.8247 c -1.32865,-1.00362 -3.58608,-2.72931 -5.01676,-3.83493 -7.04921,-5.4474 -13.25843,-8.7971 -20.55895,-11.0913 -4.14199,-1.30149 -5.33725,-1.49162 -5.69886,-0.90641 -0.12141,0.1964 0.17182,0.34573 0.6785,0.34573 1.08241,0 6.22311,2.38871 8.63153,4.01061 l 1.74871,1.17768 -3.97288,0.0372 c -2.18508,0.02 -4.43984,-0.0178 -5.01054,-0.0847 -2.21801,-0.2595 -4.95462,-0.0661 -7.52203,0.53123 -1.47378,0.3429 -2.60612,0.74282 -2.51611,0.88832 0.09,0.1456 1.1402,0.45167 2.33371,0.68058 4.064,0.77928 5.43007,1.3376 7.45379,3.04631 1.08892,0.9194 3.1129,2.43409 4.49791,3.36569 3.1096,2.09182 4.03545,3.1084 1.45937,1.6025 -6.00232,-3.5088 -9.79676,-4.3765 -17.81236,-4.07213 -2.6633,0.10113 -5.21753,0.32335 -5.67614,0.49456 -1.43711,0.53639 -1.06153,0.59849 10.69547,1.76631 2.85501,0.28361 2.99159,0.33888 4.51548,1.81229 0.86432,0.8355 2.7046,2.37519 4.0902,3.42149 1.95281,1.4747 3.11486,2.75238 5.16919,5.68338 1.45751,2.07949 3.47895,4.95826 4.49223,6.39805 1.0133,1.43981 2.08256,3.07347 2.37556,3.63026 l 0.53226,1.01235 -1.33736,-1.04283 c -2.76802,-2.16029 -9.91886,-6.54129 -14.13455,-8.65838 -5.70542,-2.8652 -7.96835,-3.92552 -8.39536,-3.91552 -0.24188,0 -1.79819,-0.52107 -3.45869,-1.16427 -4.26489,-1.65221 -4.60935,-1.74228 -4.38165,-1.14877 0.1838,0.47901 5.40768,4.33785 11.04738,8.16073 10.48631,7.10811 12.79242,8.70501 15.56443,10.77609 1.71207,1.2792 3.81286,2.96642 4.66897,3.74964 l 1.55649,1.42317 -2.59365,-1.16168 c -1.42669,-0.63878 -4.48451,-1.87976 -6.79493,-2.75796 -3.7719,-1.43381 -4.5136,-1.60015 -7.26363,-1.63814 -3.65937,-0.05 -6.11867,-0.51107 -7.64606,-1.43198 -2.27222,-1.36999 -1.83526,-0.35303 0.78084,1.81695 1.4801,1.22771 3.58235,3.01042 4.67156,3.96152 1.08921,0.95121 3.40937,2.81803 5.15625,4.14962 12.26953,9.35281 15.38907,12.10964 16.75196,14.80323 0.52592,1.03939 1.81177,2.80379 2.85719,3.92017 2.86602,3.0607 2.87671,3.07782 1.51669,2.38022 -1.0828,-0.5552 -5.42136,-3.41837 -12.47415,-8.23206 -3.94319,-2.6914 -10.20897,-5.68624 -12.75479,-6.09627 -1.2251,-0.1959 -2.30045,-0.28532 -2.39004,-0.19534 -0.2614,0.26151 0.59026,1.89447 0.98806,1.89447 0.1991,0 1.35202,0.92117 2.56212,2.0469 2.35202,2.18807 6.56519,5.37694 12.09797,9.15654 4.57229,3.12359 6.4071,4.48585 6.4234,4.76922 0.025,0.43312 -1.86267,-0.32711 -4.82865,-1.94562 -1.61692,-0.8823 -3.98515,-1.98215 -5.26275,-2.44326 -2.54291,-0.91768 -7.9172,-2.32389 -8.11734,-2.12389 -0.49971,0.49969 1.11824,1.85078 6.31643,5.27253 6.2824,4.13555 11.75462,8.30321 15.13551,11.52954 2.83541,2.70579 7.24533,8.74025 4.639,6.34794 -1.72887,-1.5869 -4.64315,-2.99025 -10.34667,-4.98213 -8.4242,-2.94212 -10.31928,-3.41294 -10.31928,-2.56884 0,0.928 1.77634,2.58225 3.96566,3.69435 1.21309,0.61621 2.5682,1.41237 3.0112,1.76837 l 0.80563,0.64801 -1.12448,-0.19378 c -0.6182,-0.1061 -1.60462,-0.28609 -2.1921,-0.39997 -0.99193,-0.19232 -1.04119,-0.15695 -0.68887,0.50125 0.2086,0.38979 1.62319,1.45484 3.14349,2.36575 2.74891,1.64751 3.42876,2.29211 2.03295,1.92701 -0.65413,-0.171 -0.68919,-0.11435 -0.33539,0.54674 0.21752,0.40632 0.89636,0.99306 1.50895,1.30328 1.56839,0.7942 6.14653,3.6916 6.02496,3.8132 -0.055,0.055 -0.79714,-0.10874 -1.64796,-0.36483 -1.47688,-0.44429 -7.6191,-1.23817 -9.5808,-1.23817 h -0.92967 l 0.86815,0.86868 c 0.4775,0.4776 1.94951,1.26058 3.27113,1.73995 2.76137,1.00158 3.67532,1.64105 1.68052,1.17615 -0.7366,-0.17179 -2.66244,-0.39626 -4.27931,-0.49815 -2.72423,-0.17172 -2.88883,-0.14497 -2.24793,0.36174 0.3805,0.30077 1.78086,1.09085 3.11245,1.75596 1.93829,0.968 9.20531,5.41575 12.50469,7.65328 0.52816,0.35827 0.22349,0.39508 -1.76012,0.21238 -3.45958,-0.31869 -4.74784,-0.27527 -6.20995,0.20722 -0.83659,0.27612 -1.23349,0.59018 -1.11932,0.88781 0.11652,0.30369 -0.19958,0.53234 -0.92708,0.67024 -2.28909,0.43411 -4.04471,0.97428 -4.04471,1.24437 0,0.1538 0.7397,0.37473 1.64333,0.49093 3.81037,0.49009 9.42149,2.43557 9.17308,3.18069 -0.073,0.21791 0.14856,0.4863 0.49196,0.59634 0.9693,0.31057 3.12471,2.37646 3.2675,3.13159 0.081,0.42648 0.51215,0.75792 1.16374,0.89453 0.56963,0.1194 1.82372,0.61941 2.78691,1.11103 2.29413,1.17089 5.20346,4.35303 4.04215,4.42093 -4.592,0.26979 -5.63563,0.54816 -5.61001,1.49706 0.01,0.2145 0.16885,0.11745 0.36277,-0.2155 0.30069,-0.51586 1.35599,-0.87871 1.35599,-0.46612 0,0.076 -0.52049,0.66043 -1.15703,1.2976 -0.75671,0.75774 -1.31738,1.78393 -1.62007,2.96674 l -0.46302,1.80817 -1.83864,-0.0786 c -1.5434,-0.067 -1.83843,-0.18476 -1.83864,-0.73276 -1.1e-4,-0.4907 -0.26525,-0.31837 -1.06815,0.69194 -0.90599,1.14009 -1.03653,1.54051 -0.86043,2.64117 0.11409,0.71369 0.065,1.2976 -0.10954,1.2976 -0.17438,0 -1.37808,1.02521 -2.67477,2.2779 -1.2967,1.25281 -2.41427,2.10924 -2.48307,1.90273 -0.069,-0.20659 -0.33043,-0.37568 -0.58134,-0.37568 -0.5652,0 -1.39345,2.18852 -0.89143,2.35593 0.19021,0.063 0.44786,0.65944 0.57258,1.32394 0.1918,1.0223 0.077,1.36412 -0.7457,2.22261 -0.53472,0.55809 -1.13773,1.01748 -1.33996,1.01751 -0.58711,0 -1.9623,2.2615 -1.73632,2.85046 0.11303,0.29461 0.039,0.6387 -0.16383,0.7643 -0.2032,0.12557 -0.36949,1.01169 -0.36949,1.9699 0,2.13141 -0.85384,3.75172 -1.97713,3.75172 -0.6454,0 -0.79012,-0.18802 -0.79012,-1.02682 0,-0.77071 -0.12957,-0.97777 -0.51885,-0.82836 -0.28541,0.10948 -0.51882,0.36015 -0.51882,0.55655 0,0.1965 -0.27009,0.55523 -0.60048,0.79684 -0.56721,0.41469 -0.56083,0.53298 0.10954,2.11977 0.63921,1.51291 0.66172,1.79721 0.22895,2.85771 l -0.48062,1.17821 -0.75292,-0.9312 c -0.68501,-0.84748 -3.23128,-2.43797 -5.42187,-3.38584 -0.47551,-0.20582 -1.11784,-0.50221 -1.42732,-0.65887 -0.30941,-0.15682 -1.12673,-0.39108 -1.81592,-0.52038 -0.68921,-0.1293 -1.25849,-0.4118 -1.26452,-0.62839 -0.032,-1.1167 -5.91929,-4.87669 -8.28733,-5.29269 -0.47673,-0.084 -1.87857,-0.38757 -3.11508,-0.67594 -1.23647,-0.28852 -3.98782,-0.60486 -6.11433,-0.70175 -3.4013,-0.15581 -4.06196,-0.0904 -5.49167,0.54208 -1.90669,0.84346 -3.04368,0.89596 -5.0705,0.23564 -2.7791,-0.90541 -5.38861,-0.9642 -8.91831,-0.20154 -5.5612,1.20174 -11.86264,3.90512 -13.56196,5.81824 -0.5924,0.66699 -1.4198,1.14197 -2.24792,1.29038 -3.85448,0.69098 -8.92911,4.23796 -11.5936,8.10336 l -0.59584,0.86456 -0.89193,-1.03818 c -0.49049,-0.5707 -1.60518,-2.12709 -2.47738,-3.45871 -0.8723,-1.33159 -2.12704,-3.08105 -2.78794,-3.88813 -1.1779,-1.4383 -1.20359,-1.53771 -1.2981,-5.0152 -0.11229,-4.13171 -1.30725,-8.76364 -2.95124,-11.43961 -0.56301,-0.9162 -1.02372,-1.74527 -1.02372,-1.84227 0,-0.097 -0.68422,-1.06555 -1.52083,-2.15283 -1.29289,-1.68013 -3.27432,-3.56449 -5.80842,-5.52421 -0.32153,-0.24858 -1.95583,-0.73353 -3.63183,-1.07746 -2.72399,-0.55909 -3.0384,-0.70239 -2.96572,-1.35237 0.076,-0.68302 -0.0439,-0.7171 -1.9885,-0.56017 -1.13848,0.092 -2.97087,0.23913 -4.07159,0.3271 -2.94209,0.23498 -3.44088,0.0102 -4.28139,-1.94611 -0.40237,-0.93531 -1.01107,-1.84981 -1.35239,-2.03245 -1.59768,-0.85508 -4.13104,-0.01 -7.15975,2.39934 -1.00349,0.79701 -1.96673,1.36107 -2.14046,1.25368 -0.1738,-0.10729 -0.78269,-1.00881 -1.35339,-2.00351 -1.15959,-2.02099 -5.31009,-6.36262 -7.5768,-7.92612 -1.92008,-1.32429 -6.97539,-3.56293 -9.60096,-4.25143 -1.13342,-0.29739 -4.06342,-0.61166 -6.51124,-0.69866 -3.81288,-0.13509 -4.68018,-0.0635 -6.05284,0.49816 -0.88122,0.36039 -2.23954,0.74374 -3.01842,0.85214 -1.4197,0.19746 -6.0361,2.05388 -10.08621,4.05609 -4.0889,2.02139 -8.64404,8.0041 -10.90734,14.32677 -0.75324,2.10409 -0.88083,3.08054 -0.92864,7.09104 -0.053,4.4137 0.5928,11.10784 1.21542,12.60491 0.1582,0.38044 1.02444,2.05414 1.92495,3.71864 0.90048,1.6646 1.52255,3.02617 1.38234,3.02617 -0.1402,0 -1.02243,-0.22662 -1.96059,-0.50385 -0.93813,-0.27731 -3.88474,-0.66934 -6.54793,-0.87074 -2.66319,-0.20132 -6.42128,-0.5008 -8.35142,-0.66611 -8.15564,-0.69829 -16.01144,1.25833 -22.70715,5.6565 -1.08767,0.7144 -4.625256,4.31863 -6.805264,6.93343 -2.034884,2.44081 -5.406839,9.44388 -6.079199,12.62507 -1.3317,6.29991 -0.973164,13.9968 0.889847,19.10167 1.759903,4.82219 3.750336,7.48184 8.511117,11.37193 1.401599,1.1454 2.548679,2.20231 2.548679,2.3492 0,0.14679 -0.97089,0.53724 -2.157493,0.86712 -6.182492,1.71892 -12.367207,6.73979 -17.29351,14.03999 -1.800887,2.66869 -5.092515,9.12614 -5.101511,10.00765 0,0.27268 -0.306282,1.36215 -0.674873,2.42104 -0.393594,1.1307 -0.876591,4.20849 -1.136385,6.69261 -3.786399,-1.0487 -7.948507,-2.19348 -13.032793,-3.58066 -10.404819,-2.83877 -20.584583,-5.70965 -22.621874,-6.37945 -4.85701,-1.59689 -11.040401,-3.78989 -12.7,-4.50463 -0.436616,-0.18812 -2.103385,-0.80963 -3.704167,-1.38131 -5.005917,-1.78806 -9.665308,-3.80156 -9.482111,-4.09795 0.103585,-0.16801 0.04302,-0.1982 -0.153458,-0.077 -0.429498,0.26551 -4.2972568,-1.4246 -4.0767795,-1.78128 0.1016265,-0.16402 0.037121,-0.18971 -0.1643063,-0.0651 -0.4248943,0.2626 -2.9619574,-0.90723 -2.7414537,-1.26402 0.090011,-0.146 0.037015,-0.18793 -0.1178189,-0.092 -0.3992827,0.2467 -1.1548798,-0.092 -0.9487694,-0.42529 0.095012,-0.15372 0.045985,-0.19987 -0.1095639,-0.10388 -0.3700992,0.22871 -1.1615473,-0.081 -0.9756511,-0.38137 0.079984,-0.12901 -0.060008,-0.15584 -0.309536,-0.0599 -0.3059906,0.1174 -0.3922713,0.074 -0.2645833,-0.13229 0.11811,-0.19111 0.054001,-0.25395 -0.1715559,-0.16796 -0.6831806,0.2622 -10.1669848,-5.45777 -9.8634813,-5.94897 0.075009,-0.12229 -0.070115,-0.205 -0.3229769,-0.185 -0.2531004,0.0201 -0.4319852,-0.10856 -0.3974041,-0.28527 0.035004,-0.17687 -0.084005,-0.26757 -0.2645834,-0.20257 -0.5408877,0.19519 -11.4890553,-8.33958 -11.3672673,-8.86147 0.04,-0.17108 -0.039,-0.24215 -0.17518,-0.15812 -0.303795,0.1878 -3.89517,-2.72452 -3.79357,-3.07631 0.04,-0.13861 -0.02892,-0.18902 -0.152955,-0.11213 -0.35523,0.21947 -5.110983,-4.06463 -4.907201,-4.42042 0.098,-0.17034 0.08189,-0.22426 -0.03411,-0.11935 -0.262996,0.23759 -1.780963,-0.81301 -1.59938,-1.10691 0.073,-0.1179 -0.07501,-0.37677 -0.327633,-0.57516 -0.416401,-0.32638 -0.42545,-0.31667 -0.09663,0.10232 0.560493,0.71469 0.203094,0.54713 -0.515223,-0.24133 -0.352795,-0.38682 -0.463259,-0.6064 -0.244951,-0.4868 0.235479,0.12864 0.307631,0.11909 0.176741,-0.0243 -0.121311,-0.13237 -0.359357,-0.2427 -0.529166,-0.25271 -0.169783,-0.01 -0.276146,-0.16428 -0.236167,-0.35036 0.04,-0.18579 -0.03098,-0.27487 -0.156581,-0.19687 -0.213889,0.13208 -1.492144,-1.34504 -1.500161,-1.73374 0,-0.097 -0.112024,-0.27559 -0.244422,-0.39687 -0.141578,-0.1296 -0.16084,-0.0571 -0.04704,0.17621 0.106892,0.21817 0.01093,0.17108 -0.213413,-0.10491 -0.224499,-0.2762 -0.343482,-0.60664 -0.264583,-0.73432 0.07898,-0.1274 5.3e-5,-0.19968 -0.174149,-0.15968 -0.174492,0.04 -0.37711,-0.0919 -0.450612,-0.29456 -0.09001,-0.24649 -0.02201,-0.29853 0.20619,-0.15761 0.224393,0.13848 0.274796,0.10435 0.148299,-0.10025 -0.105278,-0.1745 -0.297127,-0.24432 -0.426323,-0.16434 -0.319193,0.1972 -1.119531,-1.39959 -0.888841,-1.77302 0.102499,-0.16558 0.06593,-0.22432 -0.08215,-0.13333 -0.357982,0.22143 -0.990309,-1.00449 -0.73279,-1.4211 0.123983,-0.2009 0.09723,-0.26371 -0.06975,-0.16071 -0.351816,0.21741 -0.981392,-1.27426 -0.717788,-1.70066 0.119407,-0.19312 0.08795,-0.25289 -0.07908,-0.14986 -0.328797,0.2032 -0.696118,-1.03986 -0.433043,-1.46555 0.103822,-0.16791 0.06178,-0.21889 -0.09922,-0.11989 -0.379386,0.23451 -2.042001,-6.65059 -2.744523,-11.3652 -0.7044,-4.728 -0.382534,-10.34449 0.559647,-9.7622 0.116099,0.072 0.282178,-0.053 0.368459,-0.27852 0.106494,-0.27739 0.05098,-0.34589 -0.171053,-0.21241 -0.247598,0.14867 -0.256355,0.10382 -0.03773,-0.18447 0.473419,-0.62349 0.647515,-1.30717 0.315225,-1.23817 -0.716624,0.1493 -0.873231,-1.37586 -0.204629,-1.99316 0.549777,-0.508 0.575177,-0.51358 0.184996,-0.0398 -0.493897,0.59928 -0.592216,1.31693 -0.21291,1.55133 0.131974,0.082 0.176319,-0.094 0.09872,-0.38965 -0.07898,-0.30316 0.0471,-0.74634 0.289375,-1.01442 0.236908,-0.26169 0.376132,-0.52985 0.309536,-0.59684 -0.06699,-0.067 0.141526,-0.41947 0.462518,-0.78447 0.320966,-0.36494 0.46437,-0.47934 0.31885,-0.25423 -0.230214,0.3565 -0.204365,0.36242 0.195844,0.0486 0.253101,-0.19841 0.405474,-0.44897 0.338984,-0.55655 -0.06599,-0.1076 0.06302,-0.42143 0.287338,-0.69765 0.224287,-0.27599 0.320939,-0.33462 0.214974,-0.1302 -0.123614,0.23791 -0.087,0.30665 0.101282,0.19015 0.161608,-0.10001 0.21926,-0.37639 0.128164,-0.61391 -0.09898,-0.2559 -0.0581,-0.36412 0.102818,-0.26511 0.341603,0.21119 -0.01487,-2.18998 -0.444924,-2.99257 -0.166978,-0.3121 -0.236299,-0.74359 -0.153987,-0.95808 0.08202,-0.21461 0.03598,-0.31959 -0.101812,-0.23461 -0.289295,0.17891 -1.035606,-1.19764 -1.958022,-3.61064 -0.352478,-0.92217 -0.732605,-1.90378 -0.844894,-2.18228 -0.143616,-0.35621 -0.112739,-0.45024 0.10488,-0.31575 0.170286,0.10509 0.309563,0.0757 0.309563,-0.0661 0,-0.14203 -0.148828,-0.31872 -0.330729,-0.39171 -0.197512,-0.079 -0.144278,-0.14211 0.132291,-0.15399 0.254688,-0.0111 0.463021,-0.14719 0.463021,-0.30128 0,-0.15759 0.0889,-0.22463 0.198438,-0.15762 0.109087,0.067 0.198437,-0.33091 0.198437,-0.88521 0,-0.5542 -0.109511,-0.94083 -0.243416,-0.85783 -0.133906,0.083 -0.168593,-0.044 -0.07699,-0.28112 0.198093,-0.51618 -0.16129,-0.77735 -1.179777,-0.85731 -0.984197,-0.077 -1.542018,-0.56298 -1.542018,-1.34307 0,-0.83601 -1.407928,-0.86675 -2.979129,-0.0651 -1.631897,0.83259 -2.606199,1.06355 -3.024108,0.71676 -0.268499,-0.22281 -0.474187,-0.18915 -0.835105,0.13745 -0.852276,0.77129 -2.049647,0.52657 -1.934236,-0.39531 0.01201,-0.092 -0.183012,-0.15129 -0.432012,-0.1323 -0.248893,0.019 -0.420925,-0.11877 -0.382429,-0.30694 0.05503,-0.26741 -0.05202,-0.27728 -0.490405,-0.0424 -0.308001,0.16161 -0.797163,0.23773 -1.087781,0.16174 -0.290592,-0.076 -0.457756,-0.0674 -0.371555,0.0186 0.253604,0.25358 -0.870055,0.91438 -1.204065,0.70798 -0.174176,-0.1074 -0.234024,-0.0715 -0.139012,0.0817 0.187801,0.3039 -2.019512,2.59053 -2.500604,2.59053 -0.171397,0 -0.344831,0.22646 -0.385524,0.50385 -0.04101,0.27752 -0.345361,0.75427 -0.676963,1.05886 -0.6028,0.55327 -0.602695,0.55256 -0.108506,-0.0429 1.014995,-1.22272 -0.05601,-0.53911 -1.449017,0.92448 -0.90469,0.95081 -1.024811,1.12911 -0.321416,0.47593 0.61849,-0.57459 1.124479,-0.96353 1.124479,-0.86452 0,0.099 -0.562663,0.68911 -1.25005,1.31051 -1.217692,1.1009 -1.584378,1.48386 -2.736268,2.85046 -0.540993,0.6419 -0.540888,0.63405 0.01601,-0.26459 0.574014,-0.92606 0.57412,-0.92657 -0.109564,-0.13279 -0.375999,0.43651 -0.628835,0.9389 -0.562239,1.1162 0.06699,0.17719 -0.01095,0.40436 -0.173117,0.50437 -0.177906,0.10999 -0.21926,0.061 -0.104881,-0.12403 0.103796,-0.16809 0.128217,-0.30541 0.05424,-0.30541 -0.238707,0 -2.649644,3.82566 -2.594663,4.11707 0.029,0.15463 -0.334116,0.63127 -0.807191,1.05884 -0.860002,0.77729 -0.860107,0.77668 -0.06615,-0.14933 0.793777,-0.9261 0.793935,-0.92573 -0.05683,-0.15761 -0.46781,0.42248 -0.798804,0.85113 -0.735886,0.95289 0.063,0.10192 -0.07009,0.41119 -0.294031,0.68731 -0.224182,0.27609 -0.320966,0.33504 -0.214974,0.13073 0.127899,-0.24617 0.08797,-0.30734 -0.117317,-0.18034 -0.170312,0.10531 -0.249634,0.2879 -0.176212,0.40669 0.223097,0.36089 -0.415422,1.96782 -0.977715,2.46031 -0.290777,0.25461 -0.433281,0.46252 -0.316785,0.46252 0.116496,0 -0.167773,0.37145 -0.631984,0.82526 -0.464212,0.45389 -0.843889,0.93694 -0.843889,1.07384 0,0.1365 -0.09911,0.18814 -0.220662,0.11316 -0.121312,-0.075 -0.220636,0.0106 -0.220636,0.19172 0,0.83029 -12.021317,16.46637 -12.382209,16.10548 -0.101918,-0.10219 -0.147664,-0.0659 -0.101283,0.0791 0.119301,0.37449 -1.134506,1.99361 -1.411287,1.82261 -0.126021,-0.078 -0.196585,-0.0241 -0.15658,0.12094 0.115702,0.41796 -2.428928,2.98945 -2.757435,2.78638 -0.165814,-0.10208 -0.220901,-0.0615 -0.125598,0.0925 0.093,0.15041 -0.751469,1.02542 -1.876874,1.94458 -2.692427,2.1989 -12.36218,11.86624 -13.80588,13.80228 -0.62278,0.83529 -1.25651,1.44275 -1.4082,1.34874 -0.15689,-0.097 -0.19703,-0.0435 -0.093,0.12454 0.10052,0.16259 -0.13943,0.806 -0.53329,1.42989 -5.44662,8.62721 -8.70324,24.9147 -6.86574,34.3395 1.5253,7.82341 4.12664,17.11 6.28075,22.42241 0,0.0101 0.01,0.02 0.0108,0.03 -0.1339,-0.18243 -0.2232,-0.32866 -0.2346,-0.40619 -0.09,-0.61579 -0.69366,-1.24409 -1.05936,-1.10378 -0.43638,0.1675 -2.59856,-1.71429 -2.37867,-2.07018 0.10581,-0.171 0.05,-0.2058 -0.14211,-0.0873 -0.3959,0.24461 -1.14269,-0.3403 -0.91157,-0.71419 0.094,-0.15181 0.0499,-0.20156 -0.0961,-0.11056 -0.3425,0.21171 -1.27021,-0.46152 -1.27021,-0.92139 0,-0.19354 -0.23807,-0.35171 -0.52917,-0.35192 -0.29098,-1.6e-4 -0.50457,-0.13555 -0.47387,-0.30025 0.031,-0.1646 -0.14798,-0.28358 -0.39687,-0.26458 -0.249,0.019 -0.42374,-0.10917 -0.38913,-0.28578 0.039,-0.19849 -0.10463,-0.25739 -0.37413,-0.15399 -0.27228,0.10433 -0.37199,0.0619 -0.26459,-0.11163 0.098,-0.15941 -0.026,-0.26439 -0.28732,-0.24339 -0.2531,0.0201 -0.43148,-0.10853 -0.39687,-0.28524 0.039,-0.19839 -0.10515,-0.25649 -0.37466,-0.15296 -0.3167,0.12139 -0.37655,0.071 -0.21962,-0.18293 0.14409,-0.23305 0.1142,-0.28705 -0.0884,-0.16177 -0.327,0.2022 -1.46062,-0.45185 -1.21284,-0.69969 0.082,-0.082 -0.068,-0.13041 -0.33228,-0.10853 -0.27282,0.023 -0.44955,-0.11168 -0.40825,-0.31057 0.04,-0.19751 -0.039,-0.28141 -0.17467,-0.1974 -0.33439,0.20661 -1.11962,-0.11367 -0.95032,-0.38757 0.074,-0.1203 4e-5,-0.30501 -0.17467,-0.41031 -0.19349,-0.11949 -0.23882,-0.077 -0.12092,0.11419 0.23458,0.3801 0.014,0.38912 -0.66095,0.0279 -0.28558,-0.1528 -0.43829,-0.40929 -0.33899,-0.57 0.11138,-0.17999 0.059,-0.21706 -0.13643,-0.0961 -0.38862,0.24022 -1.69388,-0.5679 -1.47898,-0.9157 0.085,-0.13761 -0.011,-0.18756 -0.21394,-0.10956 -0.20248,0.078 -0.53583,-0.072 -0.74104,-0.33382 -0.3483,-0.44323 -0.33783,-0.44697 0.15606,-0.077 0.48639,0.36529 0.5006,0.36089 0.1788,-0.0501 -0.1925,-0.2458 -0.50091,-0.38986 -0.68522,-0.31882 -0.1843,0.071 -0.50276,-0.085 -0.70797,-0.34623 -0.347,-0.44191 -0.33614,-0.44826 0.15606,-0.091 0.4625,0.33579 0.4857,0.33579 0.185,0 -0.1892,-0.21121 -0.45712,-0.39949 -0.59531,-0.41754 -0.1383,-0.018 -0.37763,-0.0481 -0.53175,-0.0661 -0.15399,-0.018 -0.21132,-0.14407 -0.12764,-0.27959 0.084,-0.13536 0.013,-0.33237 -0.15761,-0.4377 -0.19349,-0.11956 -0.23883,-0.077 -0.12093,0.11369 0.2758,0.44625 0.15454,0.40582 -2.12855,-0.71726 -1.14393,-0.56268 -2.34941,-1.10704 -2.6789,-1.20975 -0.33653,-0.10475 -0.52158,-0.31194 -0.4222,-0.47284 0.10293,-0.16621 0.054,-0.21071 -0.11627,-0.10541 -0.16129,0.10401 -0.60781,0.10528 -0.99219,0.01 -0.38852,-0.097 -0.57178,-0.25392 -0.41289,-0.35192 0.15731,-0.098 -0.0991,-0.18172 -0.57,-0.19172 -1.18181,-0.0209 -3.95036,-1.11575 -3.72845,-1.47484 0.1061,-0.17201 0.052,-0.20884 -0.13539,-0.093 -0.38467,0.23781 -3.79463,-0.86452 -3.60805,-1.16633 0.074,-0.11901 -0.12266,-0.14989 -0.43667,-0.0677 -0.4254,0.11131 -0.51583,0.061 -0.35605,-0.19794 0.14362,-0.23259 0.11158,-0.28331 -0.0966,-0.15452 -0.38478,0.23784 -3.00114,-0.60023 -2.81482,-0.90175 0.074,-0.11893 -0.13338,-0.15872 -0.46095,-0.0868 -0.4922,0.108 -0.52634,0.0769 -0.19844,-0.17468 0.32988,-0.25341 0.30412,-0.27881 -0.15038,-0.15242 -0.30081,0.084 -1.21554,-0.0781 -2.03295,-0.35968 -2.0289,-0.69802 -6.93734,-2.07899 -8.97516,-2.52492 -0.9206,-0.20148 -3.78922,-0.91125 -6.37481,-1.57768 -2.5855,-0.66638 -5.28498,-1.21179 -5.99808,-1.21179 -1.3629,0 -2.20271,-0.20323 -2.0252,-0.49043 0.10768,-0.17439 -11.07032,-0.43762 -15.85071,-0.37362 -1.4552,0.0201 -3.30861,0.0408 -4.1181,0.0408 -0.80939,0 -1.80637,0.1329 -2.21536,0.28837 -0.74631,0.28372 -2.62248,0.10473 -2.41536,-0.23048 0.1914,-0.30927 -0.9973,-0.25587 -2.0991,0.0956 -2.20001,0.7012 -3.23296,0.91768 -5.15937,1.07796 -1.0914,0.091 -2.16297,0.32092 -2.38125,0.51263 -0.21831,0.19169 -1.20223,0.40328 -2.18643,0.46821 -0.9843,0.065 -1.87717,0.21508 -1.98438,0.3333 -0.10721,0.118 0.043,0.13541 0.33435,0.0372 0.4255,-0.14311 0.39938,-0.076 -0.13229,0.34468 -0.7086,0.56022 -3.54559,0.68783 -3.2396,0.14573 0.082,-0.14531 0.081,-0.20529 0,-0.13229 -0.084,0.073 -0.15081,0.2323 -0.14882,0.35501 0.01,0.4045 -1.46082,1.76165 -1.90532,1.76165 -0.2396,0 -0.52487,0.0889 -0.63407,0.19844 -0.2029,0.20291 -0.2501,0.21487 -1.27899,0.33226 -0.4546,0.052 -0.37647,0.11777 0.33073,0.27959 0.92599,0.21177 0.92599,0.21217 -0.17621,0.15915 -0.60629,-0.029 -1.04775,0.035 -0.98134,0.1421 0.1556,0.25178 -1.67345,1.02029 -2.58692,1.08625 -0.38601,0.028 -0.64698,0.14052 -0.57981,0.24961 0.11251,0.1828 -0.29524,0.30446 -0.76895,0.22945 -0.10919,-0.0169 -0.16869,0.064 -0.13229,0.17981 0.069,0.22132 -1.06704,1.67547 -1.53582,1.96527 -0.14988,0.093 -0.28848,-0.032 -0.30799,-0.27646 -0.02,-0.24451 -0.40057,-1.91646 -0.84646,-3.71505 -0.44599,-1.79869 -0.73366,-3.39455 -0.63976,-3.54655 0.095,-0.15399 0.0439,-0.19738 -0.11575,-0.0987 -0.33333,0.20587 -0.49395,-0.25207 -0.72967,-2.07997 -0.094,-0.72763 -0.47282,-2.33497 -0.84233,-3.57187 -1.29339,-4.32941 -1.39584,-4.72681 -1.30845,-5.07413 0.048,-0.19275 0.0349,-0.2508 -0.03,-0.1297 -0.1289,0.24019 -2.46663,-5.22486 -2.55333,-5.96913 -0.029,-0.25172 -0.15417,-0.54938 -0.2775,-0.66146 -0.1233,-0.11213 -0.13501,-0.026 -0.0258,0.19275 0.1087,0.21828 -0.055,0.099 -0.36329,-0.26458 -0.30829,-0.36381 -0.74101,-1.0186 -0.9617,-1.45521 -0.36391,-0.71909 -0.36345,-0.74539 0.01,-0.28009 0.22529,0.2826 0.40658,0.40159 0.40359,0.26458 0,-0.13692 -0.25149,-0.54673 -0.5519,-0.91053 -0.30049,-0.36359 -0.46775,-0.48287 -0.37155,-0.26459 0.096,0.21821 -0.0101,0.17119 -0.23306,-0.1049 -0.22443,-0.27612 -0.34542,-0.60352 -0.26872,-0.72761 0.077,-0.12401 0.016,-0.22582 -0.13539,-0.22582 -0.15118,0 -0.51525,-0.47114 -0.80926,-1.04748 -0.6123,-1.19989 -0.65922,-1.44204 -0.22892,-1.17616 0.19079,0.1179 0.23328,0.073 0.11368,-0.12094 -0.1053,-0.17047 -0.30221,-0.24159 -0.43769,-0.15761 -0.1355,0.084 -0.2614,0.0259 -0.27957,-0.12814 -0.018,-0.15412 -0.0472,-0.42891 -0.0661,-0.61082 -0.018,-0.1819 -0.21166,-0.33263 -0.42995,-0.34263 -0.2183,-0.01 -0.37305,-0.13851 -0.34364,-0.293 0.036,-0.18759 -0.31473,-0.21315 -1.05834,-0.077 -0.69739,0.12729 -1.2386,0.098 -1.45159,-0.078 -0.86439,-0.7158 -8.26464,0.21341 -12.28762,1.54305 -1.12432,0.37158 -2.18432,0.58917 -2.35593,0.48318 -0.1764,-0.10911 -0.24158,-0.0803 -0.15038,0.0677 0.20791,0.3365 -3.12483,1.52059 -3.54655,1.2599 -0.1903,-0.11761 -0.25033,-0.0869 -0.14883,0.078 0.094,0.1515 -0.037,0.33859 -0.2899,0.41548 -0.253,0.077 -1.82871,0.62738 -3.50212,1.22317 -1.67349,0.59581 -3.19848,1.02335 -3.3879,0.95138 -0.18949,-0.072 -0.28629,-0.038 -0.21549,0.077 0.071,0.11448 -1.26271,0.67143 -2.96313,1.23714 -1.7003,0.5657 -4.05797,1.4678 -5.23948,2.00451 -1.1815,0.53689 -2.96742,1.2438 -3.96875,1.57096 -1.00128,0.32721 -2.89212,1.09593 -4.2018,1.70844 -1.30973,0.61238 -3.03564,1.38671 -3.83595,1.7203 -0.80039,0.33369 -2.49697,1.13498 -3.76928,1.78077 -1.2723,0.6459 -2.4515,1.08887 -2.62051,0.98444 -0.1755,-0.10827 -0.23662,-0.0751 -0.14211,0.078 0.091,0.14722 -0.43741,0.61199 -1.1746,1.03302 -0.73724,0.4209 -1.59695,0.91305 -1.91048,1.09347 -0.31359,0.1805 -0.72517,0.27151 -0.91467,0.20153 -0.1896,-0.07 -0.27723,-0.018 -0.19534,0.11422 0.20222,0.32721 -2.20265,1.92262 -2.56264,1.70016 -0.15768,-0.098 -0.21106,-0.0551 -0.11885,0.094 0.092,0.14912 -0.5572,0.79248 -1.44281,1.42989 -1.71908,1.23719 -1.93574,1.39258 -5.22913,3.7419 -1.1753,0.83838 -2.32649,1.81321 -2.55747,2.16574 -0.36632,0.55909 -2.89872,1.6918 -4.00751,1.79266 -0.1755,0.0159 -0.24575,0.14857 -0.15554,0.29456 0.098,0.15801 -0.013,0.19825 -0.27286,0.0982 -0.2695,-0.1034 -0.41294,-0.044 -0.37413,0.15348 0.035,0.17669 -0.14061,0.30528 -0.38964,0.28628 -0.24897,-0.019 -0.42758,0.10002 -0.39688,0.26459 0.031,0.16531 -0.15152,0.28302 -0.40463,0.26305 -0.2531,-0.0201 -0.41107,0.043 -0.35088,0.14107 0.1429,0.23117 -1.62129,1.43867 -2.10219,1.43867 -0.20388,0 -0.31673,0.088 -0.25064,0.19482 0.066,0.10699 -0.26626,0.44375 -0.73897,0.74826 -0.4727,0.30451 -1.20842,0.78574 -1.63504,1.06971 -0.42669,0.2844 -0.89203,0.44456 -1.03353,0.35759 -0.14221,-0.088 -0.17222,-0.023 -0.0677,0.14626 0.1686,0.27281 -0.14748,0.42492 -0.70228,0.33692 -0.10909,-0.0169 -0.16869,0.11732 -0.13229,0.29922 0.036,0.1819 -0.13754,0.31512 -0.38654,0.29609 -0.24892,-0.019 -0.4276,0.057 -0.39688,0.16899 0.092,0.33483 -1.9692,1.85669 -2.26601,1.67328 -0.1541,-0.095 -0.19457,-0.041 -0.093,0.12298 0.22359,0.36179 -0.79194,0.94128 -1.20355,0.6868 -0.17227,-0.10652 -0.2275,-0.0681 -0.12971,0.0899 0.23101,0.37391 -0.51567,0.95888 -0.91157,0.71416 -0.19121,-0.11848 -0.24793,-0.0837 -0.14262,0.0863 0.23287,0.37693 -1.84685,2.00819 -2.24586,1.76165 -0.18229,-0.11253 -0.23938,-0.0783 -0.13901,0.0847 0.15132,0.24488 -0.99972,1.23558 -1.45624,1.25368 -0.097,0 -0.27568,0.11501 -0.39688,0.24752 -0.13068,0.1425 -0.059,0.15383 0.17622,0.0274 0.49739,-0.26768 -0.23128,0.42069 -2.19108,2.07068 -0.83669,0.7044 -1.72795,1.31125 -1.98024,1.34824 -0.25239,0.037 -0.46377,0.23487 -0.47078,0.43926 -0.01,0.20402 -0.16425,0.33867 -0.35036,0.29869 -0.1859,-0.04 -0.26898,0.0405 -0.18397,0.17777 0.20489,0.33161 -1.1582,1.39147 -1.50999,1.17409 -0.15092,-0.093 -0.20123,-0.0515 -0.11162,0.0935 0.1701,0.27522 -1.56105,2.11635 -1.88154,2.00091 -0.1011,-0.036 -0.1856,0.023 -0.18758,0.1323 -0.01,0.4364 -0.44645,0.85799 -0.71675,0.6909 -0.16398,-0.10131 -0.21163,-0.055 -0.11111,0.1075 0.21579,0.3492 -3.72582,3.84181 -4.08502,3.61993 -0.1407,-0.087 -0.22294,2e-5 -0.18293,0.19224 0.04,0.1923 -0.077,0.32023 -0.25839,0.28422 -0.1819,-0.036 -0.30099,0.083 -0.26458,0.26458 0.036,0.18198 -0.0909,0.2979 -0.28422,0.25786 -0.1923,-0.04 -0.28304,0.0361 -0.20102,0.16846 0.19699,0.31872 -0.49366,0.88173 -0.77205,0.62942 -0.11909,-0.1079 -0.13443,-0.0531 -0.0341,0.12144 0.20831,0.3633 -0.70946,0.95592 -1.03095,0.66559 -0.1152,-0.10398 -0.13337,-0.0569 -0.0403,0.10594 0.1546,0.2712 -0.71376,1.29244 -1.09915,1.29244 -0.091,0 -0.13587,0.18097 -0.0982,0.40256 0.071,0.41619 -1.09535,2.19448 -1.30276,1.98694 -0.064,-0.064 -0.28026,0.14581 -0.48008,0.46665 -0.34419,0.55276 -0.33687,0.56258 0.13953,0.18655 0.27649,-0.21838 0.17649,8e-5 -0.22221,0.48316 -0.39309,0.47752 -0.63493,1.2732 -0.72554,2.17506 h -5.97689 v 0.70591 2.08309 74.367548 h 959.99357 v -74.367548 h 0.001 v -2.789 h -0.41653 c -0.28337,-1.94691 -0.7524,-3.80341 -1.38388,-5.27666 -0.3856,-0.89967 -1.49381,-2.83967 -2.46393,-4.31086 l -1.76371,-2.67478 1.24333,-0.99735 c 1.8025,-1.446 2.03731,-2.04771 1.21179,-3.09697 -0.52377,-0.66601 -1.32781,-1.01153 -3.38582,-1.45624 l -2.69804,-0.5829 0.14833,-3.87316 c 0.1221,-3.19024 0.016,-4.38867 -0.6041,-6.79545 -0.91432,-3.55031 -2.03081,-6.07309 -3.6835,-8.32453 l -1.24542,-1.69657 1.77924,-1.59938 c 2.01388,-1.81072 2.82202,-3.21484 4.02611,-6.99492 1.15917,-3.63931 1.51514,-6.16357 1.59732,-11.33935 l 0.0697,-4.44159 -1.6955,-3.2861 c -2.10756,-4.08339 -4.31707,-7.54483 -5.69629,-8.92402 -0.57918,-0.5792 -1.05315,-1.22444 -1.05315,-1.43402 0,-0.20971 -0.35023,-0.51731 -0.77825,-0.68368 -0.42812,-0.16653 -1.38244,-0.71678 -2.12082,-1.22267 -1.91,-1.30849 -5.08693,-2.91438 -6.95872,-3.51761 -4.65789,-1.50137 -11.64133,-1.67605 -16.56903,-0.41494 -1.73022,0.44281 -3.22358,0.90665 -3.31867,1.03095 -0.095,0.12427 -1.02902,0.67003 -2.07531,1.21282 -1.04622,0.5429 -3.03877,1.74324 -4.42815,2.66703 -1.38951,0.9239 -2.55688,1.62343 -2.59416,1.55442 -0.037,-0.069 -0.30123,-0.57721 -0.58653,-1.12913 -0.88162,-1.7054 -1.44804,-1.83486 -3.45974,-0.79116 -0.98581,0.51142 -1.85537,0.93017 -1.93218,0.93017 -0.077,0 0.59942,-0.91755 1.50223,-2.03914 1.129,-1.40272 1.77564,-2.60983 2.07118,-3.86541 0.41799,-1.77567 0.40124,-1.8693 -0.60875,-3.4432 -1.50479,-2.34503 -2.97722,-2.9232 -6.7143,-2.636 -1.60661,0.12349 -3.32359,0.37775 -3.8158,0.56481 l -0.89503,0.34004 0.061,-1.85414 c 0.038,-1.15692 -0.18677,-2.45457 -0.59688,-3.45044 -0.591,-1.43536 -0.90561,-1.71738 -3.12642,-2.80138 l -2.46962,-1.20562 -0.96427,-2.64377 c -0.92113,-2.52548 -3.11397,-6.36463 -3.91967,-6.86263 -0.65236,-0.40323 -0.43892,-2.7931 0.33745,-3.78013 0.60039,-0.76327 0.63373,-0.9447 0.20412,-1.10948 -0.28239,-0.10843 -0.60796,-0.57205 -0.72295,-1.03045 -0.36211,-1.44272 -2.15926,-3.16859 -3.57343,-3.43183 -0.71213,-0.13237 -1.99541,-0.52078 -2.8515,-0.86299 -3.27371,-1.309 -5.7971,-1.84398 -7.6786,-1.62779 -1.00801,0.11541 -2.40792,0.0778 -3.11092,-0.0832 -1.66531,-0.38211 -2.89621,0.34103 -2.34249,1.37563 0.28308,0.52887 0.24686,0.67127 -0.17158,0.67127 -0.81447,0 -0.63217,0.91583 0.36692,1.84227 l 0.89813,0.83251 -0.89813,0.22582 c -0.494,0.12401 -0.89595,0.33904 -0.89296,0.47802 0,0.13912 0.53556,1.03122 1.18337,1.98232 l 1.17771,1.72907 -1.78853,0.21757 c -1.55911,0.18939 -3.20635,0.66675 -5.08754,1.47434 -0.4328,0.18582 -0.64955,-0.33396 -1.15755,-2.77813 -0.98211,-4.72532 -2.1504,-7.9126 -4.60851,-12.57546 -3.64027,-6.90512 -5.2128,-8.96109 -12.57028,-16.42948 -3.74811,-3.80471 -7.05707,-7.3954 -7.35303,-7.97989 -1.03648,-2.04729 -1.32228,-2.03401 -3.30989,0.15348 -1.002,1.10281 -2.0076,2.38112 -2.23448,2.84065 -0.22691,0.45958 -0.75973,0.98888 -1.18444,1.17668 -0.4246,0.1878 -0.77255,0.46056 -0.77255,0.60563 0,0.14513 -0.47763,0.26355 -1.06196,0.26355 -0.58428,0 -1.29588,0.23355 -1.58128,0.51885 -0.4426,0.44231 -1.1593,0.61177 -2.07378,0.48938 -0.12139,-0.0159 -0.33126,0.14986 -0.46665,0.36896 -0.13541,0.2191 -0.46442,0.44638 -0.7307,0.50437 -2.2416,0.49009 -2.83482,0.72835 -3.61632,1.45262 -0.49152,0.45564 -1.15525,0.86989 -1.47484,0.92191 -0.9072,0.1464 -2.8293,1.07228 -2.8293,1.36271 0,0.14378 -0.25273,0.26146 -0.5612,0.26146 -0.54039,0 -5.65677,2.62057 -6.01049,3.07838 -0.095,0.12308 -1.57345,0.82952 -3.28557,1.57043 -1.71212,0.74078 -3.50202,1.69122 -3.97753,2.11151 -1.14449,1.01153 -2.2116,1.54048 -3.10732,1.54048 -0.6899,0 -2.74177,0.88495 -3.11867,1.34514 -0.095,0.1161 -1.18454,0.72631 -2.42105,1.35599 -7.6097,3.87522 -9.93992,5.04399 -13.66221,6.85229 -2.2828,1.109 -4.78877,2.52611 -5.56916,3.14915 -0.7806,0.6228 -1.53228,1.13223 -1.67018,1.13223 -0.27911,0 -0.036,-3.67596 0.29766,-4.50617 0.11699,-0.29075 -0.0211,-0.83579 -0.30748,-1.21079 -0.43587,-0.5716 -0.57256,-0.6014 -0.84595,-0.18499 -0.7103,1.08159 -2.45679,-1.5639 -2.19779,-3.32899 0.10229,-0.69721 -0.055,-1.24092 -0.48421,-1.67071 -0.42101,-0.42162 -0.6454,-1.17184 -0.66302,-2.21742 -0.088,-5.2931 -0.10488,-5.40227 -0.72398,-4.78319 -0.53919,0.53924 -0.6513,0.51567 -1.6955,-0.35812 -0.61492,-0.5144 -1.75562,-1.44981 -2.53524,-2.07893 -1.28008,-1.03259 -1.41751,-1.29472 -1.41751,-2.70061 0,-1.017 -0.29961,-2.09404 -0.86452,-3.10575 -0.47559,-0.85188 -0.87162,-1.73789 -0.88059,-1.96888 -0.01,-0.231 -0.20971,-0.87489 -0.44698,-1.43091 -0.38791,-0.9088 -0.41752,-0.76531 -0.29404,1.42007 0.12449,2.20281 0.072,2.44803 -0.55554,2.61223 -0.53486,0.1398 -0.73938,-0.0259 -0.89657,-0.72811 -0.26982,-1.20541 -1.27074,-2.44927 -1.49294,-1.85571 -0.11509,0.3075 -0.46622,0.18312 -1.18131,-0.41857 -0.55951,-0.4708 -1.55726,-0.95718 -2.21744,-1.08108 -0.95671,-0.1795 -1.20045,-0.38717 -1.20045,-1.02114 0,-0.45484 -0.43365,-1.16001 -1.01234,-1.64692 -0.7505,-0.63159 -0.91107,-0.9524 -0.62217,-1.24127 0.21418,-0.21429 0.55258,-0.39738 0.75239,-0.39738 0.19971,0 0.75224,-0.30705 1.22783,-0.67283 l 0.86508,-0.66509 -1.21079,-0.49919 c -0.66579,-0.27479 -2.21564,-0.61404 -3.44424,-0.75342 l -2.23398,-0.25324 0.93692,-0.80615 c 0.948,-0.8154 1.22393,-1.53065 0.59065,-1.53065 -0.19021,0 -0.34573,-0.2274 -0.34573,-0.5054 0,-0.5475 1.60573,-1.08151 4.35893,-1.44952 0.93152,-0.12467 1.79147,-0.37505 1.91048,-0.55655 0.13679,-0.20839 0.80817,-0.20357 1.82727,0.0139 1.57239,0.33531 1.6234,0.3197 2.1332,-0.66609 0.4812,-0.9307 0.46831,-1.08646 -0.16381,-1.97405 -1.12699,-1.58279 -1.03457,-1.79018 1.09501,-2.46238 2.05642,-0.64899 3.90501,-1.66012 3.59719,-1.96783 -0.096,-0.096 -2.60162,0.10101 -5.56812,0.4382 -4.1828,0.47553 -5.4868,0.52057 -5.8074,0.2 -0.64841,-0.64842 -0.0291,-1.04667 7.85845,-5.05966 4.14927,-2.11111 7.60076,-4.09368 8.05015,-4.62399 1.28932,-1.52098 1.4614,-1.75342 1.4614,-1.97508 0,-0.23562 -8.03679,0.0359 -10.20299,0.34469 l -1.3839,0.19741 1.50481,-0.69972 c 0.8277,-0.38462 2.53963,-1.01481 3.80442,-1.40041 2.9005,-0.8844 5.91992,-2.39411 6.41564,-3.2086 0.30049,-0.49371 0.25152,-0.72144 -0.23047,-1.08003 -0.56351,-0.41897 -0.5315,-0.48691 0.40772,-0.87593 0.55999,-0.23199 1.29934,-0.733 1.6433,-1.1131 0.6159,-0.68059 0.60698,-0.68771 -0.58031,-0.478 -5.25762,0.9285 -6.7618,1.10641 -6.94428,0.82217 -0.12322,-0.19119 -0.81796,-0.16378 -1.74046,0.0682 -0.84439,0.21309 -2.30896,0.338 -3.25408,0.27802 l -1.71823,-0.10853 7.60936,-3.9393 c 4.18502,-2.16689 8.03696,-4.23966 8.5602,-4.60643 0.94157,-0.66 1.35202,-1.55627 0.51882,-1.13276 -0.23778,0.12079 -0.084,-0.087 0.34107,-0.46302 0.65419,-0.57801 0.68977,-0.7154 0.23099,-0.8914 -1.02661,-0.394 -3.81982,-0.20627 -7.5954,0.51056 -2.08171,0.39505 -5.51455,0.99153 -7.62846,1.32551 -3.67819,0.5774 -3.83712,0.577 -3.68351,-0.0103 0.23188,-0.88689 4.70178,-4.96613 7.52666,-6.86883 1.33162,-0.89688 4.75596,-3.0023 7.60936,-4.67878 2.85351,-1.67632 6.6153,-3.88781 8.35919,-4.91392 4.33631,-2.5517 4.41399,-2.69079 1.76009,-3.14143 -2.10531,-0.35737 -2.28658,-0.32422 -6.66057,1.1896 -6.54081,2.26359 -7.1452,2.28105 -3.80441,0.11422 3.03382,-1.9676 7.70443,-5.15665 9.75754,-6.66266 0.72059,-0.52848 2.42797,-1.73204 3.79407,-2.67475 2.87311,-1.98268 3.2471,-2.41692 2.0805,-2.41692 -3.10981,0 -9.92143,2.43708 -15.05903,5.38829 -1.49082,0.8563 -6.46527,4.6078 -7.93802,5.9862 -0.62649,0.58629 -1.87196,1.4764 -2.76728,1.97871 -0.8953,0.50221 -2.65375,1.59465 -3.90827,2.42724 -1.25452,0.83262 -2.3876,1.51307 -2.5182,1.51307 -0.30371,0 1.87418,-3.44323 3.64318,-5.75984 0.78082,-1.02249 1.74464,-1.87876 2.26034,-2.00814 0.95559,-0.2399 4.60229,-2.92891 4.60229,-3.3936 0,-0.1516 0.56656,-0.60933 1.25937,-1.01804 1.56768,-0.92495 4.89011,-5.0977 7.35819,-9.24078 1.68212,-2.82371 3.83887,-5.29249 6.74016,-7.71477 l 1.00409,-0.83818 -0.69247,-2.26705 -0.69196,-2.26806 4.53049,-2.86753 c 5.1154,-3.2385 8.0515,-5.37335 10.04641,-7.30396 l 1.36528,-1.32085 h -1.71151 c -1.71411,0 -4.58613,0.6268 -5.86942,1.27331 -0.37621,0.18949 -2.00707,0.77888 -3.62407,1.30947 -1.617,0.53052 -3.93383,1.41034 -5.14903,1.95543 -2.55432,1.14591 -2.66563,1.1639 -2.92902,0.4775 -0.13041,-0.33989 0.59746,-1.18782 2.15077,-2.50682 7.06171,-5.99721 8.39592,-7.09949 10.76524,-8.8899 3.72758,-2.8171 3.98131,-3.64725 1.33273,-4.36046 -1.25809,-0.3388 -1.90751,-0.28456 -4.42711,0.37052 -3.03343,0.78851 -10.5632,3.5942 -11.3497,4.2292 -0.24241,0.19572 -0.52166,0.27472 -0.62064,0.17571 -0.099,-0.099 2.51183,-2.51703 5.80171,-5.37331 3.29004,-2.85642 6.60455,-5.77771 7.36544,-6.49211 2.30151,-2.1608 6.41273,-5.07273 8.87542,-6.28592 1.27868,-0.63002 2.64856,-1.59922 3.04427,-2.15492 l 0.71935,-1.01079 -1.99628,0.81185 c -1.09797,0.44669 -3.0856,1.15334 -4.4173,1.57043 -3.1637,0.99102 -5.70709,2.27724 -10.48049,5.29995 -10.3841,6.57598 -16.62311,12.05492 -21.51599,18.89392 -1.77843,2.4856 -3.02184,3.86226 -3.96463,4.39095 -0.75541,0.42359 -1.42205,0.72249 -1.48156,0.66249 -0.16311,-0.16309 4.62251,-7.32198 6.6084,-9.88518 0.95789,-1.23651 3.18629,-3.73385 4.95212,-5.55006 3.44829,-3.5469 6.58016,-7.4208 7.46726,-9.23613 0.3021,-0.61828 0.47622,-1.12342 0.38653,-1.12342 -0.40397,0 -4.15203,2.59152 -6.49571,4.4917 -1.41838,1.14991 -3.73417,2.63988 -5.14596,3.31039 -1.41179,0.6704 -3.00818,1.67883 -3.54758,2.24173 -0.5393,0.56301 -1.1625,1.0237 -1.38491,1.0237 -0.22239,0 -1.11234,0.54068 -1.97766,1.20147 l -1.57355,1.2015 -0.21032,-1.80662 c -0.11589,-0.9937 -0.30253,-8.70014 -0.41444,-17.12505 -0.17331,-13.0614 -0.27467,-15.2585 -0.68678,-14.91639 -0.26588,0.22058 -0.48319,0.52686 -0.48319,0.68109 0,0.15407 -0.74416,1.5055 -1.65364,3.00291 -0.9094,1.49741 -2.2538,4.1538 -2.98741,5.90299 -0.73348,1.74932 -1.44809,3.18069 -1.58803,3.18069 -0.13991,0 -0.3561,-0.63701 -0.48059,-1.41542 -0.12438,-0.7784 -0.55774,-2.06195 -0.96274,-2.85305 -0.40508,-0.791 -1.01764,-2.21605 -1.36165,-3.16725 -0.57113,-1.57887 -0.6263,-1.6346 -0.6377,-0.6413 -0.01,0.59841 0.45402,2.18435 1.02473,3.52536 1.13062,2.6569 1.2228,3.66951 0.6749,7.4254 -0.36298,2.4896 -2.9731,9.92394 -3.48401,9.92394 -0.14909,0 -0.41865,-0.50617 -0.59893,-1.12448 -2.21293,-7.58991 -3.02784,-10.30253 -4.64984,-15.47762 -1.04349,-3.32901 -2.31715,-7.41505 -2.83033,-9.07955 -0.51311,-1.66449 -0.99452,-3.02564 -1.07021,-3.02564 z m -407.774086,162.06967 v 5.3e-4 c -0.09202,0 -0.196427,0.0125 -0.291968,0.0506 -0.211111,0.085 -0.148537,0.14669 0.159676,0.15968 0.278898,0.0111 0.435134,-0.051 0.347266,-0.13901 -0.044,-0.044 -0.123058,-0.0678 -0.214974,-0.0718 z m -8.709025,0.0103 c -0.119909,0 -0.239818,0.0178 -0.330729,0.0548 -0.181901,0.074 -0.03299,0.13385 0.330729,0.13385 0.363802,0 0.51263,-0.0604 0.330729,-0.13385 -0.09099,-0.036 -0.21082,-0.0548 -0.330729,-0.0548 z m -5.584666,0.49506 c -0.07303,0 -0.536178,0.41672 -1.029917,0.92604 -0.49358,0.5093 -0.838121,0.92604 -0.765334,0.92604 0.073,0 0.536231,-0.41674 1.029917,-0.92604 0.493713,-0.50932 0.838227,-0.92604 0.765334,-0.92604 z m 16.55609,1.70841 -5.29e-4,5.3e-4 c -0.048,-0.018 -0.08112,0.13483 -0.08112,0.40773 0,0.36377 0.05998,0.51263 0.133323,0.33072 0.073,-0.1819 0.073,-0.47955 0,-0.66145 -0.01802,-0.046 -0.03567,-0.0715 -0.05167,-0.0775 z m -0.337449,4.14653 c -0.07601,-0.022 -0.04503,0.20068 0.114194,0.6165 0.09099,0.23609 0.220795,0.37394 0.288872,0.30591 0.068,-0.068 2.6e-5,-0.34107 -0.157083,-0.60666 -0.116973,-0.20111 -0.200502,-0.30245 -0.245983,-0.31575 z m -25.84286,5.11908 c 0.02101,0.0259 -0.07609,0.23066 -0.297656,0.61907 -0.275405,0.48268 -0.731282,1.07802 -1.012878,1.32291 -0.297709,0.259 -0.192987,4e-4 0.250111,-0.61288 0.662596,-0.92051 1.025631,-1.37263 1.060423,-1.3291 z m 28.22411,0.17258 c -0.07601,-0.022 -0.04514,0.20066 0.114194,0.61651 0.09099,0.23609 0.220795,0.37444 0.288872,0.30644 0.068,-0.068 2.6e-5,-0.34171 -0.157083,-0.60719 -0.116893,-0.20119 -0.200502,-0.30237 -0.245983,-0.31576 z m 0.591687,1.76321 c -0.034,0.018 -0.058,0.17883 -0.06202,0.45165 -0.01,0.43608 0.04895,0.64677 0.121973,0.46767 0.073,-0.17912 0.07713,-0.53625 0.01032,-0.79375 -0.025,-0.097 -0.05027,-0.13663 -0.07027,-0.12557 z m -33.83825,4.92165 v 5.3e-4 c -0.08099,0.019 -0.182351,0.15047 -0.256831,0.34623 -0.143616,0.37711 -0.113612,0.4077 0.147796,0.1483 0.18079,-0.17949 0.262388,-0.39288 0.18087,-0.47387 -0.02,-0.0201 -0.04485,-0.027 -0.07184,-0.0212 z m 29.632831,7.65432 c 3.7e-4,-6e-5 6.35e-4,0.003 10e-4,0.003 3.18e-4,-8e-5 7.41e-4,-0.003 10e-4,-0.003 z m 10e-4,0.003 c -0.03241,0.008 -0.05477,0.40833 -0.05477,1.10122 0,1.0191 0.04506,1.46759 0.103849,0.99788 0.058,-0.46969 0.059,-1.3031 0,-1.85208 -0.01749,-0.16717 -0.0344,-0.24456 -0.04908,-0.24702 z m 0.257863,4.10364 c -0.04302,-0.0249 -0.0739,0.18756 -0.0739,0.56946 0,0.50903 0.05509,0.71763 0.121444,0.46302 0.06697,-0.25477 0.06697,-0.67143 0,-0.92604 -0.01701,-0.064 -0.03305,-0.0979 -0.04704,-0.10644 z m -19.75694,0.0398 c 0.124011,0 5.3e-5,2.04301 -0.614944,10.31875 -0.211587,2.83755 -0.511519,7.30255 -0.666115,9.92187 -0.321707,5.45166 -0.622353,7.99534 -1.216978,10.29084 -0.680799,2.6284 -4.006955,9.11461 -4.461748,8.70077 -0.124619,-0.1134 -0.13634,-0.05 -0.02582,0.14055 0.261197,0.45238 -0.35896,1.94693 -0.716254,1.72601 -0.158511,-0.098 -0.195738,-0.0421 -0.08731,0.13332 0.278791,0.45098 -0.675296,3.30536 -0.965835,2.88975 -0.151871,-0.2173 -0.178964,-0.14009 -0.07803,0.22167 0.08501,0.30525 -0.01,1.19237 -0.20828,1.97146 -0.330993,1.29329 -0.963453,2.11437 -0.975122,1.26609 0,-0.19402 -0.173064,-1.30543 -0.378274,-2.46962 -0.205185,-1.1642 -0.683155,-4.79565 -1.061958,-8.06979 -0.37891,-3.2742 -1.012164,-7.32237 -1.407663,-8.99584 -1.030499,-4.35991 -0.887016,-10.86215 0.22479,-10.17508 0.13208,0.082 0.17354,-0.0259 0.09199,-0.23823 -0.204522,-0.53303 0.63209,-2.08526 1.000972,-1.85727 0.179917,0.1111 0.219525,0.0609 0.102314,-0.12867 -0.171899,-0.2781 0.762318,-2.15283 1.072806,-2.15283 0.069,0 0.05331,0.11906 -0.0367,0.26458 -0.09001,0.14555 -0.112713,0.26459 -0.05114,0.26459 0.06202,0 0.446299,-0.50613 0.854207,-1.12448 0.49911,-0.75669 0.580046,-0.9946 0.248047,-0.72761 -0.276913,0.22268 -0.116575,-0.15491 0.364834,-0.85989 0.47199,-0.69136 0.926174,-1.25677 1.009756,-1.25677 0.083,0 5.3e-5,0.17854 -0.177245,0.39687 -0.181186,0.21815 -0.269187,0.39688 -0.195871,0.39688 0.073,0 0.46699,-0.44659 0.874898,-0.99219 0.671169,-0.89773 0.681646,-0.94181 0.109035,-0.46302 -0.923422,0.77203 0.865902,-1.58798 2.106321,-2.77813 0.530781,-0.50945 0.776314,-0.80698 0.545201,-0.66146 -0.231087,0.14555 0.01,-0.15218 0.529166,-0.66145 0.522103,-0.50933 0.760307,-0.80698 0.529167,-0.66146 -0.230981,0.14547 0.01,-0.15219 0.529167,-0.66146 0.522102,-0.50924 0.712284,-0.74761 0.422698,-0.52917 -0.289613,0.21815 0.17571,-0.46633 1.033542,-1.52135 0.857991,-1.05503 1.612291,-1.91826 1.676373,-1.91823 z m -0.252703,0.70382 c -0.007,0 -0.01363,0.002 -0.02273,0.007 v -5.3e-4 c -0.126391,0.044 -0.481012,0.39465 -0.853704,0.85214 -0.774198,0.95102 -0.774224,0.95136 0.118877,0.10025 0.491305,-0.46818 0.83992,-0.89683 0.77462,-0.95186 -0.005,-0.005 -0.01064,-0.007 -0.01706,-0.007 z m -4.996577,6.17535 c -0.014,-0.014 -0.120809,0.066 -0.330729,0.23098 -0.254582,0.1997 -0.463021,0.40801 -0.463021,0.46302 0,0.21783 0.217038,0.0779 0.562742,-0.36277 0.164492,-0.20992 0.244608,-0.31755 0.231008,-0.33123 z m -0.79375,1.05833 c -0.014,-0.014 -0.120888,0.0661 -0.330729,0.23098 -0.254662,0.19992 -0.463021,0.40804 -0.463021,0.46302 0,0.2177 0.217144,0.078 0.562742,-0.36327 0.164598,-0.20992 0.24474,-0.31716 0.231008,-0.33073 z m -7.047627,11.46855 c -0.04003,-0.01 -0.06794,0.091 -0.07493,0.28371 -0.01103,0.27932 0.05098,0.43529 0.138986,0.34727 0.088,-0.088 0.09819,-0.31647 0.02119,-0.50747 -0.03202,-0.0789 -0.06128,-0.11983 -0.08525,-0.12351 z m -0.264583,3.96925 c -0.04003,-0.0101 -0.06794,0.09 -0.07493,0.28321 -0.01103,0.27919 0.05098,0.43527 0.138986,0.34727 0.088,-0.088 0.09819,-0.31647 0.02119,-0.50747 -0.03202,-0.0789 -0.06125,-0.11938 -0.08525,-0.12301 z m 1.852083,10.05367 c -0.04003,-0.01 -0.06691,0.091 -0.07493,0.28371 -0.01103,0.27919 0.05098,0.43526 0.138986,0.34726 0.088,-0.088 0.09819,-0.31649 0.02119,-0.50747 -0.03202,-0.0789 -0.06128,-0.11983 -0.08525,-0.1235 z m 0.291439,2.14767 c -0.04771,-0.0167 -0.08165,0.13481 -0.08165,0.40669 0,0.36367 0.06001,0.51258 0.133324,0.33073 0.073,-0.18193 0.073,-0.47961 0,-0.66146 -0.01791,-0.0457 -0.03514,-0.0698 -0.05114,-0.076 z m 5.848747,0.67178 c -0.073,0 -0.259663,0.23754 -0.415476,0.52866 -0.155892,0.29096 -0.223705,0.52917 -0.150892,0.52917 0.073,0 0.259689,-0.23821 0.415476,-0.52917 0.155892,-0.29112 0.223705,-0.52866 0.150892,-0.52866 z m -5.584164,1.70947 c -0.0477,-0.0167 -0.08165,0.13481 -0.08165,0.40669 0,0.36375 0.0599,0.51314 0.133323,0.33123 0.073,-0.1819 0.073,-0.48011 0,-0.66196 -0.01791,-0.0458 -0.03514,-0.0698 -0.05114,-0.076 z m -163.09133,1.96525 -5.2e-4,5.3e-4 c -0.01,0 -0.0199,0.01 -0.0279,0.016 -0.069,0.069 -0.0479,0.25302 0.0481,0.40826 0.26089,0.42209 0.41349,0.34009 0.23461,-0.1261 -0.075,-0.19622 -0.18233,-0.31758 -0.25425,-0.29869 z m 163.355913,0.15142 c -0.0477,-0.0167 -0.08165,0.13488 -0.08165,0.40669 0,0.36367 0.0599,0.51258 0.133324,0.33073 0.073,-0.1819 0.073,-0.47959 0,-0.66146 -0.01791,-0.0448 -0.03514,-0.0698 -0.05114,-0.076 z m 0.237729,2.08616 c -0.04003,-0.0101 -0.06795,0.091 -0.07493,0.28321 -0.01103,0.27929 0.05098,0.43526 0.138985,0.34726 0.088,-0.088 0.09819,-0.31649 0.02119,-0.50747 -0.03201,-0.0789 -0.06125,-0.11938 -0.08525,-0.123 z m 0.264583,1.85208 c -0.04003,-0.0101 -0.06794,0.091 -0.07493,0.28321 -0.01103,0.27927 0.05098,0.43529 0.138985,0.34727 0.088,-0.088 0.09819,-0.31647 0.02119,-0.50747 -0.03202,-0.0789 -0.06125,-0.11938 -0.08525,-0.12301 z m 0.264583,1.5875 c -0.04003,-0.0101 -0.06691,0.091 -0.07493,0.28321 -0.01103,0.27927 0.05098,0.43529 0.138986,0.34727 0.088,-0.088 0.09819,-0.31647 0.02119,-0.50747 -0.03202,-0.079 -0.06125,-0.11938 -0.08525,-0.12301 z m 0.264584,1.05833 c -0.04003,-0.0101 -0.06691,0.091 -0.07493,0.28321 -0.01103,0.27927 0.05098,0.43527 0.138985,0.34727 0.088,-0.088 0.09819,-0.31647 0.02119,-0.50747 -0.03201,-0.079 -0.06128,-0.1193 -0.08525,-0.12301 z m -156.152232,12.18843 c -0.043,-0.0251 -0.0739,0.18799 -0.0739,0.56999 0,0.50898 0.054,0.71771 0.12092,0.46303 0.066,-0.25475 0.066,-0.67144 0,-0.92605 -0.017,-0.064 -0.033,-0.099 -0.047,-0.10697 z m 36.64169,0.6041 c -0.11981,0 -0.23972,0.0178 -0.33073,0.0548 -0.1819,0.073 -0.033,0.13382 0.33073,0.13382 0.3639,0 0.51262,-0.061 0.33073,-0.13382 -0.091,-0.036 -0.21082,-0.0548 -0.33073,-0.0548 z m 6.84506,0.25836 v 0.004 c -0.1918,0 -0.39349,0.0139 -0.55811,0.045 -0.32909,0.063 -0.12216,0.12044 0.45992,0.12039 0.58211,0 0.85144,-0.0491 0.59842,-0.11473 -0.12639,-0.036 -0.30845,-0.0538 -0.50023,-0.0548 z m -10.28464,0.004 c -0.11988,0 -0.23971,0.0178 -0.33073,0.0548 -0.1819,0.073 -0.0331,0.13332 0.33073,0.13332 0.36379,0 0.51262,-0.06 0.33072,-0.13332 -0.091,-0.037 -0.21082,-0.0548 -0.33072,-0.0548 z m 20.10833,0.26458 c -0.11989,0 -0.23982,0.0177 -0.33073,0.0548 -0.1819,0.073 -0.033,0.13333 0.33073,0.13333 0.3638,0 0.51263,-0.0599 0.33073,-0.13333 -0.091,-0.036 -0.21084,-0.0548 -0.33073,-0.0548 z m -29.13828,0.786 v 0.005 c -0.19178,0 -0.39347,0.0139 -0.5581,0.045 -0.32909,0.063 -0.12217,0.12041 0.45992,0.12041 0.58211,0 0.85132,-0.0489 0.59841,-0.11522 -0.1265,-0.035 -0.30843,-0.0543 -0.50023,-0.0553 z m -1.57509,0.005 c -0.092,0 -0.19698,0.0131 -0.29249,0.0512 -0.21101,0.085 -0.14801,0.14716 0.1602,0.16021 0.27901,0.0111 0.43515,-0.051 0.34726,-0.13902 -0.044,-0.044 -0.12307,-0.0695 -0.21497,-0.0724 z m -1.5658,0.26408 c -0.1678,0 -0.3357,0.0165 -0.46302,0.0496 -0.25469,0.067 -0.046,0.12091 0.46302,0.12091 0.5094,0 0.71763,-0.0541 0.46302,-0.12091 -0.1274,-0.034 -0.29512,-0.0496 -0.46302,-0.0496 z m -3.1967,0.79425 c -0.092,0 -0.19698,0.0128 -0.29249,0.0506 -0.21101,0.085 -0.14801,0.1473 0.1602,0.16021 0.2789,0.0111 0.43515,-0.051 0.34726,-0.13901 -0.044,-0.044 -0.12307,-0.0688 -0.21497,-0.0718 z m -6.06578,2.34352 -10e-4,0.003 h -0.015 c -0.035,0.014 -0.11649,0.072 -0.24598,0.17105 -0.2182,0.16632 -0.63505,0.36002 -0.92604,0.43201 -0.50271,0.12369 -0.50098,0.13179 0.0341,0.16071 0.30959,0.0169 0.72634,-0.1773 0.92605,-0.43201 0.1728,-0.22019 0.24998,-0.32645 0.22789,-0.33436 z m -4.96869,2.40607 c -0.1029,0 -0.25659,0.0761 -0.39119,0.21188 -0.25939,0.2613 -0.22932,0.29191 0.14779,0.1483 0.2609,-0.099 0.40808,-0.24667 0.3266,-0.32867 -0.02,-0.0201 -0.0487,-0.03 -0.0827,-0.031 z m -1.05833,0.26406 v 5.3e-4 c -0.10279,0 -0.2566,0.0761 -0.3912,0.21187 -0.25928,0.26133 -0.22931,0.29189 0.1478,0.1483 0.2609,-0.099 0.40808,-0.24667 0.32659,-0.32866 -0.02,-0.0201 -0.0492,-0.031 -0.0832,-0.032 z m -2.32028,1.69809 c -0.03,0.0101 -0.12036,0.077 -0.27078,0.2036 -0.30289,0.25381 -0.6303,0.38174 -0.7276,0.28474 -0.097,-0.097 -0.17725,0.021 -0.17725,0.26408 0,0.58629 0.064,0.56367 0.8139,-0.28527 0.292,-0.33036 0.41134,-0.48173 0.36173,-0.46715 z m 111.27745,16.27963 c -0.011,0.0111 0.11489,0.16028 0.3669,0.45786 0.27721,0.32742 0.5451,0.59531 0.59531,0.59531 0.2117,0 0.0549,-0.21267 -0.50436,-0.68627 -0.29768,-0.2522 -0.44647,-0.3783 -0.45785,-0.3669 z m 2.1115,1.85002 c 0.014,-0.014 0.12095,0.066 0.33073,0.23098 0.25471,0.19973 0.46302,0.40804 0.46302,0.46302 0,0.21783 -0.21716,0.078 -0.56276,-0.36274 -0.16459,-0.20982 -0.2447,-0.31766 -0.23099,-0.33126 z m -192.92311,6.43474 v 5.3e-4 c 0.027,0 0.0419,0.01 0.0419,0.0279 0,0.073 -0.23815,0.25969 -0.52917,0.41548 -0.29109,0.15078 -0.52916,0.22391 -0.52916,0.15091 0,-0.073 0.23807,-0.25929 0.52916,-0.41497 0.21831,-0.11332 0.40672,-0.18298 0.48731,-0.17984 z"
         id="rect4616-7"
         inkscape:connector-curvature="0" />
    </g>
  </g>
</svg>
