<?xml version="1.0" encoding="UTF-8" standalone="no"?>
<!-- Generator: Adobe Illustrator 17.1.0, SVG Export Plug-In . SVG Version: 6.00 Build 0)  -->

<svg
   xmlns:dc="http://purl.org/dc/elements/1.1/"
   xmlns:cc="http://creativecommons.org/ns#"
   xmlns:rdf="http://www.w3.org/1999/02/22-rdf-syntax-ns#"
   xmlns:svg="http://www.w3.org/2000/svg"
   xmlns="http://www.w3.org/2000/svg"
   xmlns:sodipodi="http://sodipodi.sourceforge.net/DTD/sodipodi-0.dtd"
   xmlns:inkscape="http://www.inkscape.org/namespaces/inkscape"
   version="1.1"
   id="Capa_1"
   x="0px"
   y="0px"
   viewBox="0 0 274.72949 460.55479"
   xml:space="preserve"
   width="371.20905"
   height="622.29248"
   sodipodi:docname="arte (cópia 1).svg"
   inkscape:version="0.92.1 unknown"><metadata
     id="metadata38"><rdf:RDF><cc:Work
         rdf:about=""><dc:format>image/svg+xml</dc:format><dc:type
           rdf:resource="http://purl.org/dc/dcmitype/StillImage" /><dc:title></dc:title></cc:Work></rdf:RDF></metadata><defs
     id="defs36" /><sodipodi:namedview
     pagecolor="#ffffff"
     bordercolor="#666666"
     borderopacity="1"
     objecttolerance="10"
     gridtolerance="10"
     guidetolerance="10"
     inkscape:pageopacity="0"
     inkscape:pageshadow="2"
     inkscape:window-width="1366"
     inkscape:window-height="713"
     id="namedview34"
     showgrid="false"
     fit-margin-top="0"
     fit-margin-left="0"
     fit-margin-right="0"
     fit-margin-bottom="0"
     inkscape:zoom="0.17714972"
     inkscape:cx="848.72934"
     inkscape:cy="-731.53206"
     inkscape:window-x="0"
     inkscape:window-y="0"
     inkscape:window-maximized="1"
     inkscape:current-layer="Capa_1" /><g
     id="g3"
     transform="translate(803.0978,-120.74537)" /><g
     id="g5"
     transform="translate(803.0978,-120.74537)" /><g
     id="g7"
     transform="translate(803.0978,-120.74537)" /><g
     id="g9"
     transform="translate(803.0978,-120.74537)" /><g
     id="g11"
     transform="translate(803.0978,-120.74537)" /><g
     id="g13"
     transform="translate(803.0978,-120.74537)" /><g
     id="g15"
     transform="translate(803.0978,-120.74537)" /><g
     id="g17"
     transform="translate(803.0978,-120.74537)" /><g
     id="g19"
     transform="translate(803.0978,-120.74537)" /><g
     id="g21"
     transform="translate(803.0978,-120.74537)" /><g
     id="g23"
     transform="translate(803.0978,-120.74537)" /><g
     id="g25"
     transform="translate(803.0978,-120.74537)" /><g
     id="g27"
     transform="translate(803.0978,-120.74537)" /><g
     id="g29"
     transform="translate(803.0978,-120.74537)" /><g
     id="g31"
     transform="translate(803.0978,-120.74537)" /><g
     id="g4537"
     transform="matrix(0.71314132,0,0,0.71314132,982.72612,216.31438)" /><g
     id="g4539"
     transform="matrix(0.71314132,0,0,0.71314132,982.72612,216.31438)" /><g
     id="g4541"
     transform="matrix(0.71314132,0,0,0.71314132,982.72612,216.31438)" /><g
     id="g4543"
     transform="matrix(0.71314132,0,0,0.71314132,982.72612,216.31438)" /><g
     id="g4545"
     transform="matrix(0.71314132,0,0,0.71314132,982.72612,216.31438)" /><g
     id="g4547"
     transform="matrix(0.71314132,0,0,0.71314132,982.72612,216.31438)" /><g
     id="g4549"
     transform="matrix(0.71314132,0,0,0.71314132,982.72612,216.31438)" /><g
     id="g4551"
     transform="matrix(0.71314132,0,0,0.71314132,982.72612,216.31438)" /><g
     id="g4553"
     transform="matrix(0.71314132,0,0,0.71314132,982.72612,216.31438)" /><g
     id="g4555"
     transform="matrix(0.71314132,0,0,0.71314132,982.72612,216.31438)" /><g
     id="g4557"
     transform="matrix(0.71314132,0,0,0.71314132,982.72612,216.31438)" /><g
     id="g4559"
     transform="matrix(0.71314132,0,0,0.71314132,982.72612,216.31438)" /><g
     id="g4561"
     transform="matrix(0.71314132,0,0,0.71314132,982.72612,216.31438)" /><g
     id="g4563"
     transform="matrix(0.71314132,0,0,0.71314132,982.72612,216.31438)" /><g
     id="g4565"
     transform="matrix(0.71314132,0,0,0.71314132,982.72612,216.31438)" /><path
     style="opacity:1;fill:#7cc6cc;fill-opacity:0.31372549;fill-rule:nonzero;stroke:none;stroke-width:8.21321964;stroke-linecap:square;stroke-linejoin:miter;stroke-miterlimit:4;stroke-dasharray:none;stroke-dashoffset:0;stroke-opacity:1;paint-order:normal"
     d="M 51.7654,455.93428 C 50.7861,448.82718 34.1155,273.6258 29.356,220.4201 26.256,185.765 27.4498,189.2333 18.4457,188.7245 10.1341,188.2549 6.6467,186.4034 2.4446,180.2292 0.5407,177.4318 0,175.105 0,169.7111 c 0,-6.602 0.2091,-7.1531 4.4686,-11.774 2.6957,-2.9246 6.0365,-5.2835 8.4207,-5.9457 2.4185,-0.6718 25.1068,-1.1001 58.4725,-1.1038 l 54.5205,-0.01 0.6241,-5.7043 c 0.3433,-3.1374 1.1195,-18.1724 1.7249,-33.4111 1.2042,-30.310799 3.236,-64.398599 3.8792,-65.081799 0.4938,-0.5247 25.3522,-10.1232 35.3224,-13.6389 3.9426,-1.3902 11.5212,-4.2172 16.8414,-6.2823 5.3202,-2.065 16.2738,-6.248 24.3414,-9.29555 8.0676,-3.0475 21.269,-8.0982001 29.3366,-11.2240201 21.9487,-8.50393 29.3325,-8.35567 34.4568,0.69192 2.9774,5.2570001 3.0655,8.3759001 0.4024,14.2404501 -2.4718,5.4434 -6.6164,7.6538 -29.4265,15.6949 -8.6652,3.0546 -21.6222,7.672 -28.7934,10.261 -19.6379,7.0894 -49.5991,17.9463 -52.9009,19.1696 -2.5199,0.9335 -3.0036,1.8523 -3.5292,6.7035 -0.798,7.3654 -4.9627,69.780099 -4.9608,74.345399 v 3.5312 h 49.7164 c 29.2283,0 51.2469,0.4389 53.4303,1.0651 4.1736,1.1971 9.2797,5.6142 11.5803,10.018 0.8431,1.6137 1.5328,5.4675 1.5328,8.5641 0,9.6991 -6.2769,16.8208 -16.0547,18.2156 l -5.1328,0.7321 -3.436,33.1281 c -1.8899,18.2205 -4.2552,42.6626 -5.2564,54.3157 -1.0011,11.6532 -3.9591,42.9455 -6.5734,69.5386 -2.6142,26.5931 -5.3035,55.6019 -5.9761,64.46418 -0.6727,8.8622 -2.0357,23.5305 -3.029,32.5962 l -1.8061,16.483 -84.8974,0.2783 -84.8974,0.2782 z m 165.9443,-3.2661 c 0.3604,-1.3446 0.6619,-3.5294 0.67,-4.855 0.014,-2.3362 -0.3777,-2.4196 -12.752,-2.7163 -10.4879,-0.2515 -12.7669,-0.5971 -12.7669,-1.936 0,-1.3279 2.4146,-1.7304 13.0386,-2.173 l 13.0384,-0.5434 0.6463,-5.9759 c 0.3556,-3.2868 0.4489,-6.3427 0.2076,-6.7909 -0.2414,-0.4482 -6.0328,-0.8149 -12.87,-0.8149 -11.4725,0 -12.431,-0.1586 -12.431,-2.0568 0,-2.9178 1.9865,-3.3759 14.6409,-3.3759 12.4648,0 12.5226,-0.035 12.5226,-7.6946 v -4.2574 h -11.7346 c -11.778,0 -14.7752,-0.8674 -13.598,-3.9352 0.4415,-1.15028 3.4292,-1.49738 12.8895,-1.49738 6.7732,0 12.5588,-0.3948 12.857,-0.8773 0.2983,-0.4826 0.879,-3.4162 1.2907,-6.5193 l 0.7484,-5.6419 -11.8203,-0.016 c -12.3236,-0.018 -15.2973,-0.7801 -14.1991,-3.6417 0.5332,-1.3897 3.0216,-1.7612 13.4684,-2.0112 l 12.8144,-0.3065 0.3247,-6.2115 0.3248,-6.2115 -12.2767,-0.3077 c -11.4499,-0.287 -12.2768,-0.4542 -12.2768,-2.4808 0,-2.0325 0.8264,-2.1929 12.7669,-2.4793 l 12.7668,-0.3061 0.015,-4.04 c 0.01,-2.2221 0.3097,-5.1402 0.67,-6.4848 0.6521,-2.4331 0.5953,-2.4447 -12.0423,-2.4447 -12.5463,0 -12.6934,-0.029 -12.3503,-2.4447 0.3328,-2.3432 0.8419,-2.4576 12.2592,-2.7554 7.8528,-0.2049 12.1976,-0.7603 12.7502,-1.6299 0.461,-0.7255 0.8457,-3.6415 0.8548,-6.4801 l 0.016,-5.1611 h -12.4951 c -11.7709,0 -12.4953,-0.126 -12.4953,-2.1731 0,-2.0464 0.7244,-2.173 12.4311,-2.173 7.3231,0 12.7141,-0.458 13.1199,-1.1145 0.3788,-0.613 0.9633,-3.775 1.299,-7.0268 l 0.6102,-5.9122 -12.9152,-0.3075 c -10.6191,-0.2527 -12.9152,-0.5971 -12.9152,-1.9372 0,-1.3278 2.4134,-1.7304 13.0279,-2.173 l 13.0278,-0.5433 0.8041,-5.4327 c 0.4422,-2.988 0.5846,-6.0439 0.3164,-6.7909 -0.3499,-0.9744 -3.8566,-1.3582 -12.4096,-1.3582 -12.3047,0 -15.418,-1.0773 -11.4653,-3.9677 1.3881,-1.015 5.6107,-1.4649 13.7478,-1.4649 h 11.7442 v -5.9405 -5.9403 l -12.2236,-0.3073 c -11.3967,-0.2864 -12.2235,-0.4541 -12.2235,-2.4802 0,-2.031 0.826,-2.1931 12.6301,-2.4781 l 12.63,-0.3049 0.6681,-4.0412 c 1.5525,-9.3911 2.1217,-8.9307 -11.0426,-8.9307 -12.1177,0 -15.5445,-1.0451 -13.0969,-3.9943 0.8551,-1.0304 4.5101,-1.4384 12.8859,-1.4384 13.0904,0 12.9842,0.072 13.0173,-8.9284 l 0.015,-4.0389 -12.2235,-0.3072 c -11.3969,-0.2864 -12.2236,-0.4542 -12.2236,-2.4803 0,-2.0324 0.8264,-2.1929 12.7668,-2.4792 12.3651,-0.2965 12.7673,-0.382 12.7789,-2.7164 0.01,-1.3256 0.315,-4.2438 0.6854,-6.4847 l 0.6734,-4.0746 H 226.61 c -12.5624,0 -12.7089,-0.029 -12.3658,-2.4447 0.3344,-2.355 0.8119,-2.4559 13.0114,-2.7499 l 12.6643,-0.3053 0.4497,-5.6707 c 0.2472,-3.1189 0.2645,-6.0375 0.038,-6.4857 -0.2261,-0.4482 -6.0052,-0.8149 -12.8423,-0.8149 -11.7066,0 -12.431,-0.1265 -12.431,-2.173 0,-2.0512 0.7244,-2.1731 12.9117,-2.1731 14.5759,0 14.2056,0.2474 14.237,-9.5127 l 0.015,-4.6232 -105.1228,0.2771 c -103.7999,0.2736 -105.1204,0.304 -104.9325,2.4149 0.1047,1.1758 0.7462,9.9767 1.4255,19.5577 0.6793,9.5809 3.1456,36.2442 5.4805,59.2517 2.335,23.0075 4.7745,48.677 5.4213,57.0434 0.6468,8.3664 3.3511,36.9318 6.0095,63.4786 2.6584,26.54698 4.8335,50.32178 4.8335,52.83308 0,2.5112 0.3056,6.0939 0.6791,7.9613 l 0.6791,3.3954 h 80.1414 80.1415 l 0.6551,-2.4446 z M 30.8824,183.6135 c 0.3232,-0.5229 -0.9055,-3.0121 -2.7305,-5.5315 -3.3993,-4.6925 -3.5122,-8.0788 -0.2486,-7.4503 1.0083,0.1942 3.8304,3.2861 6.2715,6.8712 3.9882,5.8569 4.8642,6.5532 8.6356,6.8639 6.2279,0.5131 6.9694,-1.088 2.8893,-6.2396 -3.4513,-4.3575 -4.0168,-7.6398 -1.4629,-8.4901 0.7253,-0.2415 3.8413,3.0184 6.9244,7.2441 5.4692,7.4958 5.7218,7.6831 10.3618,7.6831 2.6532,0 4.7559,-0.5139 4.7559,-1.1624 0,-0.6393 -1.5088,-3.3554 -3.3529,-6.0357 -3.3121,-4.814 -3.569,-8.0135 -0.6435,-8.0135 0.8275,0 3.7804,3.4227 6.562,7.6058 l 5.0575,7.6058 h 89.1226 c 96.543,0 93.8081,0.1636 98.574,-5.8954 3.5903,-4.5642 4.0193,-8.6793 1.4568,-13.9728 -4.4001,-9.0894 6.435,-8.3818 -128.3639,-8.3818 -118.1826,0 -119.8137,0.029 -123.3106,2.1902 -9.5988,5.9324 -8.3937,19.9426 2.1086,24.5154 3.7499,1.6327 16.4822,2.0672 17.3929,0.5936 z m 117.3603,-37.3497 c 0.3336,-2.5399 1.1228,-15.1301 1.7538,-27.9784 0.631,-12.8484 1.5645,-28.982099 2.0746,-35.852799 0.51,-6.8707 0.741,-12.7937 0.5132,-13.1622 -0.2278,-0.3685 -4.0903,0.098 -8.5835,1.037 -7.7967,1.6291 -8.1922,1.8578 -8.6697,5.0131 -0.5584,3.6904 -3.8815,65.100999 -3.8682,71.486499 l 0.01,4.0745 h 8.0825 8.0825 z m -0.2463,-81.902499 c 1.3621,-0.8418 0.1351,-2.2226 -5.2948,-5.9584 -5.6785,-3.9069 -6.8396,-3.2654 -6.8675,3.7939 l -0.016,4.2146 5.6419,-0.7485 c 3.1031,-0.4116 6.0447,-0.9973 6.537,-1.3016 z m 32.3692,-10.4109 c 9.8604,-3.5618 24.0397,-8.6846 31.5097,-11.3841 7.4699,-2.6992 19.3268,-6.9169 26.3486,-9.3724 12.6029,-4.4074 14.7936,-6.1034 10.7076,-8.2901 -2.1471,-1.1492 -5.1919,-11.03625 -3.995,-12.97295 1.3217,-2.1385001 -1.3772,-2.1895001 -6.5612,-0.1237 -5.0342,2.006 -15.6858,6.0375 -49.3174,18.66595 -8.0675,3.0293 -18.4575,6.9682 -23.089,8.7532 l -8.4206,3.2454 0.015,7.2121 c 0.019,9.4508 0.8321,12.4456 3.1159,11.4835 0.9673,-0.4074 9.8262,-3.6551 19.6865,-7.2169 z m -28.0749,-1.9421 c -0.2024,-3.5866 -0.8792,-6.5212 -1.5037,-6.5212 -3.0693,0 -9.5368,2.6885 -9.5368,3.9644 0,1.2338 9.2828,8.9649 10.8654,9.0492 0.2988,0.016 0.3776,-2.9056 0.1751,-6.4924 z m 114.0629,-30.3291 c 2.0337,-1.64685 2.565,-3.12925 2.565,-7.15665 0,-4.2183 -0.5168,-5.5240601 -3.0485,-7.7017901 -4.2161,-3.62653 -8.8083,-3.42774 -12.7898,0.55374 -6.525,6.5250501 -2.6543,16.3817001 6.433,16.3817001 2.5904,0 5.2861,-0.8184 6.8403,-2.077 z"
     id="path4778"
     inkscape:connector-curvature="0" /></svg>